<svg width="33" height="32" viewBox="0 0 33 32" fill="none" xmlns="http://www.w3.org/2000/svg">
<path d="M16.5 11C8.21573 11 1.5 13.4624 1.5 16.5C1.5 19.5376 8.21573 22 16.5 22C24.7843 22 31.5 19.5376 31.5 16.5C31.5 14.924 29.6921 13.5028 26.7953 12.5" stroke="#333333" stroke-width="2" stroke-linecap="round"/>
<path d="M16.5 11C8.21573 11 1.5 13.4624 1.5 16.5C1.5 19.5376 8.21573 22 16.5 22C24.7843 22 31.5 19.5376 31.5 16.5C31.5 14.924 29.6921 13.5028 26.7953 12.5" stroke="black" stroke-opacity="0.2" stroke-width="2" stroke-linecap="round"/>
<path d="M23.0511 12.6133C22.1698 11.3509 21.7291 10.7197 21.9738 10.1968C22.2186 9.67386 22.9855 9.60783 24.5194 9.47578L25.6706 9.37667C27.2046 9.24461 27.9715 9.17858 28.302 9.65197C28.6325 10.1254 28.3062 10.8226 27.6536 12.217L27.1639 13.2636C26.5113 14.658 26.185 15.3552 25.6097 15.4048C25.0345 15.4543 24.5939 14.8231 23.7125 13.5607L23.0511 12.6133Z" fill="#333333"/>
<path d="M23.0511 12.6133C22.1698 11.3509 21.7291 10.7197 21.9738 10.1968C22.2186 9.67386 22.9855 9.60783 24.5194 9.47578L25.6706 9.37667C27.2046 9.24461 27.9715 9.17858 28.302 9.65197C28.6325 10.1254 28.3062 10.8226 27.6536 12.217L27.1639 13.2636C26.5113 14.658 26.185 15.3552 25.6097 15.4048C25.0345 15.4543 24.5939 14.8231 23.7125 13.5607L23.0511 12.6133Z" fill="black" fill-opacity="0.2"/>
</svg>
