<svg width="32" height="32" viewBox="0 0 32 32" fill="none" xmlns="http://www.w3.org/2000/svg">
<g clip-path="url(#clip0_623_3093)">
<mask id="path-1-inside-1_623_3093" fill="white">
<path d="M0 18.6208C0 16.6211 1.62109 15 3.6208 15H28.3792C30.3789 15 32 16.6211 32 18.6208C32 25.1913 26.6736 30.5177 20.1031 30.5177H11.8969C5.32643 30.5177 0 25.1913 0 18.6208Z"/>
</mask>
<path d="M3.6208 17H28.3792V13H3.6208V17ZM20.1031 28.5177H11.8969V32.5177H20.1031V28.5177ZM11.8969 28.5177C6.431 28.5177 2 24.0867 2 18.6208H-2C-2 26.2958 4.22186 32.5177 11.8969 32.5177V28.5177ZM30 18.6208C30 24.0867 25.569 28.5177 20.1031 28.5177V32.5177C27.7781 32.5177 34 26.2958 34 18.6208H30ZM28.3792 17C29.2743 17 30 17.7257 30 18.6208H34C34 15.5165 31.4835 13 28.3792 13V17ZM3.6208 13C0.516517 13 -2 15.5165 -2 18.6208H2C2 17.7257 2.72566 17 3.6208 17V13Z" fill="#67748B" mask="url(#path-1-inside-1_623_3093)"/>
<path d="M6.63202 29.1058C6.90593 28.6262 6.7392 28.0154 6.25963 27.7415C5.78005 27.4676 5.16923 27.6343 4.89532 28.1139L6.63202 29.1058ZM3.52621 30.5108C3.25228 30.9904 3.41897 31.6012 3.89853 31.8752C4.37809 32.1491 4.98892 31.9824 5.26285 31.5028L3.52621 30.5108ZM4.89532 28.1139C4.66717 28.5134 4.3249 29.1126 4.03965 29.612C3.89703 29.8617 3.76867 30.0864 3.67597 30.2487C3.62961 30.3298 3.59217 30.3954 3.56632 30.4406C3.5534 30.4632 3.54337 30.4808 3.53657 30.4927C3.53317 30.4986 3.53058 30.5032 3.52884 30.5062C3.52797 30.5077 3.52731 30.5089 3.52687 30.5097C3.52665 30.5101 3.52649 30.5103 3.52638 30.5105C3.52632 30.5106 3.52628 30.5107 3.52625 30.5108C3.52624 30.5108 3.52623 30.5108 3.52622 30.5108C3.52621 30.5108 3.52621 30.5108 4.39453 31.0068C5.26285 31.5028 5.26286 31.5028 5.26286 31.5028C5.26287 31.5028 5.26288 31.5028 5.26289 31.5028C5.26292 31.5027 5.26296 31.5026 5.26302 31.5025C5.26313 31.5024 5.2633 31.5021 5.26352 31.5017C5.26396 31.5009 5.26461 31.4998 5.26548 31.4982C5.26723 31.4952 5.26982 31.4906 5.27322 31.4847C5.28001 31.4728 5.29004 31.4552 5.30297 31.4326C5.32882 31.3874 5.36626 31.3218 5.41261 31.2407C5.50532 31.0784 5.63368 30.8536 5.77631 30.604C6.06155 30.1046 6.40385 29.5053 6.63202 29.1058L4.89532 28.1139Z" fill="#67748B"/>
<path d="M24.9617 29.1058C24.6878 28.6262 24.8545 28.0154 25.3341 27.7415C25.8137 27.4676 26.4245 27.6343 26.6984 28.1139L24.9617 29.1058ZM28.0675 30.5108C28.3415 30.9904 28.1748 31.6012 27.6952 31.8752C27.2157 32.1491 26.6048 31.9824 26.3309 31.5028L28.0675 30.5108ZM26.6984 28.1139C26.9266 28.5134 27.2689 29.1126 27.5541 29.612C27.6967 29.8617 27.8251 30.0864 27.9178 30.2487C27.9641 30.3298 28.0016 30.3954 28.0274 30.4406C28.0404 30.4632 28.0504 30.4808 28.0572 30.4927C28.0606 30.4986 28.0632 30.5032 28.0649 30.5062C28.0658 30.5077 28.0664 30.5089 28.0669 30.5097C28.0671 30.5101 28.0673 30.5103 28.0674 30.5105C28.0674 30.5106 28.0675 30.5107 28.0675 30.5108C28.0675 30.5108 28.0675 30.5108 28.0675 30.5108C28.0675 30.5108 28.0675 30.5108 27.1992 31.0068C26.3309 31.5028 26.3309 31.5028 26.3309 31.5028C26.3309 31.5028 26.3309 31.5028 26.3309 31.5028C26.3308 31.5027 26.3308 31.5026 26.3307 31.5025C26.3306 31.5024 26.3305 31.5021 26.3302 31.5017C26.3298 31.5009 26.3291 31.4998 26.3283 31.4982C26.3265 31.4952 26.3239 31.4906 26.3205 31.4847C26.3137 31.4728 26.3037 31.4552 26.2908 31.4326C26.2649 31.3874 26.2275 31.3218 26.1811 31.2407C26.0884 31.0784 25.9601 30.8536 25.8174 30.604C25.5322 30.1046 25.1899 29.5053 24.9617 29.1058L26.6984 28.1139Z" fill="#67748B"/>
<path d="M3 16V5.53238C3 3.97779 4.69594 3.01756 6.02899 3.81739L8 5M8 5L6.5 7.5M8 5L9.5 2.5" stroke="#67748B" stroke-width="2" stroke-linecap="round" stroke-linejoin="round"/>
<path d="M10.4289 7.49597C9.97054 7.18789 9.34921 7.30973 9.04113 7.7681C8.73306 8.22648 8.8549 8.84781 9.31327 9.15589L10.4289 7.49597ZM10.798 10.1538C11.2564 10.4619 11.8777 10.34 12.1858 9.88166C12.4939 9.42329 12.372 8.80196 11.9137 8.49388L10.798 10.1538ZM14.2726 10.0793C13.8142 9.77125 13.1929 9.89309 12.8848 10.3515C12.5767 10.8098 12.6985 11.4312 13.1569 11.7392L14.2726 10.0793ZM14.2497 12.4737C14.7081 12.7818 15.3294 12.66 15.6375 12.2016C15.9456 11.7432 15.8237 11.1219 15.3654 10.8138L14.2497 12.4737ZM9.31327 9.15589L10.798 10.1538L11.9137 8.49388L10.4289 7.49597L9.31327 9.15589ZM13.1569 11.7392L14.2497 12.4737L15.3654 10.8138L14.2726 10.0793L13.1569 11.7392Z" fill="#67748B"/>
<path d="M12.0655 4.78764C11.6049 4.48286 10.9845 4.60916 10.6797 5.06974C10.3749 5.53031 10.5013 6.15075 10.9618 6.45553L12.0655 4.78764ZM18.4285 11.3964C18.8891 11.7012 19.5095 11.5749 19.8143 11.1143C20.1191 10.6538 19.9928 10.0333 19.5322 9.72855L18.4285 11.3964ZM10.9618 6.45553L18.4285 11.3964L19.5322 9.72855L12.0655 4.78764L10.9618 6.45553Z" fill="#67748B"/>
</g>
<defs>
<clipPath id="clip0_623_3093">
<rect width="32" height="32" fill="white"/>
</clipPath>
</defs>
</svg>
