<svg width="36" height="36" viewBox="0 0 36 36" fill="none" xmlns="http://www.w3.org/2000/svg">
<g opacity="0.6">
<path d="M36 18C36 27.9411 27.9411 36 18 36C8.05888 36 0 27.9411 0 18C0 8.05888 8.05888 0 18 0C27.9411 0 36 8.05888 36 18Z" fill="#67748B"/>
<path d="M36 18C36 27.9411 27.9411 36 18 36C8.05888 36 0 27.9411 0 18C0 8.05888 8.05888 0 18 0C27.9411 0 36 8.05888 36 18Z" fill="#67748B"/>
<path d="M15.12 23.4V35.64C15.12 35.8388 15.2812 36 15.48 36H20.52C20.7188 36 20.88 35.8388 20.88 35.64V23.4C20.88 23.2012 21.0412 23.04 21.24 23.04H24.84C25.0388 23.04 25.2 22.8788 25.2 22.68V18.36C25.2 18.1612 25.0388 18 24.84 18H21.24C21.0412 18 20.88 17.8391 20.88 17.6402V14.4C20.88 12.96 22.68 12.24 23.4 12.24H25.56C25.7588 12.24 25.92 12.0788 25.92 11.88V7.56C25.92 7.36118 25.7589 7.2 25.5601 7.2H20.88C17.424 7.2 15.12 10.8 15.12 12.96V17.64C15.12 17.8388 14.9588 18 14.76 18H11.16C10.9612 18 10.8 18.1612 10.8 18.36V22.68C10.8 22.8788 10.9612 23.04 11.16 23.04H14.76C14.9588 23.04 15.12 23.2012 15.12 23.4Z" fill="white"/>
</g>
</svg>
