<svg width="26" height="32" viewBox="0 0 26 32" fill="none" xmlns="http://www.w3.org/2000/svg">
<path d="M14.6193 1H7.66667C4.52397 1 2.95262 1 1.97631 1.97631C1 2.95262 1 4.52397 1 7.66667V24.3333C1 27.476 1 29.0474 1.97631 30.0237C2.95262 31 4.52397 31 7.66667 31H17.6667C20.8094 31 22.3807 31 23.357 30.0237C24.3333 29.0474 24.3333 27.476 24.3333 24.3333V10.714C24.3333 10.0328 24.3333 9.69217 24.2065 9.38588C24.0796 9.0796 23.8387 8.83874 23.357 8.35702L16.9763 1.97631C16.4946 1.49459 16.2537 1.25373 15.9475 1.12687C15.6412 1 15.3005 1 14.6193 1Z" stroke="#67748B" stroke-width="2"/>
<path d="M7.66602 17.668L17.666 17.668" stroke="#67748B" stroke-width="2" stroke-linecap="round"/>
<path d="M7.66602 24.332L14.3327 24.332" stroke="#67748B" stroke-width="2" stroke-linecap="round"/>
<path d="M14.333 1V7.66667C14.333 9.23801 14.333 10.0237 14.8212 10.5118C15.3093 11 16.095 11 17.6663 11H24.333" stroke="#67748B" stroke-width="2"/>
</svg>
