<svg width="36" height="36" viewBox="0 0 36 36" fill="none" xmlns="http://www.w3.org/2000/svg">
<g opacity="0.6">
<path fill-rule="evenodd" clip-rule="evenodd" d="M10.5791 0.108C12.4985 0.0196363 13.1105 0 18 0C22.8895 0 23.5015 0.0212727 25.4193 0.108C27.3371 0.194727 28.6462 0.500727 29.7916 0.944182C30.9911 1.39745 32.0793 2.106 32.9793 3.02236C33.8956 3.92073 34.6025 5.00727 35.0542 6.20836C35.4993 7.35382 35.8036 8.66291 35.892 10.5775C35.9804 12.5002 36 13.1122 36 18C36 22.8895 35.9787 23.5015 35.892 25.4209C35.8053 27.3355 35.4993 28.6445 35.0542 29.79C34.6025 30.9912 33.8945 32.0796 32.9793 32.9793C32.0793 33.8956 30.9911 34.6025 29.7916 35.0542C28.6462 35.4993 27.3371 35.8036 25.4225 35.892C23.5015 35.9804 22.8895 36 18 36C13.1105 36 12.4985 35.9787 10.5791 35.892C8.66455 35.8053 7.35545 35.4993 6.21 35.0542C5.00878 34.6025 3.92043 33.8944 3.02073 32.9793C2.10499 32.0804 1.39633 30.9925 0.944182 29.7916C0.500727 28.6462 0.196364 27.3371 0.108 25.4225C0.0196363 23.4998 0 22.8878 0 18C0 13.1105 0.0212727 12.4985 0.108 10.5807C0.194727 8.66291 0.500727 7.35382 0.944182 6.20836C1.397 5.00741 2.10619 3.9196 3.02236 3.02073C3.92079 2.10518 5.00805 1.39654 6.20836 0.944182C7.35382 0.500727 8.66291 0.196364 10.5775 0.108H10.5791ZM25.2736 3.348C23.3755 3.26127 22.806 3.24327 18 3.24327C13.194 3.24327 12.6245 3.26127 10.7264 3.348C8.97054 3.42818 8.01818 3.72109 7.38327 3.96818C6.54382 4.29545 5.94327 4.68327 5.31327 5.31327C4.71607 5.89427 4.25648 6.60155 3.96818 7.38327C3.72109 8.01818 3.42818 8.97054 3.348 10.7264C3.26127 12.6245 3.24327 13.194 3.24327 18C3.24327 22.806 3.26127 23.3755 3.348 25.2736C3.42818 27.0295 3.72109 27.9818 3.96818 28.6167C4.25618 29.3973 4.716 30.1058 5.31327 30.6867C5.89418 31.284 6.60273 31.7438 7.38327 32.0318C8.01818 32.2789 8.97054 32.5718 10.7264 32.652C12.6245 32.7387 13.1924 32.7567 18 32.7567C22.8076 32.7567 23.3755 32.7387 25.2736 32.652C27.0295 32.5718 27.9818 32.2789 28.6167 32.0318C29.4562 31.7045 30.0567 31.3167 30.6867 30.6867C31.284 30.1058 31.7438 29.3973 32.0318 28.6167C32.2789 27.9818 32.5718 27.0295 32.652 25.2736C32.7387 23.3755 32.7567 22.806 32.7567 18C32.7567 13.194 32.7387 12.6245 32.652 10.7264C32.5718 8.97054 32.2789 8.01818 32.0318 7.38327C31.7045 6.54382 31.3167 5.94327 30.6867 5.31327C30.1057 4.71612 29.3984 4.25653 28.6167 3.96818C27.9818 3.72109 27.0295 3.42818 25.2736 3.348ZM15.7009 23.5489C16.9849 24.0834 18.4146 24.1555 19.7459 23.753C21.0771 23.3505 22.2274 22.4982 23.0001 21.3419C23.7728 20.1855 24.1201 18.7967 23.9826 17.4127C23.8452 16.0287 23.2315 14.7354 22.2464 13.7536C21.6184 13.1261 20.8591 12.6455 20.0231 12.3466C19.1871 12.0477 18.2952 11.9379 17.4117 12.025C16.5282 12.1122 15.675 12.3941 14.9135 12.8506C14.152 13.307 13.5012 13.9267 13.0079 14.6648C12.5147 15.403 12.1912 16.2414 12.0608 17.1196C11.9305 17.9978 11.9964 18.8939 12.254 19.7436C12.5115 20.5932 12.9542 21.3752 13.5503 22.0332C14.1463 22.6912 14.8808 23.2088 15.7009 23.5489ZM11.4578 11.4578C12.3169 10.5987 13.3369 9.91719 14.4594 9.45223C15.5819 8.98727 16.785 8.74796 18 8.74796C19.215 8.74796 20.4181 8.98727 21.5406 9.45223C22.6631 9.91719 23.6831 10.5987 24.5422 11.4578C25.4013 12.3169 26.0828 13.3369 26.5478 14.4594C27.0127 15.5819 27.252 16.785 27.252 18C27.252 19.215 27.0127 20.4181 26.5478 21.5406C26.0828 22.6631 25.4013 23.6831 24.5422 24.5422C22.8071 26.2773 20.4538 27.252 18 27.252C15.5462 27.252 13.1929 26.2773 11.4578 24.5422C9.72272 22.8071 8.74796 20.4538 8.74796 18C8.74796 15.5462 9.72272 13.1929 11.4578 11.4578ZM29.304 10.1258C29.5169 9.92499 29.6873 9.68348 29.8052 9.41559C29.9231 9.14771 29.9861 8.85889 29.9903 8.56625C29.9946 8.2736 29.9401 7.98308 29.8301 7.71187C29.72 7.44066 29.5567 7.19429 29.3498 6.98734C29.1428 6.78038 28.8964 6.61706 28.6252 6.50703C28.354 6.397 28.0635 6.34251 27.7708 6.34677C27.4782 6.35104 27.1894 6.41398 26.9215 6.53187C26.6536 6.64975 26.4121 6.82019 26.2113 7.03309C25.8207 7.44714 25.6069 7.99711 25.6151 8.56625C25.6234 9.13539 25.8532 9.67889 26.2557 10.0814C26.6582 10.4839 27.2017 10.7136 27.7708 10.7219C28.34 10.7302 28.89 10.5164 29.304 10.1258Z" fill="#67748B"/>
</g>
</svg>
