<svg width="46" height="46" viewBox="0 0 46 46" fill="none" xmlns="http://www.w3.org/2000/svg">
<path d="M25.466 0.509277C29.3837 0.517174 30.2444 0.549962 32.2743 0.642586C34.6685 0.751872 36.3035 1.13205 37.7343 1.68812C39.2134 2.26294 40.4678 3.03205 41.7183 4.2825C42.9687 5.53294 43.7378 6.78732 44.3126 8.26642C44.8687 9.69723 45.2489 11.3322 45.3582 13.7264C45.4592 15.9409 45.4891 16.7639 45.493 21.6821V24.3182C45.4891 29.2364 45.4592 30.0594 45.3582 32.2739C45.2489 34.6681 44.8687 36.3031 44.3126 37.7339C43.7378 39.213 42.9687 40.4674 41.7183 41.7179C40.4678 42.9683 39.2134 43.7374 37.7343 44.3122C36.3035 44.8683 34.6685 45.2485 32.2743 45.3578C30.0599 45.4588 29.2368 45.4886 24.3186 45.4925H21.6825C16.7643 45.4886 15.9414 45.4588 13.7268 45.3578C11.3326 45.2485 9.69763 44.8683 8.26683 44.3122C6.78772 43.7374 5.53335 42.9683 4.2829 41.7179C3.03246 40.4674 2.26335 39.2129 1.68853 37.7339C1.13245 36.3031 0.752276 34.6681 0.642991 32.2739C0.550367 30.244 0.517642 29.3833 0.509766 25.4656V20.5347C0.517642 16.6171 0.550367 15.7564 0.642991 13.7264C0.752276 11.3322 1.13245 9.69723 1.68853 8.26642C2.26335 6.78732 3.03246 5.53294 4.2829 4.2825C5.53335 3.03205 6.78772 2.26294 8.26683 1.68812C9.69763 1.13205 11.3326 0.751872 13.7268 0.642586C15.7568 0.549962 16.6175 0.517174 20.5351 0.509277H25.466ZM25.4356 4.99222H20.5457C16.8644 4.99952 16.0633 5.02947 14.1185 5.1182C11.9779 5.2159 10.8153 5.57358 10.0416 5.87418C9.01678 6.27247 8.28529 6.74834 7.51702 7.51661C6.74875 8.28488 6.27289 9.01637 5.87468 10.0411C5.57399 10.8149 5.21631 11.9775 5.11861 14.1182C5.02988 16.0629 4.99994 16.864 4.99263 20.5453V25.4352C4.99994 29.1165 5.02988 29.9176 5.11861 31.8624C5.21631 34.003 5.57399 35.1656 5.87468 35.9394C6.27289 36.9641 6.74875 37.6956 7.51702 38.4639C8.28529 39.2322 9.01678 39.708 10.0416 40.1062C10.8153 40.4069 11.9779 40.7646 14.1186 40.8623C16.2482 40.9595 17.0063 40.9861 21.6793 40.9898H24.302C28.975 40.9861 29.7331 40.9595 31.8628 40.8623C34.0035 40.7646 35.166 40.4069 35.9398 40.1062C36.9645 39.708 37.696 39.2322 38.4643 38.4639C39.2326 37.6956 39.7084 36.9641 40.1067 35.9394C40.4073 35.1656 40.765 34.003 40.8627 31.8623C40.9684 29.5472 40.9907 28.8528 40.9907 22.9902L40.9906 22.3111C40.9887 17.0696 40.9641 16.3407 40.8627 14.1181C40.765 11.9775 40.4073 10.8149 40.1067 10.0411C39.7084 9.01637 39.2326 8.28488 38.4643 7.51661C37.696 6.74834 36.9645 6.27247 35.9398 5.87418C35.166 5.57358 34.0035 5.2159 31.8628 5.1182C29.918 5.02947 29.1169 4.99952 25.4356 4.99222ZM23.0006 11.0002C29.628 11.0002 35.0006 16.3728 35.0006 23.0002C35.0006 29.6276 29.628 35.0002 23.0006 35.0002C16.3732 35.0002 11.0006 29.6276 11.0006 23.0002C11.0006 16.3728 16.3732 11.0002 23.0006 11.0002ZM23.0006 15.5025C18.8598 15.5025 15.5029 18.8594 15.5029 23.0002C15.5029 27.141 18.8598 30.4978 23.0006 30.4978C27.1414 30.4978 30.4983 27.141 30.4983 23.0002C30.4983 18.8594 27.1414 15.5025 23.0006 15.5025ZM35.0074 8.29428C36.4981 8.29428 37.7065 9.50267 37.7065 10.9934C37.7065 12.4841 36.4981 13.6926 35.0074 13.6926C33.5167 13.6926 32.3082 12.4841 32.3082 10.9934C32.3082 9.50267 33.5167 8.29428 35.0074 8.29428Z" fill="url(#paint0_linear_741_19517)"/>
<defs>
<linearGradient id="paint0_linear_741_19517" x1="23.0014" y1="0.509277" x2="23.0014" y2="45.4925" gradientUnits="userSpaceOnUse">
<stop stop-color="#6845AE"/>
<stop offset="0.489583" stop-color="#9B3FB7"/>
<stop offset="1" stop-color="#F7C76F"/>
</linearGradient>
</defs>
</svg>
