<svg width="236" height="40" viewBox="0 0 236 40" fill="none" xmlns="http://www.w3.org/2000/svg">
<path fill-rule="evenodd" clip-rule="evenodd" d="M-0.00976562 20.2545L3.09053 18.4678L15.8054 25.7955L28.5204 18.4678L31.6206 20.2545L15.8054 29.3689L-0.00976562 20.2545Z" fill="#77C200"/>
<path fill-rule="evenodd" clip-rule="evenodd" d="M15.8047 30.5392L31.6199 21.4248V30.4053L15.8047 39.5197V30.5392Z" fill="#0E69A7"/>
<path fill-rule="evenodd" clip-rule="evenodd" d="M15.8054 30.5392L-0.00976562 21.4248V30.4053L15.8054 39.5197V30.5392Z" fill="url(#paint0_linear_613_5937)"/>
<path fill-rule="evenodd" clip-rule="evenodd" d="M-0.00976562 9.42661L15.8054 0.312012L31.6206 9.42661L15.8054 18.5411L-0.00976562 9.42661Z" fill="#77C200"/>
<path fill-rule="evenodd" clip-rule="evenodd" d="M15.8047 19.7112L31.6199 10.5967V15.4819L15.8047 24.5963V19.7112Z" fill="#0E69A7"/>
<path fill-rule="evenodd" clip-rule="evenodd" d="M15.8164 19.7112L0.0012064 10.5967V15.4819L15.8164 24.5963V19.7112Z" fill="#0E69A7"/>
<path fill-rule="evenodd" clip-rule="evenodd" d="M15.8164 19.7112L0.0012064 10.5967V15.4819L15.8164 24.5963V19.7112Z" fill="url(#paint1_linear_613_5937)"/>
<path d="M41.0527 10.6562V30.4804H45.7945V14.5982H58.0489V10.6562H41.0527Z" fill="#008DD2"/>
<path d="M65.7575 23.225C65.7575 24.1105 65.8717 24.7674 66.1002 25.253C66.3288 25.71 66.7001 26.0528 67.2143 26.2528C67.7284 26.4527 68.4997 26.5384 69.4709 26.5384H75.7552C76.7836 26.5384 77.5834 26.4527 78.0976 26.2528C78.6117 26.0814 78.9545 25.7387 79.1545 25.2816C79.3544 24.8245 79.4687 24.1104 79.4687 23.1963V18.1403C79.4687 17.1691 79.3544 16.4264 79.0974 15.9408C78.8688 15.4266 78.4689 15.0838 77.9547 14.884C77.412 14.6839 76.6693 14.5982 75.6695 14.5982H69.5566C68.5568 14.5982 67.7856 14.7126 67.2428 14.9125C66.7287 15.1125 66.3288 15.4553 66.1288 15.9694C65.9003 16.455 65.786 17.1976 65.7575 18.1688V23.225ZM84.2105 23.7105C84.2105 24.9959 84.0962 26.0528 83.8677 26.9098C83.6392 27.7382 83.2393 28.4237 82.6966 28.9379C82.1538 29.4806 81.4397 29.8521 80.497 30.1091C79.583 30.3661 78.4118 30.4804 77.0407 30.4804H68.3283C66.9858 30.4804 65.8717 30.3661 64.9576 30.1091C64.015 29.8521 63.2723 29.4521 62.701 28.8808C62.1011 28.338 61.6726 27.6525 61.4156 26.7955C61.1585 25.9671 61.0156 24.9388 61.0156 23.7105V17.6832C61.0156 16.3121 61.1299 15.1695 61.4156 14.284C61.6726 13.3699 62.0726 12.6559 62.6439 12.1417C63.2152 11.599 63.9579 11.2275 64.8719 10.999C65.786 10.7705 66.9286 10.6562 68.3283 10.6562H77.0407C78.7546 10.6562 80.1257 10.8562 81.154 11.2561C82.1824 11.6846 82.9536 12.3987 83.4678 13.3985C83.9534 14.4268 84.2105 15.8551 84.2105 17.6832V23.7105Z" fill="#008DD2"/>
<path d="M87.1816 30.4804V10.6562H100.693C101.978 10.6562 103.035 10.7706 103.921 11.0277C104.778 11.2848 105.492 11.6846 106.035 12.2273C106.606 12.77 107.006 13.4843 107.263 14.3698C107.52 15.2553 107.663 16.3121 107.663 17.5975C107.663 19.2829 107.406 20.6254 106.949 21.6538C106.463 22.6821 105.72 23.4248 104.721 23.9104C103.692 24.396 102.378 24.6246 100.75 24.6246H91.9235V30.4804H87.1816ZM91.9235 20.6827H99.836C100.636 20.6827 101.236 20.5683 101.693 20.3684C102.15 20.1398 102.464 19.8256 102.635 19.3686C102.835 18.9401 102.921 18.3402 102.921 17.5975C102.921 16.5692 102.693 15.7979 102.264 15.3123C101.836 14.8267 101.007 14.5982 99.836 14.5982H91.9235V20.6827Z" fill="#008DD2"/>
<path d="M135.77 30.4804V10.6562H127.8L115.717 26.5384H115.06V10.6562H110.318V30.4804H118.459L130.371 14.5982H131.028V30.4804H135.77Z" fill="#008DD2"/>
<path d="M145.454 30.4804C143.768 30.4804 142.454 30.2804 141.483 29.8805C140.512 29.4806 139.826 28.8808 139.398 28.0525C138.97 27.2241 138.77 26.1671 138.77 24.8531H143.626C143.626 25.3387 143.854 25.7957 144.311 26.1671C144.768 26.5384 145.311 26.7384 145.968 26.7384H153.909C154.966 26.7384 155.737 26.567 156.251 26.2242C156.737 25.8529 156.994 25.3101 156.994 24.5103C156.994 23.9961 156.908 23.5676 156.737 23.2534C156.566 22.9106 156.251 22.6537 155.766 22.4823C155.28 22.3109 154.623 22.2252 153.766 22.2252H145.054V18.7688H154.309C155.823 18.7688 156.594 17.9976 156.594 16.455C156.594 15.0839 155.823 14.3982 154.309 14.3982H146.339C145.397 14.3982 144.768 14.5411 144.454 14.8267C144.14 15.1124 143.968 15.598 143.911 16.255H139.169C139.169 14.9696 139.398 13.9127 139.855 13.0844C140.341 12.256 141.055 11.656 142.055 11.2561C143.054 10.8562 144.34 10.6562 145.939 10.6562H153.995C155.766 10.6562 157.166 10.8276 158.222 11.2275C159.279 11.5989 160.051 12.1702 160.536 12.9986C161.022 13.7984 161.307 14.8839 161.336 16.255C161.279 17.4547 161.05 18.3689 160.622 18.9973C160.193 19.6258 159.536 20.1113 158.679 20.454C159.651 20.7968 160.422 21.2824 160.936 21.9109C161.45 22.5393 161.707 23.3963 161.707 24.4532C161.707 25.8529 161.479 26.9956 161.022 27.8811C160.536 28.7951 159.822 29.4235 158.851 29.8521C157.88 30.2805 156.594 30.4804 155.023 30.4804H145.454Z" fill="#008DD2"/>
<path d="M169.535 23.225C169.535 24.1105 169.649 24.7674 169.878 25.253C170.106 25.71 170.477 26.0528 170.992 26.2528C171.506 26.4527 172.277 26.5384 173.248 26.5384H179.533C180.561 26.5384 181.361 26.4527 181.875 26.2528C182.389 26.0814 182.732 25.7387 182.932 25.2816C183.132 24.8245 183.246 24.1104 183.246 23.1963V18.1403C183.246 17.1691 183.132 16.4264 182.875 15.9408C182.646 15.4266 182.246 15.0838 181.732 14.884C181.189 14.6839 180.447 14.5982 179.447 14.5982H173.334C172.334 14.5982 171.563 14.7126 171.02 14.9125C170.506 15.1125 170.106 15.4553 169.906 15.9694C169.678 16.455 169.563 17.1976 169.535 18.1688V23.225ZM187.988 23.7105C187.988 24.9959 187.874 26.0528 187.645 26.9098C187.417 27.7382 187.017 28.4237 186.474 28.9379C185.931 29.4806 185.217 29.8521 184.274 30.1091C183.36 30.3661 182.189 30.4804 180.818 30.4804H172.106C170.763 30.4804 169.649 30.3661 168.735 30.1091C167.792 29.8521 167.05 29.4521 166.478 28.8808C165.878 28.338 165.45 27.6525 165.193 26.7955C164.936 25.9671 164.793 24.9388 164.793 23.7105V17.6832C164.793 16.3121 164.907 15.1695 165.193 14.284C165.45 13.3699 165.85 12.6559 166.421 12.1417C166.993 11.599 167.735 11.2275 168.649 10.999C169.563 10.7705 170.706 10.6562 172.106 10.6562H180.818C182.532 10.6562 183.903 10.8562 184.931 11.2561C185.96 11.6846 186.731 12.3987 187.245 13.3985C187.731 14.4268 187.988 15.8551 187.988 17.6832V23.7105Z" fill="#008DD2"/>
<path d="M190.873 30.4804V10.6562H195.615V18.2546H207.841V10.6562H212.611V30.4804H207.841V22.1965H195.615V30.4804H190.873Z" fill="#008DD2"/>
<path d="M215.066 10.6562H236.462V14.5982H228.092V30.4804H223.35V14.5982H215.066V10.6562Z" fill="#008DD2"/>
<defs>
<linearGradient id="paint0_linear_613_5937" x1="4.12883" y1="32.8148" x2="11.6665" y2="28.1297" gradientUnits="userSpaceOnUse">
<stop stop-color="#095487"/>
<stop offset="1" stop-color="#008DD2"/>
</linearGradient>
<linearGradient id="paint1_linear_613_5937" x1="11.6778" y1="19.4089" x2="5.32699" y2="14.3067" gradientUnits="userSpaceOnUse">
<stop stop-color="#095487"/>
<stop offset="1" stop-color="#008DD2"/>
</linearGradient>
</defs>
</svg>
