<svg width="233" height="39" viewBox="0 0 233 39" fill="none" xmlns="http://www.w3.org/2000/svg">
<g clip-path="url(#clip0_519_20695)">
<path fill-rule="evenodd" clip-rule="evenodd" d="M0 20.1763L3.1003 18.3896L15.8152 25.7173L28.5302 18.3896L31.6304 20.1763L15.8152 29.2907L0 20.1763Z" fill="#67748B"/>
<path fill-rule="evenodd" clip-rule="evenodd" d="M15.8154 30.4611L31.6306 21.3467V30.3272L15.8154 39.4416V30.4611Z" fill="#67748B"/>
<path fill-rule="evenodd" clip-rule="evenodd" d="M15.8152 30.4611L0 21.3467V30.3272L15.8152 39.4416V30.4611Z" fill="#67748B"/>
<path fill-rule="evenodd" clip-rule="evenodd" d="M15.8152 19.6388L0 10.5244V15.4057L15.8152 24.5201V19.6388Z" fill="#67748B"/>
<path fill-rule="evenodd" clip-rule="evenodd" d="M0 9.34897L15.8152 0.234375L31.6304 9.34897L15.8152 18.4635L0 9.34897Z" fill="#67748B"/>
<path fill-rule="evenodd" clip-rule="evenodd" d="M15.8154 19.6331L31.6306 10.5186V15.4038L15.8154 24.5182V19.6331Z" fill="#67748B"/>
<path d="M37.2627 10.5781V30.4023H42.0045V14.5201H54.2589V10.5781H37.2627Z" fill="#67748B"/>
<path d="M61.9665 23.1468C61.9665 24.0323 62.0807 24.6893 62.3092 25.1749C62.5378 25.6319 62.9091 25.9747 63.4233 26.1747C63.9374 26.3746 64.7087 26.4603 65.6799 26.4603H71.9642C72.9926 26.4603 73.7924 26.3746 74.3066 26.1747C74.8207 26.0033 75.1635 25.6605 75.3635 25.2035C75.5634 24.7464 75.6777 24.0323 75.6777 23.1182V18.0622C75.6777 17.091 75.5634 16.3483 75.3064 15.8627C75.0778 15.3485 74.6779 15.0057 74.1637 14.8058C73.621 14.6058 72.8783 14.5201 71.8785 14.5201H65.7656C64.7658 14.5201 63.9946 14.6344 63.4518 14.8343C62.9377 15.0343 62.5378 15.3771 62.3378 15.8912C62.1093 16.3768 61.995 17.1195 61.9665 18.0907V23.1468ZM80.4195 23.6324C80.4195 24.9178 80.3052 25.9747 80.0767 26.8317C79.8482 27.6601 79.4483 28.3456 78.9056 28.8598C78.3628 29.4025 77.6487 29.7739 76.706 30.031C75.792 30.288 74.6208 30.4023 73.2497 30.4023H64.5373C63.1948 30.4023 62.0807 30.288 61.1666 30.031C60.224 29.7739 59.4813 29.374 58.91 28.8027C58.3101 28.2599 57.8816 27.5744 57.6246 26.7174C57.3675 25.889 57.2246 24.8607 57.2246 23.6324V17.6051C57.2246 16.234 57.3389 15.0914 57.6246 14.2059C57.8816 13.2918 58.2816 12.5777 58.8529 12.0635C59.4242 11.5208 60.1669 11.1494 61.0809 10.9209C61.995 10.6924 63.1376 10.5781 64.5373 10.5781H73.2497C74.9636 10.5781 76.3347 10.7781 77.363 11.178C78.3914 11.6065 79.1626 12.3206 79.6768 13.3204C80.1624 14.3487 80.4195 15.777 80.4195 17.6051V23.6324Z" fill="#67748B"/>
<path d="M83.3906 30.4023V10.5781H96.9019C98.1874 10.5781 99.2443 10.6924 100.13 10.9495C100.987 11.2066 101.701 11.6065 102.244 12.1492C102.815 12.6919 103.215 13.4061 103.472 14.2916C103.729 15.1771 103.872 16.234 103.872 17.5194C103.872 19.2048 103.615 20.5473 103.158 21.5757C102.672 22.604 101.929 23.3467 100.93 23.8323C99.9013 24.3179 98.5873 24.5465 96.9591 24.5465H88.1325V30.4023H83.3906ZM88.1325 20.6045H96.045C96.8448 20.6045 97.4447 20.4902 97.9017 20.2903C98.3588 20.0617 98.673 19.7475 98.8444 19.2905C99.0443 18.862 99.13 18.2621 99.13 17.5194C99.13 16.4911 98.9015 15.7198 98.473 15.2342C98.0445 14.7486 97.2162 14.5201 96.045 14.5201H88.1325V20.6045Z" fill="#67748B"/>
<path d="M131.98 30.4023V10.5781H124.01L111.927 26.4603H111.27V10.5781H106.528V30.4023H114.669L126.581 14.5201H127.238V30.4023H131.98Z" fill="#67748B"/>
<path d="M141.664 30.4023C139.978 30.4023 138.664 30.2023 137.693 29.8024C136.722 29.4025 136.036 28.8027 135.608 27.9743C135.179 27.1459 134.979 26.089 134.979 24.775H139.836C139.836 25.2606 140.064 25.7176 140.521 26.089C140.978 26.4603 141.521 26.6603 142.178 26.6603H150.119C151.176 26.6603 151.947 26.4889 152.461 26.1461C152.947 25.7748 153.204 25.232 153.204 24.4322C153.204 23.918 153.118 23.4895 152.947 23.1753C152.776 22.8325 152.461 22.5755 151.976 22.4041C151.49 22.2327 150.833 22.147 149.976 22.147H141.264V18.6906H150.519C152.033 18.6906 152.804 17.9194 152.804 16.3768C152.804 15.0057 152.033 14.3201 150.519 14.3201H142.549C141.607 14.3201 140.978 14.463 140.664 14.7486C140.35 15.0343 140.178 15.5199 140.121 16.1769H135.379C135.379 14.8915 135.608 13.8345 136.065 13.0062C136.551 12.1778 137.265 11.5779 138.264 11.178C139.264 10.7781 140.55 10.5781 142.149 10.5781H150.205C151.976 10.5781 153.375 10.7495 154.432 11.1494C155.489 11.5208 156.26 12.0921 156.746 12.9205C157.232 13.7203 157.517 14.8058 157.546 16.1769C157.489 17.3766 157.26 18.2907 156.832 18.9191C156.403 19.5476 155.746 20.0332 154.889 20.3759C155.861 20.7187 156.632 21.2043 157.146 21.8328C157.66 22.4612 157.917 23.3182 157.917 24.3751C157.917 25.7748 157.689 26.9174 157.232 27.8029C156.746 28.717 156.032 29.3454 155.061 29.7739C154.09 30.2023 152.804 30.4023 151.233 30.4023H141.664Z" fill="#67748B"/>
<path d="M165.744 23.1468C165.744 24.0323 165.858 24.6893 166.087 25.1749C166.315 25.6319 166.686 25.9747 167.201 26.1747C167.715 26.3746 168.486 26.4603 169.457 26.4603H175.742C176.77 26.4603 177.57 26.3746 178.084 26.1747C178.598 26.0033 178.941 25.6605 179.141 25.2035C179.341 24.7464 179.455 24.0323 179.455 23.1182V18.0622C179.455 17.091 179.341 16.3483 179.084 15.8627C178.855 15.3485 178.455 15.0057 177.941 14.8058C177.398 14.6058 176.656 14.5201 175.656 14.5201H169.543C168.543 14.5201 167.772 14.6344 167.229 14.8343C166.715 15.0343 166.315 15.3771 166.115 15.8912C165.887 16.3768 165.772 17.1195 165.744 18.0907V23.1468ZM184.197 23.6324C184.197 24.9178 184.083 25.9747 183.854 26.8317C183.626 27.6601 183.226 28.3456 182.683 28.8598C182.14 29.4025 181.426 29.7739 180.483 30.031C179.569 30.288 178.398 30.4023 177.027 30.4023H168.315C166.972 30.4023 165.858 30.288 164.944 30.031C164.001 29.7739 163.259 29.374 162.687 28.8027C162.087 28.2599 161.659 27.5744 161.402 26.7174C161.145 25.889 161.002 24.8607 161.002 23.6324V17.6051C161.002 16.234 161.116 15.0914 161.402 14.2059C161.659 13.2918 162.059 12.5777 162.63 12.0635C163.202 11.5208 163.944 11.1494 164.858 10.9209C165.772 10.6924 166.915 10.5781 168.315 10.5781H177.027C178.741 10.5781 180.112 10.7781 181.14 11.178C182.169 11.6065 182.94 12.3206 183.454 13.3204C183.94 14.3487 184.197 15.777 184.197 17.6051V23.6324Z" fill="#67748B"/>
<path d="M187.082 30.4023V10.5781H191.824V18.1764H204.05V10.5781H208.82V30.4023H204.05V22.1184H191.824V30.4023H187.082Z" fill="#67748B"/>
<path d="M211.276 10.5781H232.672V14.5201H224.302V30.4023H219.56V14.5201H211.276V10.5781Z" fill="#67748B"/>
</g>
<defs>
<clipPath id="clip0_519_20695">
<rect width="233" height="39" fill="white"/>
</clipPath>
</defs>
</svg>
