<svg width="32" height="32" viewBox="0 0 32 32" fill="none" xmlns="http://www.w3.org/2000/svg">
<path fill-rule="evenodd" clip-rule="evenodd" d="M4.00106 11.8125C4 12.0824 4 12.3672 4 12.668V19.3346C4 22.1631 4 23.5773 4.87868 24.456C5.75736 25.3346 7.17157 25.3346 10 25.3346H22C24.8284 25.3346 26.2426 25.3346 27.1213 24.456C28 23.5773 28 22.1631 28 19.3346V12.668C28 12.3672 28 12.0824 27.9989 11.8125L16.9713 17.939C16.3672 18.2746 15.6328 18.2746 15.0287 17.939L4.00106 11.8125ZM4.07586 9.67061C4.21552 9.68115 4.35518 9.72133 4.48564 9.79381L16 16.1907L27.5144 9.79381C27.6448 9.72133 27.7845 9.68115 27.9241 9.67061C27.8284 8.69407 27.6116 8.03698 27.1213 7.54665C26.2426 6.66797 24.8284 6.66797 22 6.66797H10C7.17157 6.66797 5.75736 6.66797 4.87868 7.54665C4.38835 8.03698 4.17164 8.69407 4.07586 9.67061Z" fill="#67748B"/>
</svg>
