<svg width="32" height="32" viewBox="0 0 32 32" fill="none" xmlns="http://www.w3.org/2000/svg">
<path d="M6.67962 5.42564L9.39816 2.70711C9.78868 2.31658 10.4218 2.31658 10.8124 2.70711L15.0824 6.9771C15.4729 7.36763 15.4729 8.00079 15.0824 8.39132L12.2375 11.2362C11.8128 11.6609 11.7075 12.3097 11.9761 12.847C13.529 15.9527 16.0473 18.471 19.153 20.0239C19.6903 20.2925 20.3391 20.1872 20.7638 19.7625L23.6087 16.9176C23.9992 16.5271 24.6324 16.5271 25.0229 16.9176L29.2929 21.1876C29.6834 21.5782 29.6834 22.2113 29.2929 22.6018L26.5744 25.3204C24.463 27.4317 21.1204 27.6693 18.7317 25.8777L14.1549 22.4451C12.4114 21.1375 10.8625 19.5886 9.55489 17.8451L6.12226 13.2683C4.33072 10.8796 4.56827 7.53699 6.67962 5.42564Z" fill="#67748B"/>
</svg>
