<svg width="32" height="32" viewBox="0 0 32 32" fill="none" xmlns="http://www.w3.org/2000/svg">
<path fill-rule="evenodd" clip-rule="evenodd" d="M3 21H29V26H3V21ZM3 28H29V31C29 31.5523 29.4477 32 30 32C30.5523 32 31 31.5523 31 31V20C31 19.826 30.9546 19.655 30.8682 19.5039L27 12.7344V6C27 4.34315 25.6569 3 24 3H8C6.34315 3 5 4.34315 5 6V12.7344L1.13176 19.5039C1.04542 19.655 1 19.826 1 20V31C1 31.5523 1.44772 32 2 32C2.55228 32 3 31.5523 3 31V28ZM8 5C7.44772 5 7 5.44772 7 6V12H7.5V14H6.58032L3.72318 19H28.2768L25.4197 14L25 12V6C25 5.44772 24.5523 5 24 5H8ZM14.5 12V14H18V12H14.5Z" fill="#67748B"/>
<rect x="7" y="9" width="7" height="6" rx="2" stroke="#67748B" stroke-width="2"/>
<rect x="18" y="9" width="7" height="6" rx="2" stroke="#67748B" stroke-width="2"/>
</svg>
