<svg width="32" height="32" viewBox="0 0 32 32" fill="none" xmlns="http://www.w3.org/2000/svg">
<path d="M28 10C28 10.5523 28.4477 11 29 11C29.5523 11 30 10.5523 30 10H28ZM30 16C30 15.4477 29.5523 15 29 15C28.4477 15 28 15.4477 28 16H30ZM25.25 19C24.6977 19 24.25 19.4477 24.25 20C24.25 20.5523 24.6977 21 25.25 21V19ZM7 8.5C6.44772 8.5 6 8.94772 6 9.5C6 10.0523 6.44772 10.5 7 10.5V8.5ZM14.125 14.5C14.6773 14.5 15.125 14.0523 15.125 13.5C15.125 12.9477 14.6773 12.5 14.125 12.5V14.5ZM20.25 8C20.25 7.44772 19.8023 7 19.25 7C18.6977 7 18.25 7.44772 18.25 8H20.25ZM28 4V10H30V4H28ZM4 4H11V2H4V4ZM11 28H4V30H11V28ZM10 21V29H12V21H10ZM28 16V20H30V16H28ZM28 20V28H30V20H28ZM11 4H23.5V2H11V4ZM23.5 4H28V2H23.5V4ZM24.5 12.5V3H22.5V12.5H24.5ZM12 21H20.5V19H12V21ZM28 28H21.5V30H28V28ZM21.5 28H11V30H21.5V28ZM20.5 21V29H22.5V21H20.5ZM25.25 21H29V19H25.25V21ZM10 3V9.5H12V3H10ZM10 9.5V12.5H12V9.5H10ZM4 28V9.5H2V28H4ZM4 9.5V4H2V9.5H4ZM11 8.5H7V10.5H11V8.5ZM20.25 14.5H22.5V12.5H20.25V14.5ZM12 14.5H14.125V12.5H12V14.5ZM20.25 12.5V8H18.25V12.5H20.25ZM10 12.5C10 13.6046 10.8954 14.5 12 14.5V12.5H10ZM20.25 12.5H18.25C18.25 13.6046 19.1454 14.5 20.25 14.5V12.5ZM12 21V19C10.8954 19 10 19.8954 10 21H12ZM4 28H2C2 29.1046 2.89543 30 4 30V28ZM20.5 21H22.5C22.5 19.8954 21.6046 19 20.5 19V21ZM28 28V30C29.1046 30 30 29.1046 30 28H28ZM30 4C30 2.89543 29.1046 2 28 2V4H30ZM22.5 12.5V14.5C23.6046 14.5 24.5 13.6046 24.5 12.5H22.5ZM4 2C2.89543 2 2 2.89543 2 4H4V4V2Z" fill="#67748B"/>
</svg>
