<svg width="32" height="32" viewBox="0 0 32 32" fill="none" xmlns="http://www.w3.org/2000/svg">
<path fill-rule="evenodd" clip-rule="evenodd" d="M16 28C22.6274 28 28 22.6274 28 16C28 9.37258 22.6274 4 16 4C9.37258 4 4 9.37258 4 16C4 22.6274 9.37258 28 16 28ZM17 8.66699C17 8.11471 16.5523 7.66699 16 7.66699C15.4477 7.66699 15 8.11471 15 8.66699V15.7503C15 16.4407 15.5596 17.0003 16.25 17.0003H20.6667C21.219 17.0003 21.6667 16.5526 21.6667 16.0003C21.6667 15.448 21.219 15.0003 20.6667 15.0003H17V8.66699Z" fill="#67748B"/>
</svg>
