<svg width="36" height="36" viewBox="0 0 36 36" fill="none" xmlns="http://www.w3.org/2000/svg">
<g opacity="0.6">
<path d="M0 17.28C0 9.1341 0 5.06119 2.5306 2.5306C5.06119 0 9.1341 0 17.28 0H18.72C26.8659 0 30.9388 0 33.4694 2.5306C36 5.06119 36 9.1341 36 17.28V18.72C36 26.8659 36 30.9388 33.4694 33.4694C30.9388 36 26.8659 36 18.72 36H17.28C9.1341 36 5.06119 36 2.5306 33.4694C0 30.9388 0 26.8659 0 18.72V17.28Z" fill="#67748B"/>
<path d="M19.093 25.9198C10.7291 25.9198 5.95854 20.2441 5.75977 10.7998H9.94935C10.087 17.7317 13.1756 20.6679 15.622 21.2733V10.7998H19.5671V16.7782C21.983 16.5209 24.5209 13.7966 25.3772 10.7998H29.3222C28.6647 14.4928 25.9124 17.2171 23.9552 18.3371C25.9124 19.2452 29.0471 21.6214 30.2398 25.9198H25.8971C24.9644 23.0441 22.6405 20.8193 19.5671 20.5166V25.9198H19.093Z" fill="white"/>
</g>
</svg>
