<svg width="46" height="46" viewBox="0 0 46 46" fill="none" xmlns="http://www.w3.org/2000/svg">
<path fill-rule="evenodd" clip-rule="evenodd" d="M3.66324 3.66325C0.499995 6.82649 0.5 11.9177 0.5 22.1V23.9C0.5 34.0823 0.499995 39.1735 3.66324 42.3368C6.82649 45.5 11.9177 45.5 22.1 45.5H23.9C34.0823 45.5 39.1735 45.5 42.3368 42.3368C45.5 39.1735 45.5 34.0823 45.5 23.9V22.1C45.5 11.9177 45.5 6.82649 42.3368 3.66325C39.1735 0.5 34.0823 0.5 23.9 0.5H22.1C11.9177 0.5 6.82649 0.5 3.66324 3.66325ZM8 14.25C8.24091 25.9557 14.3894 33 24.5236 33H25.1115V26.3033C28.8024 26.6779 31.5549 29.4373 32.6785 33H38C36.5564 27.6704 32.8133 24.7237 30.487 23.598C32.8115 22.2057 36.1015 18.8303 36.8764 14.25H32.0349C31.0191 17.9748 27.997 21.3501 25.1097 21.6707V14.25H20.1909V27.2417C17.1976 26.4924 13.2927 22.8487 13.1327 14.25H8Z" fill="#0077FF"/>
</svg>
