<?xml version="1.0" standalone="no"?>
<!DOCTYPE svg PUBLIC "-//W3C//DTD SVG 1.1//EN" "http://www.w3.org/Graphics/SVG/1.1/DTD/svg11.dtd" >
<svg xmlns="http://www.w3.org/2000/svg" xmlns:xlink="http://www.w3.org/1999/xlink" version="1.1">
<metadata>
Created by FontForge 20170731 at Sat Feb 25 00:42:26 2012
 By Aleksey,,,
Copyright (c) 2012, Jovanny Lemonad (http://www.jovanny.ru), Copyright (c) 2012, Pavel Emelyanov (zakachka2006@mail.ru), with Reserved Font Name "Prosto" and "Prosto One".
</metadata>
<defs>
<font id="ProstoOne-Regular" horiz-adv-x="690" >
  <font-face 
    font-family="Prosto One"
    font-weight="400"
    font-stretch="normal"
    units-per-em="1000"
    panose-1="2 0 5 5 6 0 0 2 0 4"
    ascent="800"
    descent="-200"
    x-height="520"
    cap-height="700"
    bbox="-100 -295 1285 940"
    underline-thickness="50"
    underline-position="-150"
    unicode-range="U+0020-2122"
  />
<missing-glyph horiz-adv-x="330" 
 />
    <glyph glyph-name=".notdef" horiz-adv-x="330" 
 />
    <glyph glyph-name=".null" horiz-adv-x="0" 
 />
    <glyph glyph-name="nonmarkingreturn" horiz-adv-x="350" 
 />
    <glyph glyph-name="space" unicode=" " horiz-adv-x="350" 
 />
    <glyph glyph-name="space" unicode="&#xa0;" horiz-adv-x="350" 
 />
    <glyph glyph-name="exclam" unicode="!" horiz-adv-x="280" 
d="M75 200l-15 500h160l-14 -500h-131zM215 65q0 -30 -20.5 -52.5t-54.5 -22.5t-54.5 22.5t-20.5 52.5t20.5 52.5t54.5 22.5q33 0 54 -22.5t21 -52.5z" />
    <glyph glyph-name="quotedbl" unicode="&#x22;" horiz-adv-x="370" 
d="M50 470l-30 230h140l-30 -230h-80zM240 470l-30 230h140l-30 -230h-80z" />
    <glyph glyph-name="numbersign" unicode="#" horiz-adv-x="800" 
d="M294 245h191l22 190h-191zM516 510l23 190h139l-22 -190h124l-9 -75h-124l-22 -190h124l-9 -75h-124l-20 -170h-140l20 170h-191l-20 -170h-140l20 170h-125l9 75h125l22 190h-125l9 75h125l22 190h140l-22 -190h191z" />
    <glyph glyph-name="dollar" unicode="$" horiz-adv-x="750" 
d="M720 185q0 -40 -15.5 -75.5t-50 -62.5t-90 -44t-134.5 -21v-82h-110v83q-89 8 -165.5 37.5t-124.5 74.5l50 60q57 -49 133 -74.5t167 -25.5q101 0 143 27.5t42 72.5q0 41 -33 68t-112 52l-190 60q-94 30 -142 76.5t-48 118.5q0 36 16 69t50 59t87 42.5t127 18.5v81h110
v-86q76 -11 143 -39t112 -70l-50 -60q-57 49 -128 74.5t-162 25.5q-75 0 -112.5 -25.5t-37.5 -59.5q0 -23 7 -39.5t23.5 -30t43.5 -25.5t67 -25l189 -60q91 -29 143 -76t52 -119z" />
    <glyph glyph-name="percent" unicode="%" horiz-adv-x="845" 
d="M745 700l-500 -700h-145l500 700h145zM640 310q37 0 69.5 -10.5t55.5 -31t36.5 -51.5t13.5 -72t-13.5 -72t-36.5 -51.5t-55.5 -31t-69.5 -10.5q-38 0 -70 10.5t-55 31t-36.5 51.5t-13.5 72t13.5 72t36.5 51.5t55 31t70 10.5zM640 35q26 0 45.5 25t19.5 85t-19.5 85
t-45.5 25t-45.5 -25t-19.5 -85t19.5 -85t45.5 -25zM205 720q37 0 69.5 -10.5t55.5 -31t36.5 -51.5t13.5 -72t-13.5 -72t-36.5 -51.5t-55.5 -31t-69.5 -10.5q-38 0 -70 10.5t-55 31t-36.5 51.5t-13.5 72t13.5 72t36.5 51.5t55 31t70 10.5zM205 445q26 0 45.5 25t19.5 85
t-19.5 85t-45.5 25t-45.5 -25t-19.5 -85t19.5 -85t45.5 -25z" />
    <glyph glyph-name="ampersand" unicode="&#x26;" horiz-adv-x="755" 
d="M80 550q0 36 15 67t46 54t78 36t111 13t111 -13t78 -36t46 -54t15 -67t-14 -66t-37.5 -55.5t-54 -46t-64.5 -37.5l170 -140q15 30 25 67.5t10 77.5h100q0 -60 -15 -111.5t-45 -93.5l90 -75l-70 -90l-100 80q-49 -38 -115 -59t-145 -21q-73 0 -126.5 15.5t-89 41
t-52.5 57.5t-17 66q0 39 14 69.5t38 54.5t55.5 42.5t67.5 33.5q-24 19 -47 39t-40 43t-27.5 49.5t-10.5 58.5zM335 50q53 0 97 17.5t78 46.5l-220 181q-45 -23 -75 -58t-30 -77q0 -21 10 -40.5t29.5 -35t47 -25t63.5 -9.5zM330 415q45 26 72.5 61.5t27.5 73.5q0 49 -27.5 77
t-72.5 28t-72.5 -28t-27.5 -77q0 -38 27.5 -73.5t72.5 -61.5z" />
    <glyph glyph-name="quotesingle" unicode="'" horiz-adv-x="180" 
d="M50 470l-30 230h140l-30 -230h-80z" />
    <glyph glyph-name="parenleft" unicode="(" horiz-adv-x="315" 
d="M195 300q0 -135 30 -237.5t90 -192.5l-40 -35q-109 94 -167 215.5t-58 249.5t58 249.5t167 215.5l40 -35q-60 -90 -90 -192.5t-30 -237.5z" />
    <glyph glyph-name="parenright" unicode=")" horiz-adv-x="315" 
d="M120 300q0 135 -30 237.5t-90 192.5l40 35q109 -94 167 -215.5t58 -249.5t-58 -249.5t-167 -215.5l-40 35q60 90 90 192.5t30 237.5z" />
    <glyph glyph-name="asterisk" unicode="*" horiz-adv-x="500" 
d="M40 580l45 80l120 -70v130h90v-130l120 70l45 -80l-118 -67l118 -68l-45 -80l-120 70v-130h-90v130l-120 -70l-45 80l115 68z" />
    <glyph glyph-name="plus" unicode="+" horiz-adv-x="540" 
d="M510 280h-190v-190h-100v190h-190v90h190v190h100v-190h190v-90z" />
    <glyph glyph-name="comma" unicode="," horiz-adv-x="255" 
d="M205 45q0 -39 -12 -67.5t-31 -47t-43.5 -27t-48.5 -8.5v35q26 0 48.5 17.5t26.5 47.5q-3 -2 -7 -3q-8 -2 -18 -2q-30 0 -50 22.5t-20 52.5t20.5 52.5t54.5 22.5q38 0 59 -28.5t21 -66.5z" />
    <glyph glyph-name="hyphen" unicode="-" horiz-adv-x="540" 
d="M500 280h-460v90h460v-90z" />
    <glyph glyph-name="period" unicode="." horiz-adv-x="250" 
d="M200 65q0 -30 -20.5 -52.5t-54.5 -22.5t-54.5 22.5t-20.5 52.5t20.5 52.5t54.5 22.5q33 0 54 -22.5t21 -52.5z" />
    <glyph glyph-name="slash" unicode="/" horiz-adv-x="370" 
d="M370 700l-240 -700h-130l240 700h130z" />
    <glyph glyph-name="zero" unicode="0" horiz-adv-x="820" 
d="M410 650q-39 0 -76 -16.5t-65.5 -52.5t-46 -93t-17.5 -138t17.5 -138t46 -93t65.5 -52.5t76 -16.5t76 16.5t65.5 52.5t46 93t17.5 138t-17.5 138t-46 93t-65.5 52.5t-76 16.5zM410 720q79 0 145 -22.5t114 -68.5t74.5 -115.5t26.5 -163.5t-26.5 -163.5t-74.5 -115.5
t-114 -68.5t-145 -22.5t-145 22.5t-114 68.5t-74.5 115.5t-26.5 163.5t26.5 163.5t74.5 115.5t114 68.5t145 22.5z" />
    <glyph glyph-name="one" unicode="1" horiz-adv-x="400" 
d="M330 700v-700h-145v580h-10l-120 -65l-45 65l170 120h150z" />
    <glyph glyph-name="two" unicode="2" 
d="M400 355q38 26 66.5 63.5t28.5 86.5q0 64 -41 102t-124 38q-75 0 -136.5 -20.5t-118.5 -69.5l-45 60q57 49 134.5 77t175.5 28q79 0 137 -15t96.5 -42.5t57.5 -65t19 -82.5t-13 -80.5t-34.5 -64.5t-49.5 -53t-58 -47l-255 -195h420v-75h-620v80z" />
    <glyph glyph-name="three" unicode="3" horiz-adv-x="735" 
d="M335 645q-75 0 -136.5 -20.5t-118.5 -69.5l-45 60q57 49 134.5 77t175.5 28q77 0 135 -14t97 -39t58.5 -59t19.5 -73q0 -64 -31 -105.5t-99 -64.5q75 -19 117.5 -63.5t42.5 -116.5q0 -43 -20 -80.5t-62.5 -65t-107.5 -43.5t-155 -16q-98 0 -180.5 31t-139.5 84l50 60
q57 -53 121 -76.5t139 -23.5q105 0 152.5 40t47.5 100t-38 92.5t-117 32.5h-205v75h185q145 0 145 130q0 53 -43 86.5t-122 33.5z" />
    <glyph glyph-name="four" unicode="4" horiz-adv-x="760" 
d="M740 160h-85v-160h-145v160h-490v79l455 461h180v-470h85v-70zM510 230v340h-10l-335 -340h345z" />
    <glyph glyph-name="five" unicode="5" horiz-adv-x="725" 
d="M355 450q169 0 249.5 -63t80.5 -172t-82 -172t-258 -63q-94 0 -176 31t-139 84l50 60q57 -53 120 -76.5t135 -23.5q102 0 148.5 42.5t46.5 117.5t-45.5 117.5t-139.5 42.5q-42 0 -89.5 -12.5t-85.5 -42.5h-110v380h565v-70h-420v-210q18 8 41 15q20 5 47.5 10t61.5 5z
" />
    <glyph glyph-name="six" unicode="6" horiz-adv-x="740" 
d="M50 420q0 143 84 221.5t246 78.5q75 0 149 -23t131 -72l-45 -60q-28 24 -58.5 39.5t-60 24.5t-57 12.5t-49.5 3.5q-86 0 -135.5 -54.5t-49.5 -170.5q21 14 50 25q24 9 59.5 17t80.5 8q73 0 130 -18t96 -50t59 -77.5t20 -99.5t-20.5 -99.5t-61.5 -77.5t-101.5 -50
t-141.5 -18q-162 0 -243.5 71.5t-81.5 203.5v165zM385 400q-45 0 -78.5 -10.5t-56.5 -22.5q-26 -14 -45 -32v-90q0 -94 47.5 -144.5t122.5 -50.5q37 0 68.5 12.5t54 35.5t35 55.5t12.5 71.5t-12.5 71.5t-34 55.5t-50.5 35.5t-63 12.5z" />
    <glyph glyph-name="seven" unicode="7" horiz-adv-x="650" 
d="M630 615l-325 -615h-150l330 625h-475v75h620v-85z" />
    <glyph glyph-name="eight" unicode="8" horiz-adv-x="750" 
d="M375 720q81 0 138.5 -14.5t94.5 -40t54.5 -61.5t17.5 -79q0 -57 -35.5 -96t-99.5 -54q37 -8 67.5 -24t52.5 -39.5t33.5 -53t11.5 -63.5q0 -43 -20.5 -82t-62.5 -68.5t-105 -47t-147 -17.5t-147 17.5t-105 47t-62.5 68.5t-20.5 82q0 34 11.5 63.5t33.5 53t52 39.5t68 24
q-64 15 -99.5 54t-35.5 96q0 43 17.5 79t54.5 61.5t94.5 40t138.5 14.5zM375 50q91 0 135.5 40.5t44.5 104.5q0 60 -45 100t-135 40t-135 -40t-45 -100q0 -64 44.5 -104.5t135.5 -40.5zM375 405q75 0 112.5 33.5t37.5 86.5q0 57 -37.5 91t-112.5 34t-112.5 -34t-37.5 -91
q0 -53 37.5 -86.5t112.5 -33.5z" />
    <glyph glyph-name="nine" unicode="9" horiz-adv-x="740" 
d="M690 280q0 -143 -84 -221.5t-246 -78.5q-75 0 -149 23t-131 72l45 60q28 -24 58.5 -39.5t60 -24.5t56.5 -12.5t50 -3.5q86 0 135.5 54.5t49.5 170.5q-22 -14 -50 -25q-25 -10 -60 -17.5t-80 -7.5q-73 0 -130 18t-96 50t-59 77.5t-20 99.5t20.5 99.5t61.5 77.5t101.5 50
t141.5 18q162 0 243.5 -71.5t81.5 -203.5v-165zM355 300q45 0 78.5 10t56.5 22q26 14 45 33v90q0 94 -47.5 144.5t-122.5 50.5q-38 0 -69 -12.5t-53.5 -35.5t-35 -55.5t-12.5 -71.5t12.5 -71.5t34 -55.5t50.5 -35.5t63 -12.5z" />
    <glyph glyph-name="colon" unicode=":" horiz-adv-x="250" 
d="M200 65q0 -30 -20.5 -52.5t-54.5 -22.5t-54.5 22.5t-20.5 52.5t20.5 52.5t54.5 22.5q33 0 54 -22.5t21 -52.5zM200 455q0 -30 -20.5 -52.5t-54.5 -22.5t-54.5 22.5t-20.5 52.5t20.5 52.5t54.5 22.5q33 0 54 -22.5t21 -52.5z" />
    <glyph glyph-name="semicolon" unicode=";" horiz-adv-x="255" 
d="M205 45q0 -39 -12 -67.5t-31 -47t-43.5 -27t-48.5 -8.5v35q26 0 48.5 17.5t26.5 47.5q-3 -2 -7 -3q-8 -2 -18 -2q-30 0 -50 22.5t-20 52.5t20.5 52.5t54.5 22.5q38 0 59 -28.5t21 -66.5zM200 455q0 -30 -20.5 -52.5t-54.5 -22.5t-54.5 22.5t-20.5 52.5t20.5 52.5
t54.5 22.5q33 0 54 -22.5t21 -52.5z" />
    <glyph glyph-name="less" unicode="&#x3c;" horiz-adv-x="425" 
d="M145 260l225 -145v-125l-340 220v100l340 220v-125z" />
    <glyph glyph-name="equal" unicode="=" horiz-adv-x="560" 
d="M510 375h-460v90h460v-90zM510 185h-460v90h460v-90z" />
    <glyph glyph-name="greater" unicode="&#x3e;" horiz-adv-x="425" 
d="M55 405v125l340 -220v-100l-340 -220v125l225 145z" />
    <glyph glyph-name="question" unicode="?" horiz-adv-x="650" 
d="M290 635q-53 0 -115.5 -20.5t-119.5 -69.5l-45 60q57 49 132 77t158 28q81 0 141 -17.5t99.5 -48t59.5 -71.5t20 -88q0 -94 -70.5 -152t-194.5 -73v-60h-130v135q67 0 114 11.5t76 31.5t42 47.5t13 59.5t-12 59.5t-35 47.5t-56.5 31.5t-76.5 11.5zM365 65
q0 -30 -20.5 -52.5t-54.5 -22.5t-54.5 22.5t-20.5 52.5t20.5 52.5t54.5 22.5q33 0 54 -22.5t21 -52.5z" />
    <glyph glyph-name="at" unicode="@" horiz-adv-x="1030" 
d="M525 65q-120 0 -190 56t-70 169q0 112 70 168.5t190 56.5h210v-380q30 0 55 10t42.5 32t27.5 57t10 86q0 73 -24.5 132t-70.5 101t-112 64.5t-148 22.5q-83 0 -148.5 -23t-111.5 -66.5t-70.5 -106.5t-24.5 -144t24.5 -144t70.5 -106.5t111.5 -66.5t148.5 -23q35 0 68 4.5
t58 10.5q29 6 54 15l20 -80q-25 -9 -57 -15q-27 -6 -63.5 -10.5t-79.5 -4.5q-105 0 -191 31t-146.5 87t-94 133t-33.5 169t33.5 169t94 133t146.5 87t191 31t191 -31t146.5 -85t94 -127t33.5 -157q0 -64 -18.5 -111.5t-51.5 -79.5t-78 -48t-97 -16h-210zM595 135v310h-70
q-21 0 -40.5 -9t-35 -27.5t-25 -48t-9.5 -70.5t9.5 -70.5t25 -48.5t35 -27.5t40.5 -8.5h70z" />
    <glyph glyph-name="A" unicode="A" horiz-adv-x="820" 
d="M255 245h310l-150 370h-10zM525 700l285 -700h-144l-66 170h-380l-66 -170h-144l285 700h230z" />
    <glyph glyph-name="B" unicode="B" horiz-adv-x="800" 
d="M70 700h340q77 0 133.5 -13.5t93.5 -38t55 -58.5t18 -75q0 -53 -30 -92t-90 -58q75 -15 117.5 -58.5t42.5 -111.5q0 -90 -74.5 -142.5t-235.5 -52.5h-370v700zM215 320v-245h225q75 0 115 30t40 90q0 64 -40 94.5t-115 30.5h-225zM410 395q145 0 145 120q0 53 -36.5 81.5
t-108.5 28.5h-195v-230h195z" />
    <glyph glyph-name="C" unicode="C" horiz-adv-x="790" 
d="M470 55q68 0 130.5 23.5t119.5 76.5l50 -60q-57 -53 -138 -84t-172 -31q-94 0 -169.5 24t-129 71t-82.5 116t-29 159t28.5 159t81 116t126.5 71t164 24q91 0 172 -31t138 -84l-50 -60q-57 53 -119.5 76.5t-130.5 23.5q-54 0 -101 -17.5t-81 -53.5t-53.5 -91.5
t-19.5 -132.5t19.5 -132.5t55 -91.5t84 -53.5t106.5 -17.5z" />
    <glyph glyph-name="D" unicode="D" horiz-adv-x="840" 
d="M400 700q90 0 163.5 -22.5t126 -66.5t81.5 -109.5t29 -151.5t-29 -151.5t-81.5 -109.5t-126 -66.5t-163.5 -22.5h-330v700h330zM215 625v-550h185q51 0 95.5 15.5t77.5 49t52.5 85.5t19.5 125t-19.5 125t-52.5 85.5t-77.5 49t-95.5 15.5h-185z" />
    <glyph glyph-name="E" unicode="E" horiz-adv-x="710" 
d="M215 625v-230h365v-75h-365v-245h465v-75h-610v700h610v-75h-465z" />
    <glyph glyph-name="F" unicode="F" horiz-adv-x="720" 
d="M215 625v-240h365v-75h-365v-310h-145v700h630v-75h-485z" />
    <glyph glyph-name="G" unicode="G" horiz-adv-x="820" 
d="M430 720q91 0 172 -31t138 -84l-50 -60q-57 53 -119.5 76.5t-130.5 23.5q-51 0 -94 -17.5t-74.5 -53.5t-49 -91.5t-17.5 -132.5q0 -79 18 -135.5t50 -93t77.5 -54t99.5 -17.5q45 0 77.5 8t54.5 19q26 12 43 28v190h-130v65h275v-275q-37 -30 -86 -53q-42 -20 -103.5 -36
t-140.5 -16q-90 0 -162 24t-123 71t-78 116t-27 159t27 159t76.5 116t120 71t156.5 24z" />
    <glyph glyph-name="H" unicode="H" horiz-adv-x="840" 
d="M770 700v-700h-145v305h-410v-305h-145v700h145v-320h410v320h145z" />
    <glyph glyph-name="I" unicode="I" horiz-adv-x="285" 
d="M215 0h-145v700h145v-700z" />
    <glyph glyph-name="J" unicode="J" horiz-adv-x="660" 
d="M260 -20q-36 0 -71.5 6t-68.5 17t-61 25.5t-49 31.5l45 60q45 -34 91.5 -49.5t103.5 -15.5q41 0 76.5 12.5t62 40.5t41.5 71.5t15 105.5v340h-235v75h380v-415q0 -77 -23.5 -134t-66.5 -95t-104 -57t-136 -19z" />
    <glyph glyph-name="K" unicode="K" horiz-adv-x="795" 
d="M520 355l265 -355h-165l-230 310h-175v-310h-145v700h145v-315h165l230 315h160z" />
    <glyph glyph-name="L" unicode="L" horiz-adv-x="665" 
d="M645 75v-75h-575v700h145v-625h430z" />
    <glyph glyph-name="M" unicode="M" horiz-adv-x="1100" 
d="M545 100h10l260 600h215v-700h-145v560h-10l-240 -560h-170l-240 560h-10v-560h-145v700h215z" />
    <glyph glyph-name="N" unicode="N" horiz-adv-x="860" 
d="M790 700v-700h-190l-375 570h-10v-570h-145v700h190l375 -570h10v570h145z" />
    <glyph glyph-name="O" unicode="O" horiz-adv-x="900" 
d="M450 650q-51 0 -95.5 -18t-77.5 -55t-52.5 -93.5t-19.5 -133.5t19.5 -133.5t52.5 -93.5t77.5 -55t95.5 -18t95.5 18t77.5 55t52.5 93.5t19.5 133.5t-19.5 133.5t-52.5 93.5t-77.5 55t-95.5 18zM450 720q90 0 163.5 -24t126 -71t81.5 -116t29 -159t-29 -159t-81.5 -116
t-126 -71t-163.5 -24t-164 24t-126.5 71t-81 116t-28.5 159t28.5 159t81 116t126.5 71t164 24z" />
    <glyph glyph-name="P" unicode="P" horiz-adv-x="790" 
d="M430 700q75 0 134.5 -16.5t100.5 -48t63 -77t22 -103.5t-22 -103.5t-63 -77t-100.5 -48t-134.5 -16.5h-215v-210h-145v700h360zM215 625v-340h215q79 0 122.5 41.5t43.5 128.5t-43.5 128.5t-122.5 41.5h-215z" />
    <glyph glyph-name="Q" unicode="Q" horiz-adv-x="900" 
d="M450 720q90 0 163.5 -24t126 -71t81.5 -116t29 -159q0 -115 -46 -195t-128 -124l64 -71l-70 -65l-89 100q-60 -15 -131 -15q-90 0 -164 24t-126.5 71t-81 116t-28.5 159t28.5 159t81 116t126.5 71t164 24zM450 650q-51 0 -95.5 -18t-77.5 -55t-52.5 -93.5t-19.5 -133.5
t19.5 -133.5t52.5 -93.5t77.5 -55t95.5 -18q39 0 72 10l-57 65l70 65l73 -82q40 36 63.5 96t23.5 146q0 77 -19.5 133.5t-52.5 93.5t-77.5 55t-95.5 18z" />
    <glyph glyph-name="R" unicode="R" horiz-adv-x="800" 
d="M430 700q75 0 134.5 -16.5t100.5 -48t63 -77t22 -103.5q0 -80 -40 -135t-115 -84l165 -236h-165l-147 210h-18h-215v-210h-145v700h360zM215 625v-340h215q79 0 122 41.5t43 128.5t-43 128.5t-122 41.5h-215z" />
    <glyph glyph-name="S" unicode="S" horiz-adv-x="750" 
d="M720 185q0 -43 -18 -80.5t-58.5 -65t-105 -43.5t-158.5 -16q-53 0 -103.5 8t-96 23t-84 36.5t-66.5 47.5l50 60q57 -49 133 -74.5t167 -25.5q101 0 143 28t42 77q0 38 -33 64t-112 51l-190 60q-94 30 -142 76.5t-48 118.5q0 37 17.5 71.5t54.5 61t94.5 42t138.5 15.5
q49 0 97.5 -8t93 -23t83 -36.5t66.5 -47.5l-50 -60q-57 49 -128 74.5t-162 25.5q-75 0 -112.5 -26t-37.5 -64q0 -21 7 -36.5t23.5 -29t43.5 -25t67 -24.5l189 -60q91 -29 143 -76t52 -119z" />
    <glyph glyph-name="T" unicode="T" horiz-adv-x="705" 
d="M695 625h-270v-625h-145v625h-270v75h685v-75z" />
    <glyph glyph-name="U" unicode="U" horiz-adv-x="860" 
d="M430 50q49 0 88.5 13.5t67.5 42t43.5 73t15.5 106.5v415h145v-415q0 -154 -94 -229.5t-266 -75.5q-173 0 -266.5 75.5t-93.5 229.5v415h145v-415q0 -62 15.5 -106.5t43.5 -73t67.5 -42t88.5 -13.5z" />
    <glyph glyph-name="V" unicode="V" horiz-adv-x="830" 
d="M410 85h10l251 615h149l-285 -700h-240l-285 700h149z" />
    <glyph glyph-name="W" unicode="W" horiz-adv-x="1170" 
d="M670 650l156 -555h10l169 605h145l-195 -700h-215l-150 535h-10l-150 -535h-215l-195 700h145l169 -605h10l156 555h170z" />
    <glyph glyph-name="X" unicode="X" horiz-adv-x="765" 
d="M467 359l298 -359h-170l-213 256l-212 -256h-170l297 359l-282 341h170l197 -239l198 239h170z" />
    <glyph glyph-name="Y" unicode="Y" horiz-adv-x="795" 
d="M470 210v-210h-145v210l-325 490h160l235 -355h5l235 355h160z" />
    <glyph glyph-name="Z" unicode="Z" horiz-adv-x="720" 
d="M675 615l-465 -540h475v-75h-650v85l465 540h-455v75h630v-85z" />
    <glyph glyph-name="bracketleft" unicode="[" horiz-adv-x="350" 
d="M210 680v-760h120v-75h-260v910h260v-75h-120z" />
    <glyph glyph-name="backslash" unicode="\" horiz-adv-x="410" 
d="M150 700l240 -700h-130l-240 700h130z" />
    <glyph glyph-name="bracketright" unicode="]" horiz-adv-x="350" 
d="M20 680v75h260v-910h-260v75h120v760h-120z" />
    <glyph glyph-name="asciicircum" unicode="^" horiz-adv-x="510" 
d="M135 450h-125l190 270h110l190 -270h-125l-120 170z" />
    <glyph glyph-name="underscore" unicode="_" horiz-adv-x="460" 
d="M460 -90h-460v90h460v-90z" />
    <glyph glyph-name="grave" unicode="`" horiz-adv-x="246" 
d="M161 720l65 -200h-95l-111 200h141z" />
    <glyph glyph-name="a" unicode="a" horiz-adv-x="645" 
d="M185 165q0 -95 115 -95h140v190h-140q-115 0 -115 -95zM440 330q0 72 -37.5 106t-97.5 34q-45 0 -88 -13.5t-77 -36.5l-35 60q22 15 48.5 26t54.5 18.5t55.5 11.5t51.5 4q64 0 113 -15t83 -43t51.5 -66.5t17.5 -85.5v-330h-280q-136 0 -200.5 41t-64.5 124t64.5 124
t200.5 41h140z" />
    <glyph glyph-name="b" unicode="b" horiz-adv-x="685" 
d="M335 70q34 0 62.5 10.5t49 33.5t32 59t11.5 87t-11.5 87t-32 59t-49 33.5t-62.5 10.5h-125v-380h125zM70 0v700h140v-180h125q69 0 125.5 -18t96.5 -52t61.5 -82t21.5 -108t-21.5 -108t-61.5 -82t-96.5 -52t-125.5 -18h-265z" />
    <glyph glyph-name="c" unicode="c" horiz-adv-x="615" 
d="M350 540q32 0 64 -5.5t61.5 -15t55 -23.5t44.5 -31l-40 -60q-41 31 -83.5 48t-91.5 17q-36 0 -66 -11.5t-52 -37t-34.5 -65.5t-12.5 -96t12.5 -96t35.5 -65.5t55.5 -37t71.5 -11.5q49 0 91.5 17t83.5 48l40 -60q-19 -17 -44.5 -31t-55 -23.5t-61.5 -15t-64 -5.5
q-71 0 -129.5 18.5t-99.5 54t-63.5 87.5t-22.5 120q0 67 22.5 119.5t62.5 88t96 54t124 18.5z" />
    <glyph glyph-name="d" unicode="d" horiz-adv-x="685" 
d="M475 70v380h-125q-34 0 -62.5 -10.5t-49 -33.5t-32 -59t-11.5 -87t11.5 -87t32 -59t49 -33.5t62.5 -10.5h125zM350 0q-69 0 -125.5 18t-96.5 52t-61.5 82t-21.5 108t21.5 108t61.5 82t96.5 52t125.5 18h125v180h140v-700h-265z" />
    <glyph glyph-name="e" unicode="e" horiz-adv-x="670" 
d="M370 50q49 0 91.5 17t83.5 48l40 -60q-19 -17 -44.5 -31t-55 -23.5t-61.5 -15t-64 -5.5q-71 0 -129.5 18.5t-99.5 54t-63.5 87.5t-22.5 120q0 67 21.5 119.5t60 88t91.5 54t117 18.5q60 0 113 -18t92 -52.5t62 -83.5t23 -111v-70h-427q12 -83 57.5 -119t114.5 -36z
M335 475q-29 0 -54 -11t-43.5 -35t-30 -62t-12.5 -92h280q0 52 -12 90t-31.5 62.5t-45 36t-51.5 11.5z" />
    <glyph glyph-name="f" unicode="f" horiz-adv-x="450" 
d="M115 510q0 98 61 154t174 56q38 0 76.5 -10t68.5 -25l-30 -65q-19 11 -47 20.5t-58 9.5q-21 0 -40 -8t-33.5 -24.5t-23 -43.5t-8.5 -64v-10h155v-70h-155v-430h-140v430h-95v70h95v10z" />
    <glyph glyph-name="g" unicode="g" horiz-adv-x="685" 
d="M350 450q-72 0 -113.5 -44.5t-41.5 -135.5t41.5 -135.5t113.5 -44.5h125v360h-125zM615 10q0 -47 -18 -85.5t-53.5 -66.5t-89 -43t-124.5 -15q-24 0 -51.5 3.5t-55.5 11t-54.5 19t-48.5 26.5l35 60q34 -23 77 -36.5t88 -13.5q75 0 115 34t40 106v10h-125q-69 0 -125.5 18
t-96.5 51t-61.5 79t-21.5 102t21.5 102t61.5 79t96.5 51t125.5 18h265v-510z" />
    <glyph glyph-name="h" unicode="h" horiz-adv-x="685" 
d="M620 0h-140v315q0 72 -36 103.5t-104 31.5h-130v-450h-140v700h140v-180h130q143 0 211.5 -51.5t68.5 -153.5v-315z" />
    <glyph glyph-name="i" unicode="i" horiz-adv-x="290" 
d="M215 0h-140v510h140v-510zM220 645q0 -30 -20.5 -52.5t-54.5 -22.5t-54.5 22.5t-20.5 52.5t20.5 52.5t54.5 22.5q33 0 54 -22.5t21 -52.5z" />
    <glyph glyph-name="j" unicode="j" horiz-adv-x="300" 
d="M225 0q0 -43 -14 -79.5t-40.5 -63.5t-65.5 -42t-90 -15q-26 0 -55.5 5t-59.5 20l20 65q15 -8 35.5 -14t39.5 -6t35.5 7t28.5 22.5t19 40t7 60.5v510h140v-510zM230 645q0 -30 -20.5 -52.5t-54.5 -22.5t-54.5 22.5t-20.5 52.5t20.5 52.5t54.5 22.5q33 0 54 -22.5t21 -52.5
z" />
    <glyph glyph-name="k" unicode="k" horiz-adv-x="640" 
d="M315 230h-105v-230h-140v700h140v-400h105l155 220h150l-175 -250l185 -270h-160z" />
    <glyph glyph-name="l" unicode="l" horiz-adv-x="280" 
d="M210 0h-140v700h140v-700z" />
    <glyph glyph-name="m" unicode="m" horiz-adv-x="935" 
d="M70 520h520q143 0 211.5 -51.5t68.5 -153.5v-315h-140v315q0 72 -36 103.5t-104 31.5h-50v-450h-140v450h-190v-450h-140v520z" />
    <glyph glyph-name="n" unicode="n" horiz-adv-x="685" 
d="M620 0h-140v315q0 72 -36 103.5t-104 31.5h-130v-450h-140v520h270q143 0 211.5 -51.5t68.5 -153.5v-315z" />
    <glyph glyph-name="o" unicode="o" horiz-adv-x="700" 
d="M350 45q32 0 60 12t49 37.5t33.5 66.5t12.5 99t-12.5 99t-33.5 66.5t-49 37.5t-60 12t-60 -12t-49 -37.5t-33.5 -66.5t-12.5 -99t12.5 -99t33.5 -66.5t49 -37.5t60 -12zM350 540q67 0 123.5 -18.5t96.5 -54t62.5 -88t22.5 -119.5q0 -68 -22.5 -120t-62.5 -87.5t-96.5 -54
t-123.5 -18.5q-68 0 -124 18.5t-96 54t-62.5 87.5t-22.5 120q0 67 22.5 119.5t62.5 88t96 54t124 18.5z" />
    <glyph glyph-name="p" unicode="p" horiz-adv-x="685" 
d="M210 450v-380h125q34 0 62.5 10.5t49 33.5t32 59t11.5 87t-11.5 87t-32 59t-49 33.5t-62.5 10.5h-125zM335 520q69 0 125.5 -18t96.5 -52t61.5 -82t21.5 -108t-21.5 -108t-61.5 -82t-96.5 -52t-125.5 -18h-125v-180h-140v700h265z" />
    <glyph glyph-name="q" unicode="q" horiz-adv-x="685" 
d="M350 450q-34 0 -62.5 -10.5t-49 -33.5t-32 -59t-11.5 -87t11.5 -87t32 -59t49 -33.5t62.5 -10.5h125v380h-125zM615 520v-700h-140v180h-125q-69 0 -125.5 18t-96.5 52t-61.5 82t-21.5 108t21.5 108t61.5 82t96.5 52t125.5 18h265z" />
    <glyph glyph-name="r" unicode="r" horiz-adv-x="475" 
d="M465 450h-120q-68 0 -104 -36.5t-36 -108.5v-305h-140v305q0 102 64.5 158.5t185.5 56.5h150v-70z" />
    <glyph glyph-name="s" unicode="s" horiz-adv-x="615" 
d="M190 410q0 -23 20.5 -42t69.5 -33l155 -45q72 -21 111 -57t39 -93q0 -36 -15 -65.5t-49 -50.5t-88 -32.5t-133 -11.5q-41 0 -80.5 6t-75 16.5t-64.5 24t-50 28.5l40 60q42 -26 98.5 -45.5t131.5 -19.5t105 20t30 50q0 23 -21 41.5t-74 33.5l-155 45q-64 19 -104.5 54.5
t-40.5 95.5q0 32 14.5 59.5t45.5 47.5t79 31.5t116 11.5q83 0 150.5 -22.5t109.5 -52.5l-40 -60q-41 26 -93 45.5t-127 19.5q-53 0 -79 -17t-26 -43z" />
    <glyph glyph-name="t" unicode="t" horiz-adv-x="505" 
d="M115 450h-95v70h95v160h140v-160h155v-70h-155v-260q0 -38 8.5 -64.5t23 -43t33.5 -24.5t40 -8q30 0 58 9.5t47 20.5l30 -65q-30 -15 -68.5 -25t-76.5 -10q-113 0 -174 56t-61 154v260z" />
    <glyph glyph-name="u" unicode="u" 
d="M70 520h140v-315q0 -72 36 -103.5t104 -31.5h130v450h140v-520h-270q-143 0 -211.5 51.5t-68.5 153.5v315z" />
    <glyph glyph-name="v" unicode="v" horiz-adv-x="640" 
d="M430 0h-220l-200 520h140l165 -435h10l165 435h140z" />
    <glyph glyph-name="w" unicode="w" horiz-adv-x="940" 
d="M650 95h10l115 425h145l-140 -520h-210l-95 360h-10l-95 -360h-210l-140 520h145l115 -425h10l100 375h160z" />
    <glyph glyph-name="x" unicode="x" horiz-adv-x="600" 
d="M380 263l220 -263h-160l-140 167l-140 -167h-160l220 263l-215 257h160l135 -162l135 162h160z" />
    <glyph glyph-name="y" unicode="y" 
d="M480 20h-130q-143 0 -211.5 51.5t-68.5 153.5v295h140v-295q0 -72 36 -103.5t104 -31.5h130v430h140v-510q0 -47 -18 -85.5t-53.5 -66.5t-89 -43t-124.5 -15q-24 0 -51.5 3.5t-55.5 11t-54.5 19t-48.5 26.5l40 60q34 -23 76 -36.5t84 -13.5q75 0 115 34t40 106v10z" />
    <glyph glyph-name="z" unicode="z" horiz-adv-x="590" 
d="M555 70v-70h-520v80l345 370h-335v70h500v-80l-345 -370h355z" />
    <glyph glyph-name="braceleft" unicode="{" horiz-adv-x="380" 
d="M140 300q19 -4 40 -12.5t39 -24.5t29.5 -40t11.5 -58v-145q0 -45 27.5 -72.5t72.5 -27.5h10v-75h-10q-121 0 -180.5 46t-59.5 129v145q0 45 -27.5 72.5t-72.5 27.5v70q45 0 72.5 27.5t27.5 72.5v145q0 83 59.5 129t180.5 46h10v-75h-10q-45 0 -72.5 -27.5t-27.5 -72.5
v-145q0 -34 -11.5 -58t-29.5 -40t-39 -24.5t-40 -12.5z" />
    <glyph glyph-name="bar" unicode="|" horiz-adv-x="285" 
d="M70 700h145v-880h-145v880z" />
    <glyph glyph-name="braceright" unicode="}" horiz-adv-x="380" 
d="M240 300q-19 4 -40 12.5t-39 24.5t-29.5 40t-11.5 58v145q0 45 -27.5 72.5t-72.5 27.5h-10v75h10q121 0 180.5 -46t59.5 -129v-145q0 -45 27.5 -72.5t72.5 -27.5v-70q-45 0 -72.5 -27.5t-27.5 -72.5v-145q0 -83 -59.5 -129t-180.5 -46h-10v75h10q45 0 72.5 27.5
t27.5 72.5v145q0 34 11.5 58t29.5 40t39 24.5t40 12.5z" />
    <glyph glyph-name="asciitilde" unicode="~" horiz-adv-x="505" 
d="M20 261q2 31 12 59t28 49t43 33.5t57 12.5t56.5 -11t45 -24t39 -24t39.5 -11q34 0 50.5 20t24.5 50l70 -26q-2 -32 -12 -60t-28 -49t-43 -33t-57 -12t-56.5 11t-45 24t-39 24t-39.5 11q-34 0 -50.5 -20t-24.5 -50z" />
    <glyph glyph-name="exclamdown" unicode="&#xa1;" horiz-adv-x="280" 
d="M206 320l14 -500h-160l15 500h131zM215 455q0 -30 -21 -52.5t-54 -22.5q-34 0 -54.5 22.5t-20.5 52.5t20.5 52.5t54.5 22.5t54.5 -22.5t20.5 -52.5z" />
    <glyph glyph-name="cent" unicode="&#xa2;" horiz-adv-x="615" 
d="M390 538q54 -6 103.5 -25t81.5 -48l-40 -60q-41 31 -83.5 48t-91.5 17q-36 0 -66 -11.5t-52 -37t-34.5 -65.5t-12.5 -96t12.5 -96t35.5 -65.5t55.5 -37t71.5 -11.5q49 0 91.5 17t83.5 48l40 -60q-33 -30 -85.5 -49t-109.5 -24v-82h-110v87q-109 18 -172 87.5t-63 185.5
q0 58 16.5 105t47.5 81.5t74.5 56.5t96.5 31v86h110v-82z" />
    <glyph glyph-name="sterling" unicode="&#xa3;" 
d="M660 75v-75h-620v75h25q30 0 50 22.5t20 67.5v150h-95v75h95v75q0 58 20.5 105t57.5 80.5t88.5 51.5t113.5 18q75 0 132.5 -20t102.5 -50l-40 -65q-38 26 -81.5 43t-103.5 17q-28 0 -54 -9t-46.5 -30t-32.5 -55.5t-12 -85.5v-75h245v-75h-245v-150q0 -24 -6 -41
t-13.5 -27.5t-13.5 -16t-7 -5.5h420z" />
    <glyph glyph-name="currency" unicode="&#xa4;" horiz-adv-x="660" 
d="M545 455q13 -19 21.5 -45t8.5 -60t-9.5 -60t-20.5 -45l75 -75l-80 -80l-75 75q-26 -19 -61.5 -29.5t-73.5 -10.5t-73.5 10.5t-61.5 29.5l-75 -75l-80 80l75 75q-11 19 -20.5 45t-9.5 60t8.5 60t21.5 45l-75 75l80 80l75 -75q26 19 61.5 29.5t73.5 10.5t73.5 -10.5
t61.5 -29.5l75 75l80 -80zM440 350q0 75 -32.5 112.5t-77.5 37.5t-77.5 -37.5t-32.5 -112.5t32.5 -112.5t77.5 -37.5t77.5 37.5t32.5 112.5z" />
    <glyph glyph-name="yen" unicode="&#xa5;" horiz-adv-x="795" 
d="M630 100h-160v-100h-145v100h-160v70h160v40l-14 20h-146v70h100l-265 400h160l235 -355h5l235 355h160l-265 -400h100v-70h-147l-13 -20v-40h160v-70z" />
    <glyph glyph-name="brokenbar" unicode="&#xa6;" horiz-adv-x="285" 
d="M70 160h145v-340h-145v340zM215 360h-145v340h145v-340z" />
    <glyph glyph-name="section" unicode="&#xa7;" horiz-adv-x="685" 
d="M70 550q0 34 16 64.5t49 54t82.5 37.5t117.5 14q91 0 159.5 -22.5t110.5 -52.5l-40 -60q-21 13 -44 25t-50.5 21t-61 14t-74.5 5q-53 0 -84 -23t-31 -57t24 -56t81 -39l145 -45q72 -23 113.5 -64t41.5 -101q0 -48 -25.5 -86t-74.5 -64q100 -46 100 -135
q0 -38 -16.5 -70.5t-51 -57t-88.5 -38.5t-129 -14q-91 0 -164.5 22.5t-115.5 52.5l40 60q42 -26 99.5 -45.5t140.5 -19.5q68 0 101.5 25.5t33.5 59.5q0 30 -25.5 52.5t-89.5 42.5l-145 45q-72 23 -113.5 64.5t-41.5 105.5q0 45 23.5 83.5t76.5 61.5q-45 23 -67.5 59
t-22.5 81zM210 290q0 -38 23 -61.5t72 -38.5l115 -35q26 11 40.5 32t14.5 47q0 38 -23 62t-72 39l-115 35q-26 -11 -40.5 -30.5t-14.5 -49.5z" />
    <glyph glyph-name="dieresis" unicode="&#xa8;" horiz-adv-x="460" 
d="M190 655q0 -30 -20.5 -52.5t-54.5 -22.5t-54.5 22.5t-20.5 52.5t20.5 52.5t54.5 22.5q33 0 54 -22.5t21 -52.5zM420 655q0 -30 -20.5 -52.5t-54.5 -22.5t-54.5 22.5t-20.5 52.5t20.5 52.5t54.5 22.5q33 0 54 -22.5t21 -52.5z" />
    <glyph glyph-name="copyright" unicode="&#xa9;" horiz-adv-x="930" 
d="M160 350q0 -69 23.5 -124.5t65 -94.5t97 -60t119.5 -21t119.5 21t96.5 60t65 94.5t24 124.5t-24 124.5t-65 94.5t-96.5 60t-119.5 21t-119.5 -21t-97 -60t-65 -94.5t-23.5 -124.5zM880 350q0 -84 -31 -154t-86.5 -120.5t-131.5 -78t-166 -27.5t-166 27.5t-131.5 78
t-86.5 120.5t-31 154t31 154t86.5 120.5t131.5 78t166 27.5t166 -27.5t131.5 -78t86.5 -120.5t31 -154zM480 130q-54 0 -98.5 14.5t-76 43t-48.5 69t-17 93.5q0 52 17 93t47.5 69.5t72.5 43t93 14.5q60 0 105 -18.5t75 -41.5l-35 -50q-30 23 -60 36.5t-76 13.5
q-24 0 -45.5 -9t-38 -28t-26 -49.5t-9.5 -73.5q0 -86 36.5 -123t92.5 -37q46 0 76 13.5t60 36.5l35 -50q-30 -23 -75 -41.5t-105 -18.5z" />
    <glyph glyph-name="ordfeminine" unicode="&#xaa;" horiz-adv-x="505" 
d="M250 290q-102 0 -151 34t-49 91t49 91t151 34h95q0 60 -23 85t-72 25q-30 0 -68 -12t-72 -38l-30 50q42 30 84 45t91 15q102 0 151 -43.5t49 -126.5v-250h-205zM345 350v130h-95q-38 0 -59 -17.5t-21 -47.5t21 -47.5t59 -17.5h95z" />
    <glyph glyph-name="guillemotleft" unicode="&#xab;" horiz-adv-x="595" 
d="M350 80l-75 -80l-265 260l265 260l75 -80l-185 -180zM565 115l-75 -80l-230 225l230 225l75 -80l-150 -145z" />
    <glyph glyph-name="logicalnot" unicode="&#xac;" horiz-adv-x="540" 
d="M500 185h-100v120h-360v90h460v-210z" />
    <glyph glyph-name="uni00AD" unicode="&#xad;" horiz-adv-x="540" 
d="M500 280h-460v90h460v-90z" />
    <glyph glyph-name="registered" unicode="&#xae;" horiz-adv-x="930" 
d="M880 350q0 -84 -31 -154t-86.5 -120.5t-131.5 -78t-166 -27.5t-166 27.5t-131.5 78t-86.5 120.5t-31 154t31 154t86.5 120.5t131.5 78t166 27.5t166 -27.5t131.5 -78t86.5 -120.5t31 -154zM160 350q0 -69 23.5 -124.5t65 -94.5t97 -60t119.5 -21t119.5 21t96.5 60
t65 94.5t24 124.5t-24 124.5t-65 94.5t-96.5 60t-119.5 21t-119.5 -21t-97 -60t-65 -94.5t-23.5 -124.5zM670 410q0 -47 -23 -80t-65 -51l98 -139h-125l-84 120h-1h-70v-120h-110v420h180q94 0 147 -39t53 -111zM550 410q0 49 -25 69.5t-55 20.5h-70v-180h70q30 0 55 20.5
t25 69.5z" />
    <glyph glyph-name="macron" unicode="&#xaf;" horiz-adv-x="400" 
d="M360 600h-320v80h320v-80z" />
    <glyph glyph-name="degree" unicode="&#xb0;" horiz-adv-x="410" 
d="M205 720q37 0 69.5 -10.5t55.5 -31t36.5 -51.5t13.5 -72t-13.5 -72t-36.5 -51.5t-55.5 -31t-69.5 -10.5q-38 0 -70 10.5t-55 31t-36.5 51.5t-13.5 72t13.5 72t36.5 51.5t55 31t70 10.5zM205 445q26 0 45.5 25t19.5 85t-19.5 85t-45.5 25t-45.5 -25t-19.5 -85t19.5 -85
t45.5 -25z" />
    <glyph glyph-name="plusminus" unicode="&#xb1;" horiz-adv-x="560" 
d="M330 180h-100v140h-190v90h190v180h100v-180h190v-90h-190v-140zM510 60h-460v90h460v-90z" />
    <glyph glyph-name="twosuperior" unicode="&#xb2;" horiz-adv-x="470" 
d="M415 350v-60h-365v65l195 140q26 19 40.5 39t14.5 46q0 30 -20 50t-65 20q-34 0 -72.5 -12t-72.5 -38l-30 50q42 30 84.5 45t95.5 15q105 0 152.5 -37.5t47.5 -97.5q0 -24 -8 -43t-22 -35t-33.5 -31t-41.5 -31l-120 -85h220z" />
    <glyph glyph-name="threesuperior" unicode="&#xb3;" horiz-adv-x="495" 
d="M305 585q0 26 -20 45.5t-65 19.5q-34 0 -72 -12t-72 -38l-31 50q42 30 84.5 45t95.5 15q51 0 88.5 -9.5t62 -25.5t37 -37t12.5 -43q0 -42 -23.5 -64.5t-61.5 -30.5q45 -11 75 -35.5t30 -69.5q0 -23 -12 -43.5t-37.5 -36.5t-66.5 -25.5t-99 -9.5q-57 0 -102.5 15t-87.5 45
l30 50q34 -26 73.5 -38t81.5 -12q56 0 78 19.5t22 45.5q0 23 -19 41.5t-61 18.5h-105v60h95q38 0 54 17t16 43z" />
    <glyph glyph-name="acute" unicode="&#xb4;" horiz-adv-x="261" 
d="M241 730l-106 -150h-95l60 150h141z" />
    <glyph glyph-name="mu" unicode="&#xb5;" 
d="M210 285q0 -53 16 -93t41 -67t55 -41t58 -14h100v450h140v-520h-260q-36 0 -63.5 8t-47.5 19q-23 12 -39 28v-235h-140v700h140v-235z" />
    <glyph glyph-name="mu" unicode="&#x3bc;" 
d="M210 285q0 -53 16 -93t41 -67t55 -41t58 -14h100v450h140v-520h-260q-36 0 -63.5 8t-47.5 19q-23 12 -39 28v-235h-140v700h140v-235z" />
    <glyph glyph-name="paragraph" unicode="&#xb6;" horiz-adv-x="700" 
d="M680 700v-70h-75v-810h-120v810h-70v-810h-120v420q-54 0 -102.5 15t-84.5 44t-57 72t-21 99t21 99t57 72t84.5 44t102.5 15h385z" />
    <glyph glyph-name="periodcentered" unicode="&#xb7;" horiz-adv-x="360" 
d="M255 350q0 -30 -20.5 -52.5t-54.5 -22.5t-54.5 22.5t-20.5 52.5t20.5 52.5t54.5 22.5q33 0 54 -22.5t21 -52.5z" />
    <glyph glyph-name="cedilla" unicode="&#xb8;" horiz-adv-x="315" 
d="M155 -240q-25 0 -45 4.5t-35 10.5q-18 6 -31 15l20 50q11 -6 22 -10q10 -4 22.5 -7t26.5 -3q34 0 47 10t13 25t-13 25t-47 10h-45v110h80v-50q49 -4 77 -27t28 -68t-31.5 -70t-88.5 -25z" />
    <glyph glyph-name="onesuperior" unicode="&#xb9;" horiz-adv-x="280" 
d="M230 700v-410h-110v330l-80 -40l-30 50l120 70h100z" />
    <glyph glyph-name="ordmasculine" unicode="&#xba;" horiz-adv-x="520" 
d="M260 650q-38 0 -64 -34.5t-26 -120.5t26 -120.5t64 -34.5q19 0 35.5 8t28.5 26.5t19 48t7 72.5t-7 72.5t-19 48t-28.5 26.5t-35.5 8zM260 710q98 0 154 -53t56 -162t-56 -162t-154 -53t-154 53t-56 162t56 162t154 53z" />
    <glyph glyph-name="guillemotright" unicode="&#xbb;" horiz-adv-x="600" 
d="M430 260l-185 180l75 80l265 -260l-265 -260l-75 80zM180 260l-150 145l75 80l230 -225l-230 -225l-75 80z" />
    <glyph glyph-name="onequarter" unicode="&#xbc;" horiz-adv-x="928" 
d="M755 700l-500 -700h-125l500 700h125zM260 700v-410h-110v330l-80 -40l-30 50l120 70h100zM730 150v160h-5l-164 -160h169zM888 150v-60h-48v-90h-110v90h-280v64l260 256h130v-260h48z" />
    <glyph glyph-name="onehalf" unicode="&#xbd;" horiz-adv-x="985" 
d="M755 700l-500 -700h-125l500 700h125zM260 700v-410h-110v330l-80 -40l-30 50l120 70h100zM940 60v-60h-365v65l195 140q26 19 40.5 39t14.5 46q0 30 -20 50t-65 20q-34 0 -72.5 -12t-72.5 -38l-30 50q42 30 84.5 45t95.5 15q105 0 152.5 -37.5t47.5 -97.5q0 -24 -8 -43
t-22 -35t-33.5 -31t-41.5 -31l-120 -85h220z" />
    <glyph glyph-name="threequarters" unicode="&#xbe;" horiz-adv-x="1012" 
d="M869 700l-500 -700h-125l500 700h125zM305 585q0 26 -20 45.5t-65 19.5q-34 0 -72 -12t-72 -38l-31 50q42 30 84.5 45t95.5 15q51 0 88.5 -9.5t62 -25.5t37 -37t12.5 -43q0 -42 -23.5 -64.5t-61.5 -30.5q45 -11 75 -35.5t30 -69.5q0 -23 -12 -43.5t-37.5 -36.5
t-66.5 -25.5t-99 -9.5q-57 0 -102.5 15t-87.5 45l30 50q34 -26 73.5 -38t81.5 -12q56 0 78 19.5t22 45.5q0 23 -19 41.5t-61 18.5h-105v60h95q38 0 54 17t16 43zM814 150v160h-5l-164 -160h169zM972 150v-60h-48v-90h-110v90h-280v64l260 256h130v-260h48z" />
    <glyph glyph-name="questiondown" unicode="&#xbf;" horiz-adv-x="650" 
d="M360 -115q53 0 115.5 20.5t119.5 69.5l45 -60q-57 -49 -132 -77t-158 -28q-81 0 -141 17.5t-99.5 48t-59.5 71.5t-20 88q0 94 70.5 152t194.5 73v60h130v-135q-68 0 -114.5 -11.5t-75.5 -31.5t-42 -47.5t-13 -59.5t12 -59.5t35 -47.5t56.5 -31.5t76.5 -11.5zM285 455
q0 30 20.5 52.5t54.5 22.5t54.5 -22.5t20.5 -52.5t-20.5 -52.5t-54.5 -22.5q-33 0 -54 22.5t-21 52.5z" />
    <glyph glyph-name="Agrave" unicode="&#xc0;" horiz-adv-x="820" 
d="M255 245h310l-150 370h-10zM525 700l285 -700h-144l-66 170h-380l-66 -170h-144l285 700h230zM259.015 910l105.993 -150h94.9941l-59.9961 150h-140.991z" />
    <glyph glyph-name="Aacute" unicode="&#xc1;" horiz-adv-x="820" 
d="M255 245h310l-150 370h-10zM525 700l285 -700h-144l-66 170h-380l-66 -170h-144l285 700h230zM560 910l-106 -150h-95l60 150h141z" />
    <glyph glyph-name="Acircumflex" unicode="&#xc2;" horiz-adv-x="820" 
d="M255 245h310l-150 370h-10zM525 700l285 -700h-144l-66 170h-380l-66 -170h-144l285 700h230zM464 920l126 -160h-105l-76 90l-75 -90h-105l125 160h110z" />
    <glyph glyph-name="Atilde" unicode="&#xc3;" horiz-adv-x="820" 
d="M255 245h310l-150 370h-10zM525 700l285 -700h-144l-66 170h-380l-66 -170h-144l285 700h230zM245 776q0 26 6.5 50.5t19 43t31.5 30t43 11.5q22 0 39 -9.5t30.5 -20.5t25.5 -20.5t25 -9.5q19 0 27.5 18t12.5 37l70 -10q0 -26 -6.5 -50.5t-19 -43.5t-31.5 -30t-43 -11
q-23 0 -39.5 9.5t-30 20.5t-25.5 20.5t-25 9.5q-19 0 -27.5 -18t-12.5 -37z" />
    <glyph glyph-name="Adieresis" unicode="&#xc4;" horiz-adv-x="820" 
d="M255 245h310l-150 370h-10zM525 700l285 -700h-144l-66 170h-380l-66 -170h-144l285 700h230zM370 835q0 -30 -20.5 -52.5t-54.5 -22.5t-54.5 22.5t-20.5 52.5t20.5 52.5t54.5 22.5q33 0 54 -22.5t21 -52.5zM600 835q0 -30 -20.5 -52.5t-54.5 -22.5t-54.5 22.5
t-20.5 52.5t20.5 52.5t54.5 22.5q33 0 54 -22.5t21 -52.5z" />
    <glyph glyph-name="Aring" unicode="&#xc5;" horiz-adv-x="820" 
d="M255 245h310l-150 370h-10zM525 700l285 -700h-144l-66 170h-380l-66 -170h-144l285 700h230zM530 830q0 -24 -9.5 -44.5t-26 -35t-38.5 -22.5t-46 -8t-46 8t-38.5 22.5t-26 35t-9.5 44.5t9.5 44.5t26 35t38.5 22.5t46 8t46 -8t38.5 -22.5t26 -35t9.5 -44.5zM455 830
q0 23 -13 36.5t-32 13.5t-32 -13.5t-13 -36.5t13 -36.5t32 -13.5t32 13.5t13 36.5z" />
    <glyph glyph-name="AE" unicode="&#xc6;" horiz-adv-x="1185" 
d="M710 625v-230h345v-75h-345v-245h445v-75h-590v170h-346l-74 -170h-145l305 700h850v-75h-445zM250 245h315v380h-150z" />
    <glyph glyph-name="Ccedilla" unicode="&#xc7;" horiz-adv-x="790" 
d="M470 55q68 0 130.5 23.5t119.5 76.5l50 -60q-57 -53 -138 -84t-172 -31q-94 0 -169.5 24t-129 71t-82.5 116t-29 159t28.5 159t81 116t126.5 71t164 24q91 0 172 -31t138 -84l-50 -60q-57 53 -119.5 76.5t-130.5 23.5q-54 0 -101 -17.5t-81 -53.5t-53.5 -91.5
t-19.5 -132.5t19.5 -132.5t55 -91.5t84 -53.5t106.5 -17.5zM452 -240q-25 0 -45 4.5t-35 10.5q-18 6 -31 15l20 50q11 -6 22 -10q10 -4 22.5 -7t26.5 -3q34 0 47 10t13 25t-13 25t-47 10h-45v110h80v-50q49 -4 77 -27t28 -68t-31.5 -70t-88.5 -25z" />
    <glyph glyph-name="Egrave" unicode="&#xc8;" horiz-adv-x="710" 
d="M215 625v-230h365v-75h-365v-245h465v-75h-610v700h610v-75h-465zM234.015 910l105.993 -150h94.9941l-59.9961 150h-140.991z" />
    <glyph glyph-name="Eacute" unicode="&#xc9;" horiz-adv-x="710" 
d="M215 625v-230h365v-75h-365v-245h465v-75h-610v700h610v-75h-465zM505 910l-106 -150h-95l60 150h141z" />
    <glyph glyph-name="Ecircumflex" unicode="&#xca;" horiz-adv-x="710" 
d="M215 625v-230h365v-75h-365v-245h465v-75h-610v700h610v-75h-465zM429 920l126 -160h-105l-76 90l-75 -90h-105l125 160h110z" />
    <glyph glyph-name="Edieresis" unicode="&#xcb;" horiz-adv-x="710" 
d="M215 625v-230h365v-75h-365v-245h465v-75h-610v700h610v-75h-465zM345 835q0 -30 -20.5 -52.5t-54.5 -22.5t-54.5 22.5t-20.5 52.5t20.5 52.5t54.5 22.5q33 0 54 -22.5t21 -52.5zM575 835q0 -30 -20.5 -52.5t-54.5 -22.5t-54.5 22.5t-20.5 52.5t20.5 52.5t54.5 22.5
q33 0 54 -22.5t21 -52.5z" />
    <glyph glyph-name="Igrave" unicode="&#xcc;" horiz-adv-x="285" 
d="M215 0h-145v700h145v-700zM-7.98535 910l105.993 -150h94.9941l-59.9961 150h-140.991z" />
    <glyph glyph-name="Iacute" unicode="&#xcd;" horiz-adv-x="285" 
d="M215 0h-145v700h145v-700zM293 910l-106 -150h-95l60 150h141z" />
    <glyph glyph-name="Icircumflex" unicode="&#xce;" horiz-adv-x="285" 
d="M215 0h-145v700h145v-700zM198 920l126 -160h-105l-76 90l-75 -90h-105l125 160h110z" />
    <glyph glyph-name="Idieresis" unicode="&#xcf;" horiz-adv-x="285" 
d="M215 0h-145v700h145v-700zM104 825q0 -30 -20.5 -52.5t-54.5 -22.5t-54.5 22.5t-20.5 52.5t20.5 52.5t54.5 22.5q33 0 54 -22.5t21 -52.5zM334 825q0 -30 -20.5 -52.5t-54.5 -22.5t-54.5 22.5t-20.5 52.5t20.5 52.5t54.5 22.5q33 0 54 -22.5t21 -52.5z" />
    <glyph glyph-name="Eth" unicode="&#xd0;" horiz-adv-x="870" 
d="M430 700q90 0 163.5 -22.5t126 -66.5t81.5 -109.5t29 -151.5t-29 -151.5t-81.5 -109.5t-126 -66.5t-163.5 -22.5h-330v310h-80v90h80v300h330zM410 310h-165v-235h185q51 0 95.5 15.5t77.5 49t52.5 85.5t19.5 125t-19.5 125t-52.5 85.5t-77.5 49t-95.5 15.5h-185v-225
h165v-90z" />
    <glyph glyph-name="Ntilde" unicode="&#xd1;" horiz-adv-x="860" 
d="M790 700v-700h-190l-375 570h-10v-570h-145v700h190l375 -570h10v570h145zM265 766q0 26 6.5 50.5t19 43t31.5 30t43 11.5q22 0 39 -9.5t30.5 -20.5t25.5 -20.5t25 -9.5q19 0 27.5 18t12.5 37l70 -10q0 -26 -6.5 -50.5t-19 -43.5t-31.5 -30t-43 -11q-23 0 -39.5 9.5
t-30 20.5t-25.5 20.5t-25 9.5q-19 0 -27.5 -18t-12.5 -37z" />
    <glyph glyph-name="Ograve" unicode="&#xd2;" horiz-adv-x="900" 
d="M450 650q-51 0 -95.5 -18t-77.5 -55t-52.5 -93.5t-19.5 -133.5t19.5 -133.5t52.5 -93.5t77.5 -55t95.5 -18t95.5 18t77.5 55t52.5 93.5t19.5 133.5t-19.5 133.5t-52.5 93.5t-77.5 55t-95.5 18zM450 720q90 0 163.5 -24t126 -71t81.5 -116t29 -159t-29 -159t-81.5 -116
t-126 -71t-163.5 -24t-164 24t-126.5 71t-81 116t-28.5 159t28.5 159t81 116t126.5 71t164 24zM299.015 910l105.993 -150h94.9941l-59.9961 150h-140.991z" />
    <glyph glyph-name="Oacute" unicode="&#xd3;" horiz-adv-x="900" 
d="M450 650q-51 0 -95.5 -18t-77.5 -55t-52.5 -93.5t-19.5 -133.5t19.5 -133.5t52.5 -93.5t77.5 -55t95.5 -18t95.5 18t77.5 55t52.5 93.5t19.5 133.5t-19.5 133.5t-52.5 93.5t-77.5 55t-95.5 18zM450 720q90 0 163.5 -24t126 -71t81.5 -116t29 -159t-29 -159t-81.5 -116
t-126 -71t-163.5 -24t-164 24t-126.5 71t-81 116t-28.5 159t28.5 159t81 116t126.5 71t164 24zM600 910l-106 -150h-95l60 150h141z" />
    <glyph glyph-name="Ocircumflex" unicode="&#xd4;" horiz-adv-x="900" 
d="M450 650q-51 0 -95.5 -18t-77.5 -55t-52.5 -93.5t-19.5 -133.5t19.5 -133.5t52.5 -93.5t77.5 -55t95.5 -18t95.5 18t77.5 55t52.5 93.5t19.5 133.5t-19.5 133.5t-52.5 93.5t-77.5 55t-95.5 18zM450 720q90 0 163.5 -24t126 -71t81.5 -116t29 -159t-29 -159t-81.5 -116
t-126 -71t-163.5 -24t-164 24t-126.5 71t-81 116t-28.5 159t28.5 159t81 116t126.5 71t164 24zM504 930l126 -160h-105l-76 90l-75 -90h-105l125 160h110z" />
    <glyph glyph-name="Otilde" unicode="&#xd5;" horiz-adv-x="900" 
d="M450 650q-51 0 -95.5 -18t-77.5 -55t-52.5 -93.5t-19.5 -133.5t19.5 -133.5t52.5 -93.5t77.5 -55t95.5 -18t95.5 18t77.5 55t52.5 93.5t19.5 133.5t-19.5 133.5t-52.5 93.5t-77.5 55t-95.5 18zM450 720q90 0 163.5 -24t126 -71t81.5 -116t29 -159t-29 -159t-81.5 -116
t-126 -71t-163.5 -24t-164 24t-126.5 71t-81 116t-28.5 159t28.5 159t81 116t126.5 71t164 24zM275 776q0 26 6.5 50.5t19 43t31.5 30t43 11.5q22 0 39 -9.5t30.5 -20.5t25.5 -20.5t25 -9.5q19 0 27.5 18t12.5 37l70 -10q0 -26 -6.5 -50.5t-19 -43.5t-31.5 -30t-43 -11
q-23 0 -39.5 9.5t-30 20.5t-25.5 20.5t-25 9.5q-19 0 -27.5 -18t-12.5 -37z" />
    <glyph glyph-name="Odieresis" unicode="&#xd6;" horiz-adv-x="900" 
d="M450 650q-51 0 -95.5 -18t-77.5 -55t-52.5 -93.5t-19.5 -133.5t19.5 -133.5t52.5 -93.5t77.5 -55t95.5 -18t95.5 18t77.5 55t52.5 93.5t19.5 133.5t-19.5 133.5t-52.5 93.5t-77.5 55t-95.5 18zM450 720q90 0 163.5 -24t126 -71t81.5 -116t29 -159t-29 -159t-81.5 -116
t-126 -71t-163.5 -24t-164 24t-126.5 71t-81 116t-28.5 159t28.5 159t81 116t126.5 71t164 24zM410 845q0 -30 -20.5 -52.5t-54.5 -22.5t-54.5 22.5t-20.5 52.5t20.5 52.5t54.5 22.5q33 0 54 -22.5t21 -52.5zM640 845q0 -30 -20.5 -52.5t-54.5 -22.5t-54.5 22.5t-20.5 52.5
t20.5 52.5t54.5 22.5q33 0 54 -22.5t21 -52.5z" />
    <glyph glyph-name="multiply" unicode="&#xd7;" horiz-adv-x="540" 
d="M490 175l-75 -75l-145 145l-145 -145l-75 75l150 150l-150 150l75 75l145 -145l145 145l75 -75l-150 -150z" />
    <glyph glyph-name="Oslash" unicode="&#xd8;" horiz-adv-x="900" 
d="M760 680l-34 -44q60 -47 92 -118.5t32 -167.5q0 -90 -29 -159t-81.5 -116t-126 -71t-163.5 -24q-58 0 -108.5 10t-93.5 29l-38 -49l-70 50l33 43q-59 48 -91 119t-32 168q0 90 28.5 159t81 116t126.5 71t164 24q57 0 107.5 -10t94.5 -29l38 49zM695 350q0 60 -12 107
t-33 82l-343 -444q60 -45 143 -45q51 0 95.5 18t77.5 55t52.5 93.5t19.5 133.5zM450 650q-51 0 -95.5 -18t-77.5 -55t-52.5 -93.5t-19.5 -133.5q0 -60 11.5 -107t32.5 -82l344 443q-61 46 -143 46z" />
    <glyph glyph-name="Ugrave" unicode="&#xd9;" horiz-adv-x="860" 
d="M430 50q49 0 88.5 13.5t67.5 42t43.5 73t15.5 106.5v415h145v-415q0 -154 -94 -229.5t-266 -75.5q-173 0 -266.5 75.5t-93.5 229.5v415h145v-415q0 -62 15.5 -106.5t43.5 -73t67.5 -42t88.5 -13.5zM289.015 890l105.993 -150h94.9941l-59.9961 150h-140.991z" />
    <glyph glyph-name="Uacute" unicode="&#xda;" horiz-adv-x="860" 
d="M430 50q49 0 88.5 13.5t67.5 42t43.5 73t15.5 106.5v415h145v-415q0 -154 -94 -229.5t-266 -75.5q-173 0 -266.5 75.5t-93.5 229.5v415h145v-415q0 -62 15.5 -106.5t43.5 -73t67.5 -42t88.5 -13.5zM570 890l-106 -150h-95l60 150h141z" />
    <glyph glyph-name="Ucircumflex" unicode="&#xdb;" horiz-adv-x="860" 
d="M430 50q49 0 88.5 13.5t67.5 42t43.5 73t15.5 106.5v415h145v-415q0 -154 -94 -229.5t-266 -75.5q-173 0 -266.5 75.5t-93.5 229.5v415h145v-415q0 -62 15.5 -106.5t43.5 -73t67.5 -42t88.5 -13.5zM484 900l126 -160h-105l-76 90l-75 -90h-105l125 160h110z" />
    <glyph glyph-name="Udieresis" unicode="&#xdc;" horiz-adv-x="860" 
d="M430 50q49 0 88.5 13.5t67.5 42t43.5 73t15.5 106.5v415h145v-415q0 -154 -94 -229.5t-266 -75.5q-173 0 -266.5 75.5t-93.5 229.5v415h145v-415q0 -62 15.5 -106.5t43.5 -73t67.5 -42t88.5 -13.5zM390 815q0 -30 -20.5 -52.5t-54.5 -22.5t-54.5 22.5t-20.5 52.5
t20.5 52.5t54.5 22.5q33 0 54 -22.5t21 -52.5zM620 815q0 -30 -20.5 -52.5t-54.5 -22.5t-54.5 22.5t-20.5 52.5t20.5 52.5t54.5 22.5q33 0 54 -22.5t21 -52.5z" />
    <glyph glyph-name="Yacute" unicode="&#xdd;" horiz-adv-x="795" 
d="M470 210v-210h-145v210l-325 490h160l235 -355h5l235 355h160zM538 890l-106 -150h-95l60 150h141z" />
    <glyph glyph-name="Thorn" unicode="&#xde;" horiz-adv-x="810" 
d="M415 630q81 0 146.5 -20t112 -56.5t71.5 -88t25 -115.5t-25 -115.5t-71.5 -88t-112 -56.5t-146.5 -20h-200v-80h-145v720h145v-80h200zM215 555v-410h200q41 0 77.5 12.5t63.5 37.5t43 63.5t16 91.5q0 52 -16 91t-43 64t-63.5 37.5t-77.5 12.5h-200z" />
    <glyph glyph-name="germandbls" unicode="&#xdf;" horiz-adv-x="695" 
d="M505 150q0 25 -13.5 42.5t-33.5 32t-43 27.5t-43 28.5t-33.5 35.5t-13.5 49q0 32 13.5 53.5t29 42t29 43t13.5 56.5q0 42 -26 66t-64 24q-21 0 -40.5 -8.5t-35 -26t-25 -43.5t-9.5 -62v-510h-140v510q0 47 18.5 85.5t52 66.5t79.5 43t100 15q52 0 96.5 -12.5t76 -35
t49.5 -54t18 -68.5q0 -41 -16.5 -66t-36 -42t-36 -31.5t-16.5 -35.5q0 -16 15 -28t37 -23.5t48 -24.5t48 -31.5t37 -44.5t15 -63q0 -36 -14 -68.5t-41.5 -57t-69 -39.5t-95.5 -15q-26 0 -55.5 5t-59.5 20l20 65q15 -8 35.5 -14t39.5 -6q38 0 64 25.5t26 74.5z" />
    <glyph glyph-name="agrave" unicode="&#xe0;" horiz-adv-x="645" 
d="M185 165q0 -95 115 -95h140v190h-140q-115 0 -115 -95zM440 330q0 72 -37.5 106t-97.5 34q-45 0 -88 -13.5t-77 -36.5l-35 60q22 15 48.5 26t54.5 18.5t55.5 11.5t51.5 4q64 0 113 -15t83 -43t51.5 -66.5t17.5 -85.5v-330h-280q-136 0 -200.5 41t-64.5 124t64.5 124
t200.5 41h140zM182.015 730l105.993 -150h94.9941l-59.9961 150h-140.991z" />
    <glyph glyph-name="aacute" unicode="&#xe1;" horiz-adv-x="645" 
d="M185 165q0 -95 115 -95h140v190h-140q-115 0 -115 -95zM440 330q0 72 -37.5 106t-97.5 34q-45 0 -88 -13.5t-77 -36.5l-35 60q22 15 48.5 26t54.5 18.5t55.5 11.5t51.5 4q64 0 113 -15t83 -43t51.5 -66.5t17.5 -85.5v-330h-280q-136 0 -200.5 41t-64.5 124t64.5 124
t200.5 41h140zM463 730l-106 -150h-95l60 150h141z" />
    <glyph glyph-name="acircumflex" unicode="&#xe2;" horiz-adv-x="645" 
d="M185 165q0 -95 115 -95h140v190h-140q-115 0 -115 -95zM440 330q0 72 -37.5 106t-97.5 34q-45 0 -88 -13.5t-77 -36.5l-35 60q22 15 48.5 26t54.5 18.5t55.5 11.5t51.5 4q64 0 113 -15t83 -43t51.5 -66.5t17.5 -85.5v-330h-280q-136 0 -200.5 41t-64.5 124t64.5 124
t200.5 41h140zM387 750l126 -160h-105l-76 90l-75 -90h-105l125 160h110z" />
    <glyph glyph-name="atilde" unicode="&#xe3;" horiz-adv-x="645" 
d="M185 165q0 -95 115 -95h140v190h-140q-115 0 -115 -95zM440 330q0 72 -37.5 106t-97.5 34q-45 0 -88 -13.5t-77 -36.5l-35 60q22 15 48.5 26t54.5 18.5t55.5 11.5t51.5 4q64 0 113 -15t83 -43t51.5 -66.5t17.5 -85.5v-330h-280q-136 0 -200.5 41t-64.5 124t64.5 124
t200.5 41h140zM167 596q0 26 6.5 50.5t19 43t31.5 30t43 11.5q22 0 39 -9.5t30.5 -20.5t25.5 -20.5t25 -9.5q19 0 27.5 18t12.5 37l70 -10q0 -26 -6.5 -50.5t-19 -43.5t-31.5 -30t-43 -11q-23 0 -39.5 9.5t-30 20.5t-25.5 20.5t-25 9.5q-19 0 -27.5 -18t-12.5 -37z" />
    <glyph glyph-name="adieresis" unicode="&#xe4;" horiz-adv-x="645" 
d="M185 165q0 -95 115 -95h140v190h-140q-115 0 -115 -95zM440 330q0 72 -37.5 106t-97.5 34q-45 0 -88 -13.5t-77 -36.5l-35 60q22 15 48.5 26t54.5 18.5t55.5 11.5t51.5 4q64 0 113 -15t83 -43t51.5 -66.5t17.5 -85.5v-330h-280q-136 0 -200.5 41t-64.5 124t64.5 124
t200.5 41h140zM292 665q0 -30 -20.5 -52.5t-54.5 -22.5t-54.5 22.5t-20.5 52.5t20.5 52.5t54.5 22.5q33 0 54 -22.5t21 -52.5zM522 665q0 -30 -20.5 -52.5t-54.5 -22.5t-54.5 22.5t-20.5 52.5t20.5 52.5t54.5 22.5q33 0 54 -22.5t21 -52.5z" />
    <glyph glyph-name="aring" unicode="&#xe5;" horiz-adv-x="645" 
d="M185 165q0 -95 115 -95h140v190h-140q-115 0 -115 -95zM440 330q0 72 -37.5 106t-97.5 34q-45 0 -88 -13.5t-77 -36.5l-35 60q22 15 48.5 26t54.5 18.5t55.5 11.5t51.5 4q64 0 113 -15t83 -43t51.5 -66.5t17.5 -85.5v-330h-280q-136 0 -200.5 41t-64.5 124t64.5 124
t200.5 41h140zM462 681q0 -24 -9.5 -44.5t-26 -35t-38.5 -22.5t-46 -8t-46 8t-38.5 22.5t-26 35t-9.5 44.5t9.5 44.5t26 35t38.5 22.5t46 8t46 -8t38.5 -22.5t26 -35t9.5 -44.5zM387 681q0 23 -13 36.5t-32 13.5t-32 -13.5t-13 -36.5t13 -36.5t32 -13.5t32 13.5t13 36.5z
" />
    <glyph glyph-name="ae" unicode="&#xe6;" horiz-adv-x="1065" 
d="M765 50q49 0 91.5 17t83.5 48l40 -60q-19 -17 -44.5 -31t-55 -23.5t-61.5 -15t-64 -5.5q-83 0 -140 24t-95 66q-34 -42 -91 -66t-129 -24q-128 0 -196.5 41t-68.5 124t68.5 124t196.5 41h140q0 86 -37.5 123t-97.5 37q-45 0 -88 -13.5t-77 -36.5l-35 60q22 15 48.5 26
t54.5 18.5t55.5 11.5t51.5 4q72 0 123.5 -23.5t81.5 -61.5q34 38 84.5 61.5t125.5 23.5q64 0 117 -18t91.5 -51t60 -79t21.5 -102v-70h-428q3 -47 17 -79.5t37 -52.5t53 -29t66 -9zM730 475q-28 0 -52.5 -11.5t-43.5 -34.5t-30.5 -57.5t-12.5 -81.5h279q0 94 -40 139.5
t-100 45.5zM440 240h-140q-49 0 -82 -23t-33 -73q0 -24 8.5 -41.5t23 -29.5t33.5 -17.5t40 -5.5q32 0 59.5 11t47.5 31.5t31.5 50t11.5 67.5v30z" />
    <glyph glyph-name="ccedilla" unicode="&#xe7;" horiz-adv-x="615" 
d="M350 540q32 0 64 -5.5t61.5 -15t55 -23.5t44.5 -31l-40 -60q-41 31 -83.5 48t-91.5 17q-36 0 -66 -11.5t-52 -37t-34.5 -65.5t-12.5 -96t12.5 -96t35.5 -65.5t55.5 -37t71.5 -11.5q49 0 91.5 17t83.5 48l40 -60q-19 -17 -44.5 -31t-55 -23.5t-61.5 -15t-64 -5.5
q-71 0 -129.5 18.5t-99.5 54t-63.5 87.5t-22.5 120q0 67 22.5 119.5t62.5 88t96 54t124 18.5zM355 -240q-25 0 -45 4.5t-35 10.5q-18 6 -31 15l20 50q11 -6 22 -10q10 -4 22.5 -7t26.5 -3q34 0 47 10t13 25t-13 25t-47 10h-45v110h80v-50q49 -4 77 -27t28 -68t-31.5 -70
t-88.5 -25z" />
    <glyph glyph-name="egrave" unicode="&#xe8;" horiz-adv-x="670" 
d="M370 50q49 0 91.5 17t83.5 48l40 -60q-19 -17 -44.5 -31t-55 -23.5t-61.5 -15t-64 -5.5q-71 0 -129.5 18.5t-99.5 54t-63.5 87.5t-22.5 120q0 67 21.5 119.5t60 88t91.5 54t117 18.5q60 0 113 -18t92 -52.5t62 -83.5t23 -111v-70h-427q12 -83 57.5 -119t114.5 -36z
M335 475q-29 0 -54 -11t-43.5 -35t-30 -62t-12.5 -92h280q0 52 -12 90t-31.5 62.5t-45 36t-51.5 11.5zM194.015 730l105.993 -150h94.9941l-59.9961 150h-140.991z" />
    <glyph glyph-name="eacute" unicode="&#xe9;" horiz-adv-x="670" 
d="M370 50q49 0 91.5 17t83.5 48l40 -60q-19 -17 -44.5 -31t-55 -23.5t-61.5 -15t-64 -5.5q-71 0 -129.5 18.5t-99.5 54t-63.5 87.5t-22.5 120q0 67 21.5 119.5t60 88t91.5 54t117 18.5q60 0 113 -18t92 -52.5t62 -83.5t23 -111v-70h-427q12 -83 57.5 -119t114.5 -36z
M335 475q-29 0 -54 -11t-43.5 -35t-30 -62t-12.5 -92h280q0 52 -12 90t-31.5 62.5t-45 36t-51.5 11.5zM475 730l-106 -150h-95l60 150h141z" />
    <glyph glyph-name="ecircumflex" unicode="&#xea;" horiz-adv-x="670" 
d="M370 50q49 0 91.5 17t83.5 48l40 -60q-19 -17 -44.5 -31t-55 -23.5t-61.5 -15t-64 -5.5q-71 0 -129.5 18.5t-99.5 54t-63.5 87.5t-22.5 120q0 67 21.5 119.5t60 88t91.5 54t117 18.5q60 0 113 -18t92 -52.5t62 -83.5t23 -111v-70h-427q12 -83 57.5 -119t114.5 -36z
M335 475q-29 0 -54 -11t-43.5 -35t-30 -62t-12.5 -92h280q0 52 -12 90t-31.5 62.5t-45 36t-51.5 11.5zM389 740l126 -160h-105l-76 90l-75 -90h-105l125 160h110z" />
    <glyph glyph-name="edieresis" unicode="&#xeb;" horiz-adv-x="670" 
d="M370 50q49 0 91.5 17t83.5 48l40 -60q-19 -17 -44.5 -31t-55 -23.5t-61.5 -15t-64 -5.5q-71 0 -129.5 18.5t-99.5 54t-63.5 87.5t-22.5 120q0 67 21.5 119.5t60 88t91.5 54t117 18.5q60 0 113 -18t92 -52.5t62 -83.5t23 -111v-70h-427q12 -83 57.5 -119t114.5 -36z
M335 475q-29 0 -54 -11t-43.5 -35t-30 -62t-12.5 -92h280q0 52 -12 90t-31.5 62.5t-45 36t-51.5 11.5zM295 655q0 -30 -20.5 -52.5t-54.5 -22.5t-54.5 22.5t-20.5 52.5t20.5 52.5t54.5 22.5q33 0 54 -22.5t21 -52.5zM525 655q0 -30 -20.5 -52.5t-54.5 -22.5t-54.5 22.5
t-20.5 52.5t20.5 52.5t54.5 22.5q33 0 54 -22.5t21 -52.5z" />
    <glyph glyph-name="igrave" unicode="&#xec;" horiz-adv-x="280" 
d="M210 0h-140v510h140v-510zM131 730l60 -150h-95l-106 150h141z" />
    <glyph glyph-name="iacute" unicode="&#xed;" horiz-adv-x="281" 
d="M210 0h-140v510h140v-510zM291 730l-106 -150h-95l60 150h141z" />
    <glyph glyph-name="icircumflex" unicode="&#xee;" horiz-adv-x="281" 
d="M210 0h-140v510h140v-510zM195 740l126 -160h-105l-76 90l-75 -90h-105l125 160h110z" />
    <glyph glyph-name="idieresis" unicode="&#xef;" horiz-adv-x="280" 
d="M210 0h-140v510h140v-510zM100 645q0 -30 -20.5 -52.5t-54.5 -22.5t-54.5 22.5t-20.5 52.5t20.5 52.5t54.5 22.5q33 0 54 -22.5t21 -52.5zM330 645q0 -30 -20.5 -52.5t-54.5 -22.5t-54.5 22.5t-20.5 52.5t20.5 52.5t54.5 22.5q33 0 54 -22.5t21 -52.5z" />
    <glyph glyph-name="eth" unicode="&#xf0;" 
d="M405 770l-25 -88q70 -23 120.5 -55t82.5 -74.5t47 -96.5t15 -121v-85q0 -64 -22.5 -114t-62 -84.5t-94.5 -53t-121 -18.5t-121 18t-94.5 51t-62 79t-22.5 102t22 102t61 79t92 51t115 18q79 0 132 -29t83 -86q-6 46 -20 82t-37.5 63t-57.5 46.5t-80 33.5l-25 -90l-85 20
l25 90l-110 20l20 100l95 -20q5 -2 10.5 -3t10.5 -2l24 85zM345 410q-30 0 -57 -11.5t-48 -34t-33 -56t-12 -78.5q0 -47 12 -81.5t33 -57.5t48 -34.5t57 -11.5t57 11.5t48 34.5t33 57.5t12 81.5q0 45 -12 78.5t-33 56t-48 34t-57 11.5z" />
    <glyph glyph-name="ntilde" unicode="&#xf1;" horiz-adv-x="685" 
d="M620 0h-140v315q0 72 -36 103.5t-104 31.5h-130v-450h-140v520h270q143 0 211.5 -51.5t68.5 -153.5v-315zM177 596q0 26 6.5 50.5t19 43t31.5 30t43 11.5q22 0 39 -9.5t30.5 -20.5t25.5 -20.5t25 -9.5q19 0 27.5 18t12.5 37l70 -10q0 -26 -6.5 -50.5t-19 -43.5t-31.5 -30
t-43 -11q-23 0 -39.5 9.5t-30 20.5t-25.5 20.5t-25 9.5q-19 0 -27.5 -18t-12.5 -37z" />
    <glyph glyph-name="ograve" unicode="&#xf2;" horiz-adv-x="700" 
d="M350 45q32 0 60 12t49 37.5t33.5 66.5t12.5 99t-12.5 99t-33.5 66.5t-49 37.5t-60 12t-60 -12t-49 -37.5t-33.5 -66.5t-12.5 -99t12.5 -99t33.5 -66.5t49 -37.5t60 -12zM350 540q67 0 123.5 -18.5t96.5 -54t62.5 -88t22.5 -119.5q0 -68 -22.5 -120t-62.5 -87.5t-96.5 -54
t-123.5 -18.5q-68 0 -124 18.5t-96 54t-62.5 87.5t-22.5 120q0 67 22.5 119.5t62.5 88t96 54t124 18.5zM199.015 730l105.993 -150h94.9941l-59.9961 150h-140.991z" />
    <glyph glyph-name="oacute" unicode="&#xf3;" horiz-adv-x="700" 
d="M350 45q32 0 60 12t49 37.5t33.5 66.5t12.5 99t-12.5 99t-33.5 66.5t-49 37.5t-60 12t-60 -12t-49 -37.5t-33.5 -66.5t-12.5 -99t12.5 -99t33.5 -66.5t49 -37.5t60 -12zM350 540q67 0 123.5 -18.5t96.5 -54t62.5 -88t22.5 -119.5q0 -68 -22.5 -120t-62.5 -87.5t-96.5 -54
t-123.5 -18.5q-68 0 -124 18.5t-96 54t-62.5 87.5t-22.5 120q0 67 22.5 119.5t62.5 88t96 54t124 18.5zM490 730l-106 -150h-95l60 150h141z" />
    <glyph glyph-name="ocircumflex" unicode="&#xf4;" horiz-adv-x="700" 
d="M350 45q32 0 60 12t49 37.5t33.5 66.5t12.5 99t-12.5 99t-33.5 66.5t-49 37.5t-60 12t-60 -12t-49 -37.5t-33.5 -66.5t-12.5 -99t12.5 -99t33.5 -66.5t49 -37.5t60 -12zM350 540q67 0 123.5 -18.5t96.5 -54t62.5 -88t22.5 -119.5q0 -68 -22.5 -120t-62.5 -87.5t-96.5 -54
t-123.5 -18.5q-68 0 -124 18.5t-96 54t-62.5 87.5t-22.5 120q0 67 22.5 119.5t62.5 88t96 54t124 18.5zM404 740l126 -160h-105l-76 90l-75 -90h-105l125 160h110z" />
    <glyph glyph-name="otilde" unicode="&#xf5;" horiz-adv-x="700" 
d="M350 45q32 0 60 12t49 37.5t33.5 66.5t12.5 99t-12.5 99t-33.5 66.5t-49 37.5t-60 12t-60 -12t-49 -37.5t-33.5 -66.5t-12.5 -99t12.5 -99t33.5 -66.5t49 -37.5t60 -12zM350 540q67 0 123.5 -18.5t96.5 -54t62.5 -88t22.5 -119.5q0 -68 -22.5 -120t-62.5 -87.5t-96.5 -54
t-123.5 -18.5q-68 0 -124 18.5t-96 54t-62.5 87.5t-22.5 120q0 67 22.5 119.5t62.5 88t96 54t124 18.5zM185 596q0 26 6.5 50.5t19 43t31.5 30t43 11.5q22 0 39 -9.5t30.5 -20.5t25.5 -20.5t25 -9.5q19 0 27.5 18t12.5 37l70 -10q0 -26 -6.5 -50.5t-19 -43.5t-31.5 -30
t-43 -11q-23 0 -39.5 9.5t-30 20.5t-25.5 20.5t-25 9.5q-19 0 -27.5 -18t-12.5 -37z" />
    <glyph glyph-name="odieresis" unicode="&#xf6;" horiz-adv-x="700" 
d="M350 45q32 0 60 12t49 37.5t33.5 66.5t12.5 99t-12.5 99t-33.5 66.5t-49 37.5t-60 12t-60 -12t-49 -37.5t-33.5 -66.5t-12.5 -99t12.5 -99t33.5 -66.5t49 -37.5t60 -12zM350 540q67 0 123.5 -18.5t96.5 -54t62.5 -88t22.5 -119.5q0 -68 -22.5 -120t-62.5 -87.5t-96.5 -54
t-123.5 -18.5q-68 0 -124 18.5t-96 54t-62.5 87.5t-22.5 120q0 67 22.5 119.5t62.5 88t96 54t124 18.5zM310 655q0 -30 -20.5 -52.5t-54.5 -22.5t-54.5 22.5t-20.5 52.5t20.5 52.5t54.5 22.5q33 0 54 -22.5t21 -52.5zM540 655q0 -30 -20.5 -52.5t-54.5 -22.5t-54.5 22.5
t-20.5 52.5t20.5 52.5t54.5 22.5q33 0 54 -22.5t21 -52.5z" />
    <glyph glyph-name="divide" unicode="&#xf7;" horiz-adv-x="540" 
d="M510 280h-480v90h480v-90zM195 505q0 30 20.5 52.5t54.5 22.5t54.5 -22.5t20.5 -52.5t-20.5 -52.5t-54.5 -22.5q-33 0 -54 22.5t-21 52.5zM195 145q0 30 20.5 52.5t54.5 22.5t54.5 -22.5t20.5 -52.5t-20.5 -52.5t-54.5 -22.5q-33 0 -54 22.5t-21 52.5z" />
    <glyph glyph-name="oslash" unicode="&#xf8;" horiz-adv-x="700" 
d="M610 495l-31 -36q36 -35 56 -85t20 -114q0 -68 -22.5 -120t-62.5 -87.5t-96.5 -54t-123.5 -18.5q-90 0 -159 32l-36 -42l-65 55l31 36q-37 35 -56.5 85t-19.5 114q0 67 22.5 119.5t62.5 88t96 54t124 18.5q90 0 158 -33l37 43zM350 45q32 0 60 12t49 37.5t33.5 66.5
t12.5 99q0 29 -3.5 54t-9.5 45l-240 -277q20 -20 45 -28.5t53 -8.5zM195 260q0 -58 12 -100l241 278q-40 37 -98 37q-32 0 -60 -12t-49 -37.5t-33.5 -66.5t-12.5 -99z" />
    <glyph glyph-name="ugrave" unicode="&#xf9;" 
d="M70 520h140v-315q0 -72 36 -103.5t104 -31.5h130v450h140v-520h-270q-143 0 -211.5 51.5t-68.5 153.5v315zM204.015 721l105.993 -150h94.9941l-59.9961 150h-140.991z" />
    <glyph glyph-name="uacute" unicode="&#xfa;" 
d="M70 520h140v-315q0 -72 36 -103.5t104 -31.5h130v450h140v-520h-270q-143 0 -211.5 51.5t-68.5 153.5v315zM475 721l-106 -150h-95l60 150h141z" />
    <glyph glyph-name="ucircumflex" unicode="&#xfb;" 
d="M70 520h140v-315q0 -72 36 -103.5t104 -31.5h130v450h140v-520h-270q-143 0 -211.5 51.5t-68.5 153.5v315zM399 731l126 -160h-105l-76 90l-75 -90h-105l125 160h110z" />
    <glyph glyph-name="udieresis" unicode="&#xfc;" 
d="M70 520h140v-315q0 -72 36 -103.5t104 -31.5h130v450h140v-520h-270q-143 0 -211.5 51.5t-68.5 153.5v315zM305 655q0 -30 -20.5 -52.5t-54.5 -22.5t-54.5 22.5t-20.5 52.5t20.5 52.5t54.5 22.5q33 0 54 -22.5t21 -52.5zM535 655q0 -30 -20.5 -52.5t-54.5 -22.5
t-54.5 22.5t-20.5 52.5t20.5 52.5t54.5 22.5q33 0 54 -22.5t21 -52.5z" />
    <glyph glyph-name="yacute" unicode="&#xfd;" 
d="M480 20h-130q-143 0 -211.5 51.5t-68.5 153.5v295h140v-295q0 -72 36 -103.5t104 -31.5h130v430h140v-510q0 -47 -18 -85.5t-53.5 -66.5t-89 -43t-124.5 -15q-24 0 -51.5 3.5t-55.5 11t-54.5 19t-48.5 26.5l40 60q34 -23 76 -36.5t84 -13.5q75 0 115 34t40 106v10z
M485 701l-106 -150h-95l60 150h141z" />
    <glyph glyph-name="thorn" unicode="&#xfe;" horiz-adv-x="685" 
d="M335 520q69 0 125.5 -18t96.5 -52t61.5 -82t21.5 -108t-21.5 -108t-61.5 -82t-96.5 -52t-125.5 -18h-125v-180h-140v880h140v-180h125zM210 450v-380h125q34 0 62.5 10.5t49 33.5t32 59t11.5 87t-11.5 87t-32 59t-49 33.5t-62.5 10.5h-125z" />
    <glyph glyph-name="ydieresis" unicode="&#xff;" 
d="M480 20h-130q-143 0 -211.5 51.5t-68.5 153.5v295h140v-295q0 -72 36 -103.5t104 -31.5h130v430h140v-510q0 -47 -18 -85.5t-53.5 -66.5t-89 -43t-124.5 -15q-24 0 -51.5 3.5t-55.5 11t-54.5 19t-48.5 26.5l40 60q34 -23 76 -36.5t84 -13.5q75 0 115 34t40 106v10z
M305 646q0 -30 -20.5 -52.5t-54.5 -22.5t-54.5 22.5t-20.5 52.5t20.5 52.5t54.5 22.5q33 0 54 -22.5t21 -52.5zM535 646q0 -30 -20.5 -52.5t-54.5 -22.5t-54.5 22.5t-20.5 52.5t20.5 52.5t54.5 22.5q33 0 54 -22.5t21 -52.5z" />
    <glyph glyph-name="Amacron" unicode="&#x100;" horiz-adv-x="820" 
d="M255 245h310l-150 370h-10zM525 700l285 -700h-144l-66 170h-380l-66 -170h-144l285 700h230zM571 780h-320v80h320v-80z" />
    <glyph glyph-name="amacron" unicode="&#x101;" horiz-adv-x="645" 
d="M185 165q0 -95 115 -95h140v190h-140q-115 0 -115 -95zM440 330q0 72 -37.5 106t-97.5 34q-45 0 -88 -13.5t-77 -36.5l-35 60q22 15 48.5 26t54.5 18.5t55.5 11.5t51.5 4q64 0 113 -15t83 -43t51.5 -66.5t17.5 -85.5v-330h-280q-136 0 -200.5 41t-64.5 124t64.5 124
t200.5 41h140zM502 600h-320v80h320v-80z" />
    <glyph glyph-name="Abreve" unicode="&#x102;" horiz-adv-x="820" 
d="M255 245h310l-150 370h-10zM525 700l285 -700h-144l-66 170h-380l-66 -170h-144l285 700h230zM410 770q-105 0 -150 45t-45 120h115q0 -45 23 -65t57 -20t57 20t23 65h115q0 -75 -45 -120t-150 -45z" />
    <glyph glyph-name="abreve" unicode="&#x103;" horiz-adv-x="645" 
d="M340 590q-94 0 -142 43.5t-48 111.5h115q0 -38 22.5 -61.5t52.5 -23.5t52.5 23.5t22.5 61.5h115q0 -68 -48 -111.5t-142 -43.5zM185 165q0 -95 115 -95h140v190h-140q-115 0 -115 -95zM440 330q0 72 -37.5 106t-97.5 34q-45 0 -88 -13.5t-77 -36.5l-35 60q22 15 48.5 26
t54.5 18.5t55.5 11.5t51.5 4q64 0 113 -15t83 -43t51.5 -66.5t17.5 -85.5v-330h-280q-136 0 -200.5 41t-64.5 124t64.5 124t200.5 41h140z" />
    <glyph glyph-name="Aogonek" unicode="&#x104;" horiz-adv-x="820" 
d="M255 245h310l-150 370h-10zM525 700l285 -700h-144l-66 170h-380l-66 -170h-144l285 700h230zM720 -225q-57 0 -88.5 27.5t-31.5 72.5t30 73.5t75 51.5h100q-53 -30 -87 -57.5t-34 -57.5q0 -23 15 -34t41 -11q13 0 25.5 3t22.5 7q11 4 22 10l20 -55q-14 -9 -31 -15
q-14 -6 -34.5 -10.5t-44.5 -4.5z" />
    <glyph glyph-name="aogonek" unicode="&#x105;" horiz-adv-x="651" 
d="M185 165q0 -95 115 -95h140v190h-140q-115 0 -115 -95zM440 330q0 72 -37.5 106t-97.5 34q-45 0 -88 -13.5t-77 -36.5l-35 60q22 15 48.5 26t54.5 18.5t55.5 11.5t51.5 4q64 0 113 -15t83 -43t51.5 -66.5t17.5 -85.5v-330h-280q-136 0 -200.5 41t-64.5 124t64.5 124
t200.5 41h140zM496 -225q-57 0 -88.5 27.5t-31.5 72.5t30 73.5t75 51.5h100q-53 -30 -87 -57.5t-34 -57.5q0 -23 15 -34t41 -11q13 0 25.5 3t22.5 7q11 4 22 10l20 -55q-14 -9 -31 -15q-14 -6 -34.5 -10.5t-44.5 -4.5z" />
    <glyph glyph-name="Cacute" unicode="&#x106;" horiz-adv-x="790" 
d="M470 55q68 0 130.5 23.5t119.5 76.5l50 -60q-57 -53 -138 -84t-172 -31q-94 0 -169.5 24t-129 71t-82.5 116t-29 159t28.5 159t81 116t126.5 71t164 24q91 0 172 -31t138 -84l-50 -60q-57 53 -119.5 76.5t-130.5 23.5q-54 0 -101 -17.5t-81 -53.5t-53.5 -91.5
t-19.5 -132.5t19.5 -132.5t55 -91.5t84 -53.5t106.5 -17.5zM585 910l-106 -150h-95l60 150h141z" />
    <glyph glyph-name="cacute" unicode="&#x107;" horiz-adv-x="615" 
d="M350 540q32 0 64 -5.5t61.5 -15t55 -23.5t44.5 -31l-40 -60q-41 31 -83.5 48t-91.5 17q-36 0 -66 -11.5t-52 -37t-34.5 -65.5t-12.5 -96t12.5 -96t35.5 -65.5t55.5 -37t71.5 -11.5q49 0 91.5 17t83.5 48l40 -60q-19 -17 -44.5 -31t-55 -23.5t-61.5 -15t-64 -5.5
q-71 0 -129.5 18.5t-99.5 54t-63.5 87.5t-22.5 120q0 67 22.5 119.5t62.5 88t96 54t124 18.5zM488 730l-106 -150h-95l60 150h141z" />
    <glyph glyph-name="Ccaron" unicode="&#x10c;" horiz-adv-x="790" 
d="M470 55q68 0 130.5 23.5t119.5 76.5l50 -60q-57 -53 -138 -84t-172 -31q-94 0 -169.5 24t-129 71t-82.5 116t-29 159t28.5 159t81 116t126.5 71t164 24q91 0 172 -31t138 -84l-50 -60q-57 53 -119.5 76.5t-130.5 23.5q-54 0 -101 -17.5t-81 -53.5t-53.5 -91.5
t-19.5 -132.5t19.5 -132.5t55 -91.5t84 -53.5t106.5 -17.5zM379 760l-125 160h105l75 -90l76 90h105l-126 -160h-110z" />
    <glyph glyph-name="ccaron" unicode="&#x10d;" horiz-adv-x="615" 
d="M350 540q32 0 64 -5.5t61.5 -15t55 -23.5t44.5 -31l-40 -60q-41 31 -83.5 48t-91.5 17q-36 0 -66 -11.5t-52 -37t-34.5 -65.5t-12.5 -96t12.5 -96t35.5 -65.5t55.5 -37t71.5 -11.5q49 0 91.5 17t83.5 48l40 -60q-19 -17 -44.5 -31t-55 -23.5t-61.5 -15t-64 -5.5
q-71 0 -129.5 18.5t-99.5 54t-63.5 87.5t-22.5 120q0 67 22.5 119.5t62.5 88t96 54t124 18.5zM272 580l-125 160h105l75 -90l76 90h105l-126 -160h-110z" />
    <glyph glyph-name="Dcaron" unicode="&#x10e;" horiz-adv-x="840" 
d="M400 700q90 0 163.5 -22.5t126 -66.5t81.5 -109.5t29 -151.5t-29 -151.5t-81.5 -109.5t-126 -66.5t-163.5 -22.5h-330v700h330zM215 625v-550h185q51 0 95.5 15.5t77.5 49t52.5 85.5t19.5 125t-19.5 125t-52.5 85.5t-77.5 49t-95.5 15.5h-185zM304 760l-125 160h105
l75 -90l76 90h105l-126 -160h-110z" />
    <glyph glyph-name="dcaron" unicode="&#x10f;" horiz-adv-x="825" 
d="M475 70v380h-125q-34 0 -62.5 -10.5t-49 -33.5t-32 -59t-11.5 -87t11.5 -87t32 -59t49 -33.5t62.5 -10.5h125zM350 0q-69 0 -125.5 18t-96.5 52t-61.5 82t-21.5 108t21.5 108t61.5 82t96.5 52t125.5 18h125v180h140v-700h-265zM840 615q0 -39 -12 -67.5t-31 -47
t-43.5 -27t-48.5 -8.5v35q26 0 48.5 17.5t26.5 47.5q-3 -2 -7 -3q-8 -2 -18 -2q-30 0 -50 22.5t-20 52.5t20.5 52.5t54.5 22.5q38 0 59 -28.5t21 -66.5z" />
    <glyph glyph-name="Dcroat" unicode="&#x110;" horiz-adv-x="870" 
d="M430 700q90 0 163.5 -22.5t126 -66.5t81.5 -109.5t29 -151.5t-29 -151.5t-81.5 -109.5t-126 -66.5t-163.5 -22.5h-330v310h-80v90h80v300h330zM410 310h-165v-235h185q51 0 95.5 15.5t77.5 49t52.5 85.5t19.5 125t-19.5 125t-52.5 85.5t-77.5 49t-95.5 15.5h-185v-225
h165v-90z" />
    <glyph glyph-name="dcroat" unicode="&#x111;" horiz-adv-x="685" 
d="M475 620v80h140v-80h90v-70h-90v-550h-265q-73 0 -130 17.5t-96 49t-59 74.5t-20 94t20 94t59 74.5t96 49t130 17.5h125v80h-130v70h130zM475 70v330h-125q-34 0 -62.5 -10.5t-49 -31t-32 -51.5t-11.5 -72t11.5 -72t32 -51.5t49 -31t62.5 -10.5h125z" />
    <glyph glyph-name="Emacron" unicode="&#x112;" horiz-adv-x="710" 
d="M215 625v-230h365v-75h-365v-245h465v-75h-610v700h610v-75h-465zM556 780h-320v80h320v-80z" />
    <glyph glyph-name="emacron" unicode="&#x113;" horiz-adv-x="670" 
d="M370 50q49 0 91.5 17t83.5 48l40 -60q-19 -17 -44.5 -31t-55 -23.5t-61.5 -15t-64 -5.5q-71 0 -129.5 18.5t-99.5 54t-63.5 87.5t-22.5 120q0 67 21.5 119.5t60 88t91.5 54t117 18.5q60 0 113 -18t92 -52.5t62 -83.5t23 -111v-70h-427q12 -83 57.5 -119t114.5 -36z
M335 475q-29 0 -54 -11t-43.5 -35t-30 -62t-12.5 -92h280q0 52 -12 90t-31.5 62.5t-45 36t-51.5 11.5zM495 600h-320v80h320v-80z" />
    <glyph glyph-name="Edotaccent" unicode="&#x116;" horiz-adv-x="710" 
d="M215 625v-230h365v-75h-365v-245h465v-75h-610v700h610v-75h-465zM470 835q0 -30 -20.5 -52.5t-54.5 -22.5t-54.5 22.5t-20.5 52.5t20.5 52.5t54.5 22.5q33 0 54 -22.5t21 -52.5z" />
    <glyph glyph-name="edotaccent" unicode="&#x117;" horiz-adv-x="670" 
d="M370 50q49 0 91.5 17t83.5 48l40 -60q-19 -17 -44.5 -31t-55 -23.5t-61.5 -15t-64 -5.5q-71 0 -129.5 18.5t-99.5 54t-63.5 87.5t-22.5 120q0 67 21.5 119.5t60 88t91.5 54t117 18.5q60 0 113 -18t92 -52.5t62 -83.5t23 -111v-70h-427q12 -83 57.5 -119t114.5 -36z
M335 475q-29 0 -54 -11t-43.5 -35t-30 -62t-12.5 -92h280q0 52 -12 90t-31.5 62.5t-45 36t-51.5 11.5zM410 655q0 -30 -20.5 -52.5t-54.5 -22.5t-54.5 22.5t-20.5 52.5t20.5 52.5t54.5 22.5q33 0 54 -22.5t21 -52.5z" />
    <glyph glyph-name="Eogonek" unicode="&#x118;" horiz-adv-x="710" 
d="M215 625v-230h365v-75h-365v-245h465v-75h-610v700h610v-75h-465zM390 -225q-57 0 -88.5 27.5t-31.5 72.5t30 73.5t75 51.5h100q-53 -30 -87 -57.5t-34 -57.5q0 -23 15 -34t41 -11q13 0 25.5 3t22.5 7q11 4 22 10l20 -55q-14 -9 -31 -15q-14 -6 -34.5 -10.5t-44.5 -4.5z
" />
    <glyph glyph-name="eogonek" unicode="&#x119;" horiz-adv-x="670" 
d="M370 50q49 0 91.5 17t83.5 48l40 -60q-19 -17 -44.5 -31t-55 -23.5t-61.5 -15t-64 -5.5q-71 0 -129.5 18.5t-99.5 54t-63.5 87.5t-22.5 120q0 67 21.5 119.5t60 88t91.5 54t117 18.5q60 0 113 -18t92 -52.5t62 -83.5t23 -111v-70h-427q12 -83 57.5 -119t114.5 -36z
M335 475q-29 0 -54 -11t-43.5 -35t-30 -62t-12.5 -92h280q0 52 -12 90t-31.5 62.5t-45 36t-51.5 11.5zM345 -225q-57 0 -88.5 27.5t-31.5 72.5t30 73.5t75 51.5h100q-53 -30 -87 -57.5t-34 -57.5q0 -23 15 -34t41 -11q13 0 25.5 3t22.5 7q11 4 22 10l20 -55q-14 -9 -31 -15
q-14 -6 -34.5 -10.5t-44.5 -4.5z" />
    <glyph glyph-name="Ecaron" unicode="&#x11a;" horiz-adv-x="710" 
d="M215 625v-230h365v-75h-365v-245h465v-75h-610v700h610v-75h-465zM299 760l-125 160h105l75 -90l76 90h105l-126 -160h-110z" />
    <glyph glyph-name="ecaron" unicode="&#x11b;" horiz-adv-x="670" 
d="M370 50q49 0 91.5 17t83.5 48l40 -60q-19 -17 -44.5 -31t-55 -23.5t-61.5 -15t-64 -5.5q-71 0 -129.5 18.5t-99.5 54t-63.5 87.5t-22.5 120q0 67 21.5 119.5t60 88t91.5 54t117 18.5q60 0 113 -18t92 -52.5t62 -83.5t23 -111v-70h-427q12 -83 57.5 -119t114.5 -36z
M335 475q-29 0 -54 -11t-43.5 -35t-30 -62t-12.5 -92h280q0 52 -12 90t-31.5 62.5t-45 36t-51.5 11.5zM279 580l-125 160h105l75 -90l76 90h105l-126 -160h-110z" />
    <glyph glyph-name="Gbreve" unicode="&#x11e;" horiz-adv-x="820" 
d="M430 720q91 0 172 -31t138 -84l-50 -60q-57 53 -119.5 76.5t-130.5 23.5q-51 0 -94 -17.5t-74.5 -53.5t-49 -91.5t-17.5 -132.5q0 -79 18 -135.5t50 -93t77.5 -54t99.5 -17.5q45 0 77.5 8t54.5 19q26 12 43 28v190h-130v65h275v-275q-37 -30 -86 -53q-42 -20 -103.5 -36
t-140.5 -16q-90 0 -162 24t-123 71t-78 116t-27 159t27 159t76.5 116t120 71t156.5 24zM410 770q-105 0 -150 45t-45 120h115q0 -45 23 -65t57 -20t57 20t23 65h115q0 -75 -45 -120t-150 -45z" />
    <glyph glyph-name="gbreve" unicode="&#x11f;" horiz-adv-x="685" 
d="M360 580q-94 0 -142 43.5t-48 111.5h115q0 -38 22.5 -61.5t52.5 -23.5t52.5 23.5t22.5 61.5h115q0 -68 -48 -111.5t-142 -43.5zM350 450q-72 0 -113.5 -44.5t-41.5 -135.5t41.5 -135.5t113.5 -44.5h125v360h-125zM615 10q0 -47 -18 -85.5t-53.5 -66.5t-89 -43t-124.5 -15
q-24 0 -51.5 3.5t-55.5 11t-54.5 19t-48.5 26.5l35 60q34 -23 77 -36.5t88 -13.5q75 0 115 34t40 106v10h-125q-69 0 -125.5 18t-96.5 51t-61.5 79t-21.5 102t21.5 102t61.5 79t96.5 51t125.5 18h265v-510z" />
    <glyph glyph-name="Gcommaaccent" unicode="&#x122;" horiz-adv-x="820" 
d="M430 720q91 0 172 -31t138 -84l-50 -60q-57 53 -119.5 76.5t-130.5 23.5q-51 0 -94 -17.5t-74.5 -53.5t-49 -91.5t-17.5 -132.5q0 -79 18 -135.5t50 -93t77.5 -54t99.5 -17.5q45 0 77.5 8t54.5 19q26 12 43 28v190h-130v65h275v-275q-37 -30 -86 -53q-42 -20 -103.5 -36
t-140.5 -16q-90 0 -162 24t-123 71t-78 116t-27 159t27 159t76.5 116t120 71t156.5 24zM507 -145q0 -39 -12 -67.5t-31 -47t-43.5 -27t-48.5 -8.5v35q26 0 48.5 17.5t26.5 47.5q-3 -2 -7 -3q-8 -2 -18 -2q-30 0 -50 22.5t-20 52.5t20.5 52.5t54.5 22.5q38 0 59 -28.5
t21 -66.5z" />
    <glyph glyph-name="gcommaaccent" unicode="&#x123;" horiz-adv-x="685" 
d="M350 450q-72 0 -113.5 -44.5t-41.5 -135.5t41.5 -135.5t113.5 -44.5h125v360h-125zM615 10q0 -47 -18 -85.5t-53.5 -66.5t-89 -43t-124.5 -15q-24 0 -51.5 3.5t-55.5 11t-54.5 19t-48.5 26.5l35 60q34 -23 77 -36.5t88 -13.5q75 0 115 34t40 106v10h-125q-69 0 -125.5 18
t-96.5 51t-61.5 79t-21.5 102t21.5 102t61.5 79t96.5 51t125.5 18h265v-510zM285 660q0 39 12 67.5t31 47t43.5 27t48.5 8.5v-35q-26 0 -48.5 -17.5t-26.5 -47.5q3 1 7 2q3 1 7.5 2t10.5 1q30 0 50 -22.5t20 -52.5t-20.5 -52.5t-54.5 -22.5q-38 0 -59 28.5t-21 66.5z" />
    <glyph glyph-name="Imacron" unicode="&#x12a;" horiz-adv-x="285" 
d="M215 0h-145v700h145v-700zM304 780h-320v80h320v-80z" />
    <glyph glyph-name="imacron" unicode="&#x12b;" horiz-adv-x="280" 
d="M210 0h-140v510h140v-510zM301 600h-320v80h320v-80z" />
    <glyph glyph-name="Iogonek" unicode="&#x12e;" horiz-adv-x="285" 
d="M215 0h-145v700h145v-700zM131 -225q-57 0 -88.5 27.5t-31.5 72.5t30 73.5t75 51.5h100q-53 -30 -87 -57.5t-34 -57.5q0 -23 15 -34t41 -11q13 0 25.5 3t22.5 7q11 4 22 10l20 -55q-14 -9 -31 -15q-14 -6 -34.5 -10.5t-44.5 -4.5z" />
    <glyph glyph-name="iogonek" unicode="&#x12f;" horiz-adv-x="280" 
d="M211 0h-140v510h140v-510zM216 645q0 -30 -20.5 -52.5t-54.5 -22.5t-54.5 22.5t-20.5 52.5t20.5 52.5t54.5 22.5q33 0 54 -22.5t21 -52.5zM126 -225q-57 0 -88.5 27.5t-31.5 72.5t30 73.5t75 51.5h100q-53 -30 -87 -57.5t-34 -57.5q0 -23 15 -34t41 -11q13 0 25.5 3
t22.5 7q11 4 22 10l20 -55q-14 -9 -31 -15q-14 -6 -34.5 -10.5t-44.5 -4.5z" />
    <glyph glyph-name="Idotaccent" unicode="&#x130;" horiz-adv-x="285" 
d="M218 825q0 -30 -20.5 -52.5t-54.5 -22.5t-54.5 22.5t-20.5 52.5t20.5 52.5t54.5 22.5q33 0 54 -22.5t21 -52.5zM215 0h-145v700h145v-700z" />
    <glyph glyph-name="dotlessi" unicode="&#x131;" horiz-adv-x="280" 
d="M210 0h-140v510h140v-510z" />
    <glyph glyph-name="ij" unicode="&#x133;" horiz-adv-x="570" 
d="M495 0q0 -43 -14 -79.5t-40.5 -63.5t-65.5 -42t-90 -15q-26 0 -55.5 5t-59.5 20l20 65q15 -8 35.5 -14t39.5 -6t35.5 7t28.5 22.5t19 40t7 60.5v440h-140v-440h-140v510h420v-510zM500 645q0 -30 -20.5 -52.5t-54.5 -22.5t-54.5 22.5t-20.5 52.5t20.5 52.5t54.5 22.5
q33 0 54 -22.5t21 -52.5zM220 645q0 -30 -20.5 -52.5t-54.5 -22.5t-54.5 22.5t-20.5 52.5t20.5 52.5t54.5 22.5q33 0 54 -22.5t21 -52.5z" />
    <glyph glyph-name="Kcommaaccent" unicode="&#x136;" horiz-adv-x="795" 
d="M520 355l265 -355h-165l-230 310h-175v-310h-145v700h145v-315h165l230 315h160zM475 -115q0 -39 -12 -67.5t-31 -47t-43.5 -27t-48.5 -8.5v35q26 0 48.5 17.5t26.5 47.5q-3 -2 -7 -3q-8 -2 -18 -2q-30 0 -50 22.5t-20 52.5t20.5 52.5t54.5 22.5q38 0 59 -28.5t21 -66.5z
" />
    <glyph glyph-name="kcommaaccent" unicode="&#x137;" horiz-adv-x="640" 
d="M315 230h-105v-230h-140v700h140v-400h105l155 220h150l-175 -250l185 -270h-160zM407 -115q0 -39 -12 -67.5t-31 -47t-43.5 -27t-48.5 -8.5v35q26 0 48.5 17.5t26.5 47.5q-3 -2 -7 -3q-8 -2 -18 -2q-30 0 -50 22.5t-20 52.5t20.5 52.5t54.5 22.5q38 0 59 -28.5t21 -66.5
z" />
    <glyph glyph-name="Lacute" unicode="&#x139;" horiz-adv-x="665" 
d="M645 75v-75h-575v700h145v-625h430zM293 910l-106 -150h-95l60 150h141z" />
    <glyph glyph-name="lacute" unicode="&#x13a;" horiz-adv-x="281" 
d="M210 0h-140v700h140v-700zM291 920l-106 -150h-95l60 150h141z" />
    <glyph glyph-name="Lcommaaccent" unicode="&#x13b;" horiz-adv-x="665" 
d="M645 75v-75h-575v700h145v-625h430zM450 -145q0 -39 -12 -67.5t-31 -47t-43.5 -27t-48.5 -8.5v35q26 0 48.5 17.5t26.5 47.5q-3 -2 -7 -3q-8 -2 -18 -2q-30 0 -50 22.5t-20 52.5t20.5 52.5t54.5 22.5q38 0 59 -28.5t21 -66.5z" />
    <glyph glyph-name="lcommaaccent" unicode="&#x13c;" horiz-adv-x="280" 
d="M210 0h-140v700h140v-700zM217 -145q0 -39 -12 -67.5t-31 -47t-43.5 -27t-48.5 -8.5v35q26 0 48.5 17.5t26.5 47.5q-3 -2 -7 -3q-8 -2 -18 -2q-30 0 -50 22.5t-20 52.5t20.5 52.5t54.5 22.5q38 0 59 -28.5t21 -66.5z" />
    <glyph glyph-name="Lcaron" unicode="&#x13d;" horiz-adv-x="665" 
d="M645 75v-75h-575v700h145v-625h430zM440 615q0 -39 -12 -67.5t-31 -47t-43.5 -27t-48.5 -8.5v35q26 0 48.5 17.5t26.5 47.5q-3 -2 -7 -3q-8 -2 -18 -2q-30 0 -50 22.5t-20 52.5t20.5 52.5t54.5 22.5q38 0 59 -28.5t21 -66.5z" />
    <glyph glyph-name="lcaron" unicode="&#x13e;" horiz-adv-x="420" 
d="M210 0h-140v700h140v-700zM435 615q0 -39 -12 -67.5t-31 -47t-43.5 -27t-48.5 -8.5v35q26 0 48.5 17.5t26.5 47.5q-3 -2 -7 -3q-8 -2 -18 -2q-30 0 -50 22.5t-20 52.5t20.5 52.5t54.5 22.5q38 0 59 -28.5t21 -66.5z" />
    <glyph glyph-name="ldot" unicode="&#x140;" horiz-adv-x="470" 
d="M210 0h-140v700h140v-700zM430 350q0 -30 -20.5 -52.5t-54.5 -22.5t-54.5 22.5t-20.5 52.5t20.5 52.5t54.5 22.5q33 0 54 -22.5t21 -52.5z" />
    <glyph glyph-name="Lslash" unicode="&#x141;" horiz-adv-x="700" 
d="M105 392v308h145v-254l115 44v-100l-115 -44v-271h430v-75h-575v292l-85 -32v100z" />
    <glyph glyph-name="lslash" unicode="&#x142;" horiz-adv-x="385" 
d="M255 448l110 42v-100l-110 -42v-348h-140v296l-95 -36v100l95 36v304h140v-252z" />
    <glyph glyph-name="Nacute" unicode="&#x143;" horiz-adv-x="860" 
d="M790 700v-700h-190l-375 570h-10v-570h-145v700h190l375 -570h10v570h145zM580 900l-106 -150h-95l60 150h141z" />
    <glyph glyph-name="nacute" unicode="&#x144;" horiz-adv-x="685" 
d="M620 0h-140v315q0 72 -36 103.5t-104 31.5h-130v-450h-140v520h270q143 0 211.5 -51.5t68.5 -153.5v-315zM443 730l-106 -150h-95l60 150h141z" />
    <glyph glyph-name="Ncommaaccent" unicode="&#x145;" horiz-adv-x="860" 
d="M790 700v-700h-190l-375 570h-10v-570h-145v700h190l375 -570h10v570h145zM497 -125q0 -39 -12 -67.5t-31 -47t-43.5 -27t-48.5 -8.5v35q26 0 48.5 17.5t26.5 47.5q-3 -2 -7 -3q-8 -2 -18 -2q-30 0 -50 22.5t-20 52.5t20.5 52.5t54.5 22.5q38 0 59 -28.5t21 -66.5z" />
    <glyph glyph-name="ncommaaccent" unicode="&#x146;" horiz-adv-x="685" 
d="M620 0h-140v315q0 72 -36 103.5t-104 31.5h-130v-450h-140v520h270q143 0 211.5 -51.5t68.5 -153.5v-315zM430 -115q0 -39 -12 -67.5t-31 -47t-43.5 -27t-48.5 -8.5v35q26 0 48.5 17.5t26.5 47.5q-3 -2 -7 -3q-8 -2 -18 -2q-30 0 -50 22.5t-20 52.5t20.5 52.5t54.5 22.5
q38 0 59 -28.5t21 -66.5z" />
    <glyph glyph-name="Ncaron" unicode="&#x147;" horiz-adv-x="860" 
d="M790 700v-700h-190l-375 570h-10v-570h-145v700h190l375 -570h10v570h145zM384 750l-125 160h105l75 -90l76 90h105l-126 -160h-110z" />
    <glyph glyph-name="ncaron" unicode="&#x148;" horiz-adv-x="685" 
d="M620 0h-140v315q0 72 -36 103.5t-104 31.5h-130v-450h-140v520h270q143 0 211.5 -51.5t68.5 -153.5v-315zM287 580l-125 160h105l75 -90l76 90h105l-126 -160h-110z" />
    <glyph glyph-name="Omacron" unicode="&#x14c;" horiz-adv-x="900" 
d="M450 650q-51 0 -95.5 -18t-77.5 -55t-52.5 -93.5t-19.5 -133.5t19.5 -133.5t52.5 -93.5t77.5 -55t95.5 -18t95.5 18t77.5 55t52.5 93.5t19.5 133.5t-19.5 133.5t-52.5 93.5t-77.5 55t-95.5 18zM450 720q90 0 163.5 -24t126 -71t81.5 -116t29 -159t-29 -159t-81.5 -116
t-126 -71t-163.5 -24t-164 24t-126.5 71t-81 116t-28.5 159t28.5 159t81 116t126.5 71t164 24zM610 780h-320v80h320v-80z" />
    <glyph glyph-name="omacron" unicode="&#x14d;" horiz-adv-x="700" 
d="M350 45q32 0 60 12t49 37.5t33.5 66.5t12.5 99t-12.5 99t-33.5 66.5t-49 37.5t-60 12t-60 -12t-49 -37.5t-33.5 -66.5t-12.5 -99t12.5 -99t33.5 -66.5t49 -37.5t60 -12zM350 540q67 0 123.5 -18.5t96.5 -54t62.5 -88t22.5 -119.5q0 -68 -22.5 -120t-62.5 -87.5t-96.5 -54
t-123.5 -18.5q-68 0 -124 18.5t-96 54t-62.5 87.5t-22.5 120q0 67 22.5 119.5t62.5 88t96 54t124 18.5zM510 600h-320v80h320v-80z" />
    <glyph glyph-name="Ohungarumlaut" unicode="&#x150;" horiz-adv-x="900" 
d="M450 650q-51 0 -95.5 -18t-77.5 -55t-52.5 -93.5t-19.5 -133.5t19.5 -133.5t52.5 -93.5t77.5 -55t95.5 -18t95.5 18t77.5 55t52.5 93.5t19.5 133.5t-19.5 133.5t-52.5 93.5t-77.5 55t-95.5 18zM450 720q90 0 163.5 -24t126 -71t81.5 -116t29 -159t-29 -159t-81.5 -116
t-126 -71t-163.5 -24t-164 24t-126.5 71t-81 116t-28.5 159t28.5 159t81 116t126.5 71t164 24zM495 910l-106 -150h-85l70 150h121zM675 910l-106 -150h-85l70 150h121z" />
    <glyph glyph-name="ohungarumlaut" unicode="&#x151;" horiz-adv-x="700" 
d="M350 45q32 0 60 12t49 37.5t33.5 66.5t12.5 99t-12.5 99t-33.5 66.5t-49 37.5t-60 12t-60 -12t-49 -37.5t-33.5 -66.5t-12.5 -99t12.5 -99t33.5 -66.5t49 -37.5t60 -12zM350 540q67 0 123.5 -18.5t96.5 -54t62.5 -88t22.5 -119.5q0 -68 -22.5 -120t-62.5 -87.5t-96.5 -54
t-123.5 -18.5q-68 0 -124 18.5t-96 54t-62.5 87.5t-22.5 120q0 67 22.5 119.5t62.5 88t96 54t124 18.5zM395 730l-106 -150h-85l70 150h121zM575 730l-106 -150h-85l70 150h121z" />
    <glyph glyph-name="OE" unicode="&#x152;" horiz-adv-x="1215" 
d="M1185 700v-75h-445v-230h345v-75h-345v-245h445v-75h-745q-90 0 -164 22.5t-126.5 66.5t-81 109.5t-28.5 151.5t28.5 151.5t81 109.5t126.5 66.5t164 22.5h745zM440 625q-51 0 -95.5 -15.5t-77.5 -49t-52.5 -85.5t-19.5 -125t19.5 -125t52.5 -85.5t77.5 -49t95.5 -15.5
h155v550h-155z" />
    <glyph glyph-name="oe" unicode="&#x153;" horiz-adv-x="1130" 
d="M830 50q49 0 91.5 17t83.5 48l40 -60q-19 -17 -44.5 -31t-55 -23.5t-61.5 -15t-64 -5.5q-83 0 -142.5 25t-97.5 70q-38 -45 -95 -70t-135 -25q-68 0 -124 18.5t-96 54t-62.5 87.5t-22.5 120q0 67 22.5 119.5t62.5 88t96 54t124 18.5q75 0 133.5 -25t96.5 -70
q34 45 88.5 70t126.5 25q60 0 113 -18t92 -52.5t62 -83.5t23 -111v-70h-427q12 -83 57.5 -119t114.5 -36zM350 45q32 0 60 12t49 37.5t33.5 66.5t12.5 99t-12.5 99t-33.5 66.5t-49 37.5t-60 12t-60 -12t-49 -37.5t-33.5 -66.5t-12.5 -99t12.5 -99t33.5 -66.5t49 -37.5
t60 -12zM795 475q-29 0 -54 -11t-43.5 -35t-30 -62t-12.5 -92h280q0 52 -12 90t-31.5 62.5t-45 36t-51.5 11.5z" />
    <glyph glyph-name="Racute" unicode="&#x154;" horiz-adv-x="800" 
d="M430 700q75 0 134.5 -16.5t100.5 -48t63 -77t22 -103.5q0 -80 -40 -135t-115 -84l165 -236h-165l-147 210h-18h-215v-210h-145v700h360zM215 625v-340h215q79 0 122 41.5t43 128.5t-43 128.5t-122 41.5h-215zM510 910l-106 -150h-95l60 150h141z" />
    <glyph glyph-name="racute" unicode="&#x155;" horiz-adv-x="475" 
d="M465 450h-120q-68 0 -104 -36.5t-36 -108.5v-305h-140v305q0 102 64.5 158.5t185.5 56.5h150v-70zM393 730l-106 -150h-95l60 150h141z" />
    <glyph glyph-name="Rcommaaccent" unicode="&#x156;" horiz-adv-x="800" 
d="M430 700q75 0 134.5 -16.5t100.5 -48t63 -77t22 -103.5q0 -80 -40 -135t-115 -84l165 -236h-165l-147 210h-18h-215v-210h-145v700h360zM215 625v-340h215q79 0 122 41.5t43 128.5t-43 128.5t-122 41.5h-215zM477 -115q0 -39 -12 -67.5t-31 -47t-43.5 -27t-48.5 -8.5v35
q26 0 48.5 17.5t26.5 47.5q-3 -2 -7 -3q-8 -2 -18 -2q-30 0 -50 22.5t-20 52.5t20.5 52.5t54.5 22.5q38 0 59 -28.5t21 -66.5z" />
    <glyph glyph-name="rcommaaccent" unicode="&#x157;" horiz-adv-x="475" 
d="M465 450h-120q-68 0 -104 -36.5t-36 -108.5v-305h-140v305q0 102 64.5 158.5t185.5 56.5h150v-70zM215 -145q0 -39 -12 -67.5t-31 -47t-43.5 -27t-48.5 -8.5v35q26 0 48.5 17.5t26.5 47.5q-3 -2 -7 -3q-8 -2 -18 -2q-30 0 -50 22.5t-20 52.5t20.5 52.5t54.5 22.5
q38 0 59 -28.5t21 -66.5z" />
    <glyph glyph-name="Rcaron" unicode="&#x158;" horiz-adv-x="800" 
d="M430 700q75 0 134.5 -16.5t100.5 -48t63 -77t22 -103.5q0 -80 -40 -135t-115 -84l165 -236h-165l-147 210h-18h-215v-210h-145v700h360zM215 625v-340h215q79 0 122 41.5t43 128.5t-43 128.5t-122 41.5h-215zM324 760l-125 160h105l75 -90l76 90h105l-126 -160h-110z" />
    <glyph glyph-name="rcaron" unicode="&#x159;" horiz-adv-x="475" 
d="M465 450h-120q-68 0 -104 -36.5t-36 -108.5v-305h-140v305q0 102 64.5 158.5t185.5 56.5h150v-70zM207 580l-125 160h105l75 -90l76 90h105l-126 -160h-110z" />
    <glyph glyph-name="Sacute" unicode="&#x15a;" horiz-adv-x="750" 
d="M720 185q0 -43 -18 -80.5t-58.5 -65t-105 -43.5t-158.5 -16q-53 0 -103.5 8t-96 23t-84 36.5t-66.5 47.5l50 60q57 -49 133 -74.5t167 -25.5q101 0 143 28t42 77q0 38 -33 64t-112 51l-190 60q-94 30 -142 76.5t-48 118.5q0 37 17.5 71.5t54.5 61t94.5 42t138.5 15.5
q49 0 97.5 -8t93 -23t83 -36.5t66.5 -47.5l-50 -60q-57 49 -128 74.5t-162 25.5q-75 0 -112.5 -26t-37.5 -64q0 -21 7 -36.5t23.5 -29t43.5 -25t67 -24.5l189 -60q91 -29 143 -76t52 -119zM495 920l-106 -150h-95l60 150h141z" />
    <glyph glyph-name="sacute" unicode="&#x15b;" horiz-adv-x="615" 
d="M190 410q0 -23 20.5 -42t69.5 -33l155 -45q72 -21 111 -57t39 -93q0 -36 -15 -65.5t-49 -50.5t-88 -32.5t-133 -11.5q-41 0 -80.5 6t-75 16.5t-64.5 24t-50 28.5l40 60q42 -26 98.5 -45.5t131.5 -19.5t105 20t30 50q0 23 -21 41.5t-74 33.5l-155 45q-64 19 -104.5 54.5
t-40.5 95.5q0 32 14.5 59.5t45.5 47.5t79 31.5t116 11.5q83 0 150.5 -22.5t109.5 -52.5l-40 -60q-41 26 -93 45.5t-127 19.5q-53 0 -79 -17t-26 -43zM438 730l-106 -150h-95l60 150h141z" />
    <glyph glyph-name="Scedilla" unicode="&#x15e;" horiz-adv-x="750" 
d="M720 185q0 -43 -18 -80.5t-58.5 -65t-105 -43.5t-158.5 -16q-53 0 -103.5 8t-96 23t-84 36.5t-66.5 47.5l50 60q57 -49 133 -74.5t167 -25.5q101 0 143 28t42 77q0 38 -33 64t-112 51l-190 60q-94 30 -142 76.5t-48 118.5q0 37 17.5 71.5t54.5 61t94.5 42t138.5 15.5
q49 0 97.5 -8t93 -23t83 -36.5t66.5 -47.5l-50 -60q-57 49 -128 74.5t-162 25.5q-75 0 -112.5 -26t-37.5 -64q0 -21 7 -36.5t23.5 -29t43.5 -25t67 -24.5l189 -60q91 -29 143 -76t52 -119zM392 -240q-25 0 -45 4.5t-35 10.5q-18 6 -31 15l20 50q11 -6 22 -10q10 -4 22.5 -7
t26.5 -3q34 0 47 10t13 25t-13 25t-47 10h-45v110h80v-50q49 -4 77 -27t28 -68t-31.5 -70t-88.5 -25z" />
    <glyph glyph-name="scedilla" unicode="&#x15f;" horiz-adv-x="615" 
d="M190 410q0 -23 20.5 -42t69.5 -33l155 -45q72 -21 111 -57t39 -93q0 -36 -15 -65.5t-49 -50.5t-88 -32.5t-133 -11.5q-41 0 -80.5 6t-75 16.5t-64.5 24t-50 28.5l40 60q42 -26 98.5 -45.5t131.5 -19.5t105 20t30 50q0 23 -21 41.5t-74 33.5l-155 45q-64 19 -104.5 54.5
t-40.5 95.5q0 32 14.5 59.5t45.5 47.5t79 31.5t116 11.5q83 0 150.5 -22.5t109.5 -52.5l-40 -60q-41 26 -93 45.5t-127 19.5q-53 0 -79 -17t-26 -43zM335 -240q-25 0 -45 4.5t-35 10.5q-18 6 -31 15l20 50q11 -6 22 -10q10 -4 22.5 -7t26.5 -3q34 0 47 10t13 25t-13 25
t-47 10h-45v110h80v-50q49 -4 77 -27t28 -68t-31.5 -70t-88.5 -25z" />
    <glyph glyph-name="Scaron" unicode="&#x160;" horiz-adv-x="750" 
d="M720 185q0 -43 -18 -80.5t-58.5 -65t-105 -43.5t-158.5 -16q-53 0 -103.5 8t-96 23t-84 36.5t-66.5 47.5l50 60q57 -49 133 -74.5t167 -25.5q101 0 143 28t42 77q0 38 -33 64t-112 51l-190 60q-94 30 -142 76.5t-48 118.5q0 37 17.5 71.5t54.5 61t94.5 42t138.5 15.5
q49 0 97.5 -8t93 -23t83 -36.5t66.5 -47.5l-50 -60q-57 49 -128 74.5t-162 25.5q-75 0 -112.5 -26t-37.5 -64q0 -21 7 -36.5t23.5 -29t43.5 -25t67 -24.5l189 -60q91 -29 143 -76t52 -119zM319 760l-125 160h105l75 -90l76 90h105l-126 -160h-110z" />
    <glyph glyph-name="scaron" unicode="&#x161;" horiz-adv-x="615" 
d="M190 410q0 -23 20.5 -42t69.5 -33l155 -45q72 -21 111 -57t39 -93q0 -36 -15 -65.5t-49 -50.5t-88 -32.5t-133 -11.5q-41 0 -80.5 6t-75 16.5t-64.5 24t-50 28.5l40 60q42 -26 98.5 -45.5t131.5 -19.5t105 20t30 50q0 23 -21 41.5t-74 33.5l-155 45q-64 19 -104.5 54.5
t-40.5 95.5q0 32 14.5 59.5t45.5 47.5t79 31.5t116 11.5q83 0 150.5 -22.5t109.5 -52.5l-40 -60q-41 26 -93 45.5t-127 19.5q-53 0 -79 -17t-26 -43zM242 580l-125 160h105l75 -90l76 90h105l-126 -160h-110z" />
    <glyph glyph-name="Tcommaaccent" unicode="&#x162;" horiz-adv-x="705" 
d="M695 625h-270v-625h-145v625h-270v75h685v-75zM430 -145q0 -39 -12 -67.5t-31 -47t-43.5 -27t-48.5 -8.5v35q26 0 48.5 17.5t26.5 47.5q-3 -2 -7 -3q-8 -2 -18 -2q-30 0 -50 22.5t-20 52.5t20.5 52.5t54.5 22.5q38 0 59 -28.5t21 -66.5z" />
    <glyph glyph-name="tcommaaccent" unicode="&#x163;" horiz-adv-x="505" 
d="M115 450h-95v70h95v160h140v-160h155v-70h-155v-260q0 -38 8.5 -64.5t23 -43t33.5 -24.5t40 -8q30 0 58 9.5t47 20.5l30 -65q-30 -15 -68.5 -25t-76.5 -10q-113 0 -174 56t-61 154v260zM392 -145q0 -39 -12 -67.5t-31 -47t-43.5 -27t-48.5 -8.5v35q26 0 48.5 17.5
t26.5 47.5q-3 -2 -7 -3q-8 -2 -18 -2q-30 0 -50 22.5t-20 52.5t20.5 52.5t54.5 22.5q38 0 59 -28.5t21 -66.5z" />
    <glyph glyph-name="Tcaron" unicode="&#x164;" horiz-adv-x="705" 
d="M695 625h-270v-625h-145v625h-270v75h685v-75zM297 760l-125 160h105l75 -90l76 90h105l-126 -160h-110z" />
    <glyph glyph-name="tcaron" unicode="&#x165;" horiz-adv-x="570" 
d="M115 450h-95v70h95v160h140v-160h155v-70h-155v-260q0 -38 8.5 -64.5t23 -43t33.5 -24.5t40 -8q30 0 58 9.5t47 20.5l30 -65q-30 -15 -68.5 -25t-76.5 -10q-113 0 -174 56t-61 154v260zM585 596q0 -39 -12 -67.5t-31 -47t-43.5 -27t-48.5 -8.5v35q26 0 48.5 17.5
t26.5 47.5q-3 -2 -7 -3q-8 -2 -18 -2q-30 0 -50 22.5t-20 52.5t20.5 52.5t54.5 22.5q38 0 59 -28.5t21 -66.5z" />
    <glyph glyph-name="Umacron" unicode="&#x16a;" horiz-adv-x="860" 
d="M430 50q49 0 88.5 13.5t67.5 42t43.5 73t15.5 106.5v415h145v-415q0 -154 -94 -229.5t-266 -75.5q-173 0 -266.5 75.5t-93.5 229.5v415h145v-415q0 -62 15.5 -106.5t43.5 -73t67.5 -42t88.5 -13.5zM590 760h-320v80h320v-80z" />
    <glyph glyph-name="umacron" unicode="&#x16b;" 
d="M70 520h140v-315q0 -72 36 -103.5t104 -31.5h130v450h140v-520h-270q-143 0 -211.5 51.5t-68.5 153.5v315zM505 600h-320v80h320v-80z" />
    <glyph glyph-name="Uring" unicode="&#x16e;" horiz-adv-x="860" 
d="M430 50q49 0 88.5 13.5t67.5 42t43.5 73t15.5 106.5v415h145v-415q0 -154 -94 -229.5t-266 -75.5q-173 0 -266.5 75.5t-93.5 229.5v415h145v-415q0 -62 15.5 -106.5t43.5 -73t67.5 -42t88.5 -13.5zM550 830q0 -24 -9.5 -44.5t-26 -35t-38.5 -22.5t-46 -8t-46 8
t-38.5 22.5t-26 35t-9.5 44.5t9.5 44.5t26 35t38.5 22.5t46 8t46 -8t38.5 -22.5t26 -35t9.5 -44.5zM475 830q0 23 -13 36.5t-32 13.5t-32 -13.5t-13 -36.5t13 -36.5t32 -13.5t32 13.5t13 36.5z" />
    <glyph glyph-name="uring" unicode="&#x16f;" 
d="M70 520h140v-315q0 -72 36 -103.5t104 -31.5h130v450h140v-520h-270q-143 0 -211.5 51.5t-68.5 153.5v315zM465 671q0 -24 -9.5 -44.5t-26 -35t-38.5 -22.5t-46 -8t-46 8t-38.5 22.5t-26 35t-9.5 44.5t9.5 44.5t26 35t38.5 22.5t46 8t46 -8t38.5 -22.5t26 -35t9.5 -44.5z
M390 671q0 23 -13 36.5t-32 13.5t-32 -13.5t-13 -36.5t13 -36.5t32 -13.5t32 13.5t13 36.5z" />
    <glyph glyph-name="Uhungarumlaut" unicode="&#x170;" horiz-adv-x="860" 
d="M430 50q49 0 88.5 13.5t67.5 42t43.5 73t15.5 106.5v415h145v-415q0 -154 -94 -229.5t-266 -75.5q-173 0 -266.5 75.5t-93.5 229.5v415h145v-415q0 -62 15.5 -106.5t43.5 -73t67.5 -42t88.5 -13.5zM465 890l-106 -150h-85l70 150h121zM645 890l-106 -150h-85l70 150h121z
" />
    <glyph glyph-name="uhungarumlaut" unicode="&#x171;" 
d="M70 520h140v-315q0 -72 36 -103.5t104 -31.5h130v450h140v-520h-270q-143 0 -211.5 51.5t-68.5 153.5v315zM385 730l-106 -150h-85l70 150h121zM565 730l-106 -150h-85l70 150h121z" />
    <glyph glyph-name="Uogonek" unicode="&#x172;" horiz-adv-x="860" 
d="M430 50q49 0 88.5 13.5t67.5 42t43.5 73t15.5 106.5v415h145v-415q0 -154 -94 -229.5t-266 -75.5q-173 0 -266.5 75.5t-93.5 229.5v415h145v-415q0 -62 15.5 -106.5t43.5 -73t67.5 -42t88.5 -13.5zM450 -225q-57 0 -88.5 27.5t-31.5 72.5t30 73.5t75 51.5h100
q-53 -30 -87 -57.5t-34 -57.5q0 -23 15 -34t41 -11q13 0 25.5 3t22.5 7q11 4 22 10l20 -55q-14 -9 -31 -15q-14 -6 -34.5 -10.5t-44.5 -4.5z" />
    <glyph glyph-name="uogonek" unicode="&#x173;" 
d="M70 520h140v-315q0 -72 36 -103.5t104 -31.5h130v450h140v-520h-270q-143 0 -211.5 51.5t-68.5 153.5v315zM535 -225q-57 0 -88.5 27.5t-31.5 72.5t30 73.5t75 51.5h100q-53 -30 -87 -57.5t-34 -57.5q0 -23 15 -34t41 -11q13 0 25.5 3t22.5 7q11 4 22 10l20 -55
q-14 -9 -31 -15q-14 -6 -34.5 -10.5t-44.5 -4.5z" />
    <glyph glyph-name="Ydieresis" unicode="&#x178;" horiz-adv-x="795" 
d="M470 210v-210h-145v210l-325 490h160l235 -355h5l235 355h160zM357 815q0 -30 -20.5 -52.5t-54.5 -22.5t-54.5 22.5t-20.5 52.5t20.5 52.5t54.5 22.5q33 0 54 -22.5t21 -52.5zM587 815q0 -30 -20.5 -52.5t-54.5 -22.5t-54.5 22.5t-20.5 52.5t20.5 52.5t54.5 22.5
q33 0 54 -22.5t21 -52.5z" />
    <glyph glyph-name="Zacute" unicode="&#x179;" horiz-adv-x="720" 
d="M675 615l-465 -540h475v-75h-650v85l465 540h-455v75h630v-85zM500 910l-106 -150h-95l60 150h141z" />
    <glyph glyph-name="zacute" unicode="&#x17a;" horiz-adv-x="590" 
d="M555 70v-70h-520v80l345 370h-335v70h500v-80l-345 -370h355zM395 730l-106 -150h-95l60 150h141z" />
    <glyph glyph-name="Zdotaccent" unicode="&#x17b;" horiz-adv-x="720" 
d="M675 615l-465 -540h475v-75h-650v85l465 540h-455v75h630v-85zM435 835q0 -30 -20.5 -52.5t-54.5 -22.5t-54.5 22.5t-20.5 52.5t20.5 52.5t54.5 22.5q33 0 54 -22.5t21 -52.5z" />
    <glyph glyph-name="zdotaccent" unicode="&#x17c;" horiz-adv-x="590" 
d="M555 70v-70h-520v80l345 370h-335v70h500v-80l-345 -370h355zM370 655q0 -30 -20.5 -52.5t-54.5 -22.5t-54.5 22.5t-20.5 52.5t20.5 52.5t54.5 22.5q33 0 54 -22.5t21 -52.5z" />
    <glyph glyph-name="Zcaron" unicode="&#x17d;" horiz-adv-x="720" 
d="M675 615l-465 -540h475v-75h-650v85l465 540h-455v75h630v-85zM304 760l-125 160h105l75 -90l76 90h105l-126 -160h-110z" />
    <glyph glyph-name="zcaron" unicode="&#x17e;" horiz-adv-x="590" 
d="M555 70v-70h-520v80l345 370h-335v70h500v-80l-345 -370h355zM239 580l-125 160h105l75 -90l76 90h105l-126 -160h-110z" />
    <glyph glyph-name="Scommaaccent" unicode="&#x218;" horiz-adv-x="750" 
d="M720 185q0 -43 -18 -80.5t-58.5 -65t-105 -43.5t-158.5 -16q-53 0 -103.5 8t-96 23t-84 36.5t-66.5 47.5l50 60q57 -49 133 -74.5t167 -25.5q101 0 143 28t42 77q0 38 -33 64t-112 51l-190 60q-94 30 -142 76.5t-48 118.5q0 37 17.5 71.5t54.5 61t94.5 42t138.5 15.5
q49 0 97.5 -8t93 -23t83 -36.5t66.5 -47.5l-50 -60q-57 49 -128 74.5t-162 25.5q-75 0 -112.5 -26t-37.5 -64q0 -21 7 -36.5t23.5 -29t43.5 -25t67 -24.5l189 -60q91 -29 143 -76t52 -119zM465 -145q0 -39 -12 -67.5t-31 -47t-43.5 -27t-48.5 -8.5v35q26 0 48.5 17.5
t26.5 47.5q-3 -2 -7 -3q-8 -2 -18 -2q-30 0 -50 22.5t-20 52.5t20.5 52.5t54.5 22.5q38 0 59 -28.5t21 -66.5z" />
    <glyph glyph-name="scommaaccent" unicode="&#x219;" horiz-adv-x="615" 
d="M190 410q0 -23 20.5 -42t69.5 -33l155 -45q72 -21 111 -57t39 -93q0 -36 -15 -65.5t-49 -50.5t-88 -32.5t-133 -11.5q-41 0 -80.5 6t-75 16.5t-64.5 24t-50 28.5l40 60q42 -26 98.5 -45.5t131.5 -19.5t105 20t30 50q0 23 -21 41.5t-74 33.5l-155 45q-64 19 -104.5 54.5
t-40.5 95.5q0 32 14.5 59.5t45.5 47.5t79 31.5t116 11.5q83 0 150.5 -22.5t109.5 -52.5l-40 -60q-41 26 -93 45.5t-127 19.5q-53 0 -79 -17t-26 -43zM385 -145q0 -39 -12 -67.5t-31 -47t-43.5 -27t-48.5 -8.5v35q26 0 48.5 17.5t26.5 47.5q-3 -2 -7 -3q-8 -2 -18 -2
q-30 0 -50 22.5t-20 52.5t20.5 52.5t54.5 22.5q38 0 59 -28.5t21 -66.5z" />
    <glyph glyph-name="circumflex" unicode="&#x2c6;" horiz-adv-x="441" 
d="M275 740l126 -160h-105l-76 90l-75 -90h-105l125 160h110z" />
    <glyph glyph-name="caron" unicode="&#x2c7;" horiz-adv-x="441" 
d="M165 580l-125 160h105l75 -90l76 90h105l-126 -160h-110z" />
    <glyph glyph-name="breve" unicode="&#x2d8;" horiz-adv-x="470" 
d="M235 590q-105 0 -150 45t-45 120h115q0 -45 23 -65t57 -20t57 20t23 65h115q0 -75 -45 -120t-150 -45z" />
    <glyph glyph-name="dotaccent" unicode="&#x2d9;" horiz-adv-x="230" 
d="M190 655q0 -30 -20.5 -52.5t-54.5 -22.5t-54.5 22.5t-20.5 52.5t20.5 52.5t54.5 22.5q33 0 54 -22.5t21 -52.5z" />
    <glyph glyph-name="ring" unicode="&#x2da;" horiz-adv-x="320" 
d="M280 690q0 -24 -9.5 -44.5t-26 -35t-38.5 -22.5t-46 -8t-46 8t-38.5 22.5t-26 35t-9.5 44.5t9.5 44.5t26 35t38.5 22.5t46 8t46 -8t38.5 -22.5t26 -35t9.5 -44.5zM205 690q0 23 -13 36.5t-32 13.5t-32 -13.5t-13 -36.5t13 -36.5t32 -13.5t32 13.5t13 36.5z" />
    <glyph glyph-name="ogonek" unicode="&#x2db;" horiz-adv-x="290" 
d="M160 -225q-57 0 -88.5 27.5t-31.5 72.5t30 73.5t75 51.5h100q-53 -30 -87 -57.5t-34 -57.5q0 -23 15 -34t41 -11q13 0 25.5 3t22.5 7q11 4 22 10l20 -55q-14 -9 -31 -15q-14 -6 -34.5 -10.5t-44.5 -4.5z" />
    <glyph glyph-name="tilde" unicode="&#x2dc;" horiz-adv-x="410" 
d="M40 596q0 26 6.5 50.5t19 43t31.5 30t43 11.5q22 0 39 -9.5t30.5 -20.5t25.5 -20.5t25 -9.5q19 0 27.5 18t12.5 37l70 -10q0 -26 -6.5 -50.5t-19 -43.5t-31.5 -30t-43 -11q-23 0 -39.5 9.5t-30 20.5t-25.5 20.5t-25 9.5q-19 0 -27.5 -18t-12.5 -37z" />
    <glyph glyph-name="hungarumlaut" unicode="&#x2dd;" horiz-adv-x="431" 
d="M231 730l-106 -150h-85l70 150h121zM411 730l-106 -150h-85l70 150h121z" />
    <glyph glyph-name="afii10023" unicode="&#x401;" horiz-adv-x="710" 
d="M215 625v-230h365v-75h-365v-245h465v-75h-610v700h610v-75h-465zM335 845q0 -30 -20.5 -52.5t-54.5 -22.5t-54.5 22.5t-20.5 52.5t20.5 52.5t54.5 22.5q33 0 54 -22.5t21 -52.5zM565 845q0 -30 -20.5 -52.5t-54.5 -22.5t-54.5 22.5t-20.5 52.5t20.5 52.5t54.5 22.5
q33 0 54 -22.5t21 -52.5z" />
    <glyph glyph-name="afii10051" unicode="&#x402;" horiz-adv-x="875" 
d="M495 625h-190v-165h190q88 0 150.5 -14t102.5 -41t58.5 -67.5t18.5 -92.5v-75q0 -98 -48 -141.5t-142 -43.5q-28 0 -51 5q-12 2 -24 5v65h40q34 0 57 25t23 85v75q0 71 -42 105.5t-143 34.5h-190v-385h-145v625h-150v75h485v-75z" />
    <glyph glyph-name="afii10052" unicode="&#x403;" horiz-adv-x="660" 
d="M215 625v-625h-145v700h580v-75h-435zM501 910l-106 -150h-95l60 150h141z" />
    <glyph glyph-name="afii10053" unicode="&#x404;" horiz-adv-x="790" 
d="M470 55q68 0 130.5 23.5t119.5 76.5l50 -60q-57 -53 -138 -84t-172 -31q-94 0 -169.5 24t-129 71t-82.5 116t-29 159t28.5 159t81 116t126.5 71t164 24q91 0 172 -31t138 -84l-50 -60q-57 53 -119.5 76.5t-130.5 23.5q-51 0 -95 -15t-77.5 -46.5t-55 -79.5t-26.5 -114
h378v-75h-378q4 -68 25.5 -117t56 -80.5t81 -47t101.5 -15.5z" />
    <glyph glyph-name="afii10054" unicode="&#x405;" horiz-adv-x="750" 
d="M720 185q0 -43 -18 -80.5t-58.5 -65t-105 -43.5t-158.5 -16q-53 0 -103.5 8t-96 23t-84 36.5t-66.5 47.5l50 60q57 -49 133 -74.5t167 -25.5q101 0 143 28t42 77q0 38 -33 64t-112 51l-190 60q-94 30 -142 76.5t-48 118.5q0 37 17.5 71.5t54.5 61t94.5 42t138.5 15.5
q49 0 97.5 -8t93 -23t83 -36.5t66.5 -47.5l-50 -60q-57 49 -128 74.5t-162 25.5q-75 0 -112.5 -26t-37.5 -64q0 -21 7 -36.5t23.5 -29t43.5 -25t67 -24.5l189 -60q91 -29 143 -76t52 -119z" />
    <glyph glyph-name="uni0406" unicode="&#x406;" horiz-adv-x="285" 
d="M215 0h-145v700h145v-700z" />
    <glyph glyph-name="afii10056" unicode="&#x407;" horiz-adv-x="300" 
d="M225 0h-145v700h145v-700zM120 845q0 -30 -20.5 -52.5t-54.5 -22.5t-54.5 22.5t-20.5 52.5t20.5 52.5t54.5 22.5q33 0 54 -22.5t21 -52.5zM330 845q0 -30 -20.5 -52.5t-54.5 -22.5t-54.5 22.5t-20.5 52.5t20.5 52.5t54.5 22.5q33 0 54 -22.5t21 -52.5z" />
    <glyph glyph-name="afii10057" unicode="&#x408;" horiz-adv-x="660" 
d="M260 -20q-36 0 -71.5 6t-68.5 17t-61 25.5t-49 31.5l45 60q45 -34 91.5 -49.5t103.5 -15.5q41 0 76.5 12.5t62 40.5t41.5 71.5t15 105.5v340h-235v75h380v-415q0 -77 -23.5 -134t-66.5 -95t-104 -57t-136 -19z" />
    <glyph glyph-name="afii10058" unicode="&#x409;" horiz-adv-x="1325" 
d="M975 440q154 0 232 -59.5t78 -160.5t-78 -160.5t-232 -59.5h-370v625h-305l-30 -455q-7 -98 -54.5 -141.5t-130.5 -43.5q-26 0 -46 5q-11 2 -19 5v65h30q30 0 53 25t27 85l35 530h585v-260h225zM750 365v-290h225q72 0 113.5 36.5t41.5 108.5t-41.5 108.5t-113.5 36.5
h-225z" />
    <glyph glyph-name="afii10059" unicode="&#x40a;" horiz-adv-x="1325" 
d="M975 420q77 0 135 -15t97 -43t58.5 -66.5t19.5 -85.5t-19.5 -85.5t-58.5 -66.5t-97 -43t-135 -15h-370v335h-390v-335h-145v700h145v-290h390v290h145v-280h225zM750 345v-270h225q72 0 113.5 35.5t41.5 99.5t-41.5 99.5t-113.5 35.5h-225z" />
    <glyph glyph-name="afii10060" unicode="&#x40b;" horiz-adv-x="885" 
d="M495 625h-190v-165h190q88 0 150.5 -14t102.5 -41t58.5 -67.5t18.5 -92.5v-245h-145v245q0 71 -42 105.5t-143 34.5h-190v-385h-145v625h-150v75h485v-75z" />
    <glyph glyph-name="afii10061" unicode="&#x40c;" horiz-adv-x="795" 
d="M520 355l265 -355h-165l-230 310h-175v-310h-145v700h145v-315h165l230 315h160zM531 890l-106 -150h-95l60 150h141z" />
    <glyph glyph-name="afii10062" unicode="&#x40e;" horiz-adv-x="795" 
d="M785 700l-375 -700h-155l110 205h-80l-285 495h165l235 -410h10l220 410h155zM400 735q-105 0 -150 45t-45 120h115q0 -45 23 -65t57 -20t57 20t23 65h115q0 -75 -45 -120t-150 -45z" />
    <glyph glyph-name="afii10145" unicode="&#x40f;" horiz-adv-x="840" 
d="M70 0v700h145v-625h410v625h145v-700h-700zM495 0l-20 -160h-110l-20 160h150z" />
    <glyph glyph-name="afii10017" unicode="&#x410;" horiz-adv-x="820" 
d="M255 245h310l-150 370h-10zM525 700l285 -700h-144l-66 170h-380l-66 -170h-144l285 700h230z" />
    <glyph glyph-name="afii10018" unicode="&#x411;" horiz-adv-x="785" 
d="M440 420q77 0 135 -15t97 -43t58.5 -66.5t19.5 -85.5t-19.5 -85.5t-58.5 -66.5t-97 -43t-135 -15h-370v700h600v-75h-455v-205h225zM215 345v-270h225q72 0 113.5 35.5t41.5 99.5t-41.5 99.5t-113.5 35.5h-225z" />
    <glyph glyph-name="afii10019" unicode="&#x412;" horiz-adv-x="800" 
d="M70 700h340q77 0 133.5 -13.5t93.5 -38t55 -58.5t18 -75q0 -53 -30 -92t-90 -58q75 -15 117.5 -58.5t42.5 -111.5q0 -90 -74.5 -142.5t-235.5 -52.5h-370v700zM215 320v-245h225q75 0 115 30t40 90q0 64 -40 94.5t-115 30.5h-225zM410 395q145 0 145 120q0 53 -36.5 81.5
t-108.5 28.5h-195v-230h195z" />
    <glyph glyph-name="afii10020" unicode="&#x413;" horiz-adv-x="660" 
d="M215 625v-625h-145v700h580v-75h-435z" />
    <glyph glyph-name="afii10021" unicode="&#x414;" horiz-adv-x="870" 
d="M60 75q30 0 55.5 28t29.5 77l40 520h560v-625h85v-235h-120l-20 160h-540l-20 -160h-120v235h50zM285 180q-2 -26 -13 -46t-24 -33q-15 -16 -33 -26h385v550h-280z" />
    <glyph glyph-name="afii10022" unicode="&#x415;" horiz-adv-x="710" 
d="M215 625v-230h365v-75h-365v-245h465v-75h-610v700h610v-75h-465z" />
    <glyph glyph-name="afii10024" unicode="&#x416;" horiz-adv-x="1145" 
d="M500 700h145v-315h135l180 315h160l-200 -345l215 -355h-165l-185 310h-140v-310h-145v310h-140l-185 -310h-165l215 355l-200 345h160l180 -315h135v315z" />
    <glyph glyph-name="afii10025" unicode="&#x417;" horiz-adv-x="745" 
d="M350 645q-72 0 -134.5 -20.5t-119.5 -69.5l-45 60q57 49 136 77t173 28q77 0 135 -14t97 -39t58.5 -59t19.5 -73q0 -64 -31 -105.5t-99 -64.5q75 -19 117.5 -63.5t42.5 -116.5q0 -43 -20.5 -80.5t-64 -65t-111.5 -43.5t-164 -16q-98 0 -180.5 31t-139.5 84l50 60
q57 -53 121 -76.5t139 -23.5q58 0 99 10.5t66.5 29.5t37.5 44.5t12 55.5q0 60 -38 92.5t-117 32.5h-210v75h190q145 0 145 130q0 53 -43 86.5t-122 33.5z" />
    <glyph glyph-name="afii10026" unicode="&#x418;" horiz-adv-x="860" 
d="M645 0v570h-10l-375 -570h-190v700h145v-570h10l375 570h190v-700h-145z" />
    <glyph glyph-name="afii10027" unicode="&#x419;" horiz-adv-x="860" 
d="M645 0v570h-10l-375 -570h-190v700h145v-570h10l375 570h190v-700h-145zM420 755q-105 0 -150 45t-45 120h115q0 -45 23 -65t57 -20t57 20t23 65h115q0 -75 -45 -120t-150 -45z" />
    <glyph glyph-name="afii10028" unicode="&#x41a;" horiz-adv-x="795" 
d="M520 355l265 -355h-165l-230 310h-175v-310h-145v700h145v-315h165l230 315h160z" />
    <glyph glyph-name="afii10029" unicode="&#x41b;" horiz-adv-x="830" 
d="M20 60h30q30 0 53 25t27 85l35 530h595v-700h-145v625h-315l-30 -455q-7 -98 -54.5 -141.5t-130.5 -43.5q-26 0 -46 5q-11 2 -19 5v65z" />
    <glyph glyph-name="afii10030" unicode="&#x41c;" horiz-adv-x="1100" 
d="M545 100h10l260 600h215v-700h-145v560h-10l-240 -560h-170l-240 560h-10v-560h-145v700h215z" />
    <glyph glyph-name="afii10031" unicode="&#x41d;" horiz-adv-x="840" 
d="M770 700v-700h-145v305h-410v-305h-145v700h145v-320h410v320h145z" />
    <glyph glyph-name="afii10032" unicode="&#x41e;" horiz-adv-x="900" 
d="M450 650q-51 0 -95.5 -18t-77.5 -55t-52.5 -93.5t-19.5 -133.5t19.5 -133.5t52.5 -93.5t77.5 -55t95.5 -18t95.5 18t77.5 55t52.5 93.5t19.5 133.5t-19.5 133.5t-52.5 93.5t-77.5 55t-95.5 18zM450 720q90 0 163.5 -24t126 -71t81.5 -116t29 -159t-29 -159t-81.5 -116
t-126 -71t-163.5 -24t-164 24t-126.5 71t-81 116t-28.5 159t28.5 159t81 116t126.5 71t164 24z" />
    <glyph glyph-name="afii10033" unicode="&#x41f;" horiz-adv-x="840" 
d="M770 700v-700h-145v625h-410v-625h-145v700h700z" />
    <glyph glyph-name="afii10034" unicode="&#x420;" horiz-adv-x="790" 
d="M430 700q75 0 134.5 -16.5t100.5 -48t63 -77t22 -103.5t-22 -103.5t-63 -77t-100.5 -48t-134.5 -16.5h-215v-210h-145v700h360zM215 625v-340h215q79 0 122.5 41.5t43.5 128.5t-43.5 128.5t-122.5 41.5h-215z" />
    <glyph glyph-name="afii10035" unicode="&#x421;" horiz-adv-x="790" 
d="M470 55q68 0 130.5 23.5t119.5 76.5l50 -60q-57 -53 -138 -84t-172 -31q-94 0 -169.5 24t-129 71t-82.5 116t-29 159t28.5 159t81 116t126.5 71t164 24q91 0 172 -31t138 -84l-50 -60q-57 53 -119.5 76.5t-130.5 23.5q-54 0 -101 -17.5t-81 -53.5t-53.5 -91.5
t-19.5 -132.5t19.5 -132.5t55 -91.5t84 -53.5t106.5 -17.5z" />
    <glyph glyph-name="afii10036" unicode="&#x422;" horiz-adv-x="705" 
d="M695 625h-270v-625h-145v625h-270v75h685v-75z" />
    <glyph glyph-name="afii10037" unicode="&#x423;" horiz-adv-x="795" 
d="M785 700l-375 -700h-155l110 205h-80l-285 495h165l235 -410h10l220 410h155z" />
    <glyph glyph-name="afii10038" unicode="&#x424;" horiz-adv-x="995" 
d="M570 -40h-145v80h-30q-81 0 -146.5 20.5t-112 59.5t-71.5 97t-25 133t25 133t71.5 97t112 59.5t146.5 20.5h30v80h145v-80h30q81 0 146.5 -20.5t112 -59.5t71.5 -97t25 -133t-25 -133t-71.5 -97t-112 -59.5t-146.5 -20.5h-30v-80zM570 115h30q41 0 77.5 13t63.5 41
t43 72.5t16 108.5t-16 108.5t-43 72.5t-63.5 41t-77.5 13h-30v-470zM425 585h-30q-41 0 -77.5 -13t-63.5 -41t-43 -72.5t-16 -108.5t16 -108.5t43 -72.5t63.5 -41t77.5 -13h30v470z" />
    <glyph glyph-name="afii10039" unicode="&#x425;" horiz-adv-x="765" 
d="M467 359l298 -359h-170l-213 256l-212 -256h-170l297 359l-282 341h170l197 -239l198 239h170z" />
    <glyph glyph-name="afii10040" unicode="&#x426;" horiz-adv-x="875" 
d="M835 75v-235h-120l-20 160h-625v700h145v-625h390v625h145v-625h85z" />
    <glyph glyph-name="afii10041" unicode="&#x427;" horiz-adv-x="785" 
d="M380 230q-88 0 -150.5 14t-102.5 41t-58.5 67t-18.5 93v255h145v-255q0 -71 42 -105.5t143 -34.5h190v395h145v-700h-145v230h-190z" />
    <glyph glyph-name="afii10042" unicode="&#x428;" horiz-adv-x="1095" 
d="M70 0v700h145v-625h260v625h145v-625h260v625h145v-700h-955z" />
    <glyph glyph-name="afii10043" unicode="&#x429;" horiz-adv-x="1150" 
d="M1110 75v-235h-120l-20 160h-900v700h145v-625h260v625h145v-625h260v625h145v-625h85z" />
    <glyph glyph-name="afii10044" unicode="&#x42a;" horiz-adv-x="880" 
d="M530 440q154 0 232 -59.5t78 -160.5t-78 -160.5t-232 -59.5h-370v615h-150v85h296l-1 -1v-259h225zM305 365v-290h225q72 0 113.5 36.5t41.5 108.5t-41.5 108.5t-113.5 36.5h-225z" />
    <glyph glyph-name="afii10045" unicode="&#x42b;" horiz-adv-x="1045" 
d="M975 0h-145v700h145v-700zM420 440q154 0 232 -59.5t78 -160.5t-78 -160.5t-232 -59.5h-350v700h145v-260h205zM215 365v-290h205q72 0 113.5 36.5t41.5 108.5t-41.5 108.5t-113.5 36.5h-205z" />
    <glyph glyph-name="afii10046" unicode="&#x42c;" horiz-adv-x="790" 
d="M440 440q154 0 232 -59.5t78 -160.5t-78 -160.5t-232 -59.5h-370v700h145v-260h225zM215 365v-290h225q72 0 113.5 36.5t41.5 108.5t-41.5 108.5t-113.5 36.5h-225z" />
    <glyph glyph-name="afii10047" unicode="&#x42d;" horiz-adv-x="790" 
d="M320 55q55 0 101 15.5t80.5 47t55.5 80.5t26 117h-377v75h377q-5 66 -26 114t-54.5 79.5t-77.5 46.5t-95 15q-68 0 -130.5 -23.5t-119.5 -76.5l-50 60q57 53 138 84t172 31q90 0 163.5 -24t126 -71t81.5 -116t29 -159t-29 -159t-82.5 -116t-129 -71t-169.5 -24
q-91 0 -172 31t-138 84l50 60q57 -53 119.5 -76.5t130.5 -23.5z" />
    <glyph glyph-name="afii10048" unicode="&#x42e;" horiz-adv-x="1155" 
d="M720 -20q-79 0 -146 21t-117.5 62.5t-81.5 102t-38 139.5h-122v-305h-145v700h145v-320h121q5 82 35 145.5t80.5 107t119 65.5t149.5 22q84 0 155 -24t122 -71t79.5 -116t28.5 -159t-28.5 -159t-79.5 -116t-122 -71t-155 -24zM720 650q-45 0 -86.5 -18t-73.5 -55
t-51 -93.5t-19 -133.5t19 -133.5t51 -93.5t73.5 -55t86.5 -18t86.5 18t73.5 55t51 93.5t19 133.5t-19 133.5t-51 93.5t-73.5 55t-86.5 18z" />
    <glyph glyph-name="afii10049" unicode="&#x42f;" horiz-adv-x="800" 
d="M40 0l165 236q-75 29 -115 84t-40 135q0 58 22 103.5t63 77t100.5 48t134.5 16.5h360v-700h-145v210h-215h-18l-147 -210h-165zM370 625q-79 0 -122 -41.5t-43 -128.5t43 -128.5t122 -41.5h215v340h-215z" />
    <glyph glyph-name="afii10065" unicode="&#x430;" horiz-adv-x="645" 
d="M185 165q0 -95 115 -95h140v190h-140q-115 0 -115 -95zM440 330q0 72 -37.5 106t-97.5 34q-45 0 -88 -13.5t-77 -36.5l-35 60q22 15 48.5 26t54.5 18.5t55.5 11.5t51.5 4q64 0 113 -15t83 -43t51.5 -66.5t17.5 -85.5v-330h-280q-136 0 -200.5 41t-64.5 124t64.5 124
t200.5 41h140z" />
    <glyph glyph-name="afii10066" unicode="&#x431;" horiz-adv-x="680" 
d="M345 410q-30 0 -57 -11.5t-48 -34t-33 -56t-12 -78.5q0 -47 12 -81.5t33 -57.5t48 -34.5t57 -11.5t57 11.5t48 34.5t33 57.5t12 81.5q0 45 -12 78.5t-33 56t-48 34t-57 11.5zM355 480q62 0 115 -18t92 -51t61 -79t22 -102t-22.5 -102t-62 -79t-94.5 -51t-121 -18
t-121 18.5t-94.5 53t-62 84.5t-22.5 114v115q0 157 75 237t210 93l260 25v-115l-250 -25q-210 -21 -210 -215h10q30 57 83 86t132 29z" />
    <glyph glyph-name="afii10067" unicode="&#x432;" horiz-adv-x="650" 
d="M580 375q0 -38 -27.5 -65t-87.5 -35q72 -11 108.5 -45.5t36.5 -79.5q0 -32 -14.5 -59.5t-44.5 -47.5t-76 -31.5t-110 -11.5h-295v520h265q64 0 110 -11.5t76 -31t44.5 -46t14.5 -56.5zM365 70q45 0 70 23t25 57t-25 57t-70 23h-155v-160h155zM335 300q45 0 70 22.5
t25 52.5t-25 52.5t-70 22.5h-125v-150h125z" />
    <glyph glyph-name="afii10068" unicode="&#x433;" horiz-adv-x="500" 
d="M490 450h-280v-450h-140v520h420v-70z" />
    <glyph glyph-name="afii10069" unicode="&#x434;" horiz-adv-x="730" 
d="M10 70h40q34 0 55 23.5t25 76.5l25 350h460v-450h80v-220h-115l-20 150h-415l-20 -150h-115v220zM265 170q-2 -25 -11.5 -43.5t-20.5 -30.5t-21 -18.5t-12 -7.5h275v380h-190z" />
    <glyph glyph-name="afii10070" unicode="&#x435;" horiz-adv-x="670" 
d="M370 50q49 0 91.5 17t83.5 48l40 -60q-19 -17 -44.5 -31t-55 -23.5t-61.5 -15t-64 -5.5q-71 0 -129.5 18.5t-99.5 54t-63.5 87.5t-22.5 120q0 67 21.5 119.5t60 88t91.5 54t117 18.5q60 0 113 -18t92 -52.5t62 -83.5t23 -111v-70h-427q12 -83 57.5 -119t114.5 -36z
M335 475q-29 0 -54 -11t-43.5 -35t-30 -62t-12.5 -92h280q0 52 -12 90t-31.5 62.5t-45 36t-51.5 11.5z" />
    <glyph glyph-name="afii10072" unicode="&#x436;" horiz-adv-x="980" 
d="M180 0h-160l185 265l-175 255h150l155 -225h85v225h140v-225h85l155 225h150l-175 -255l185 -265h-160l-155 225h-85v-225h-140v225h-85z" />
    <glyph glyph-name="afii10073" unicode="&#x437;" horiz-adv-x="600" 
d="M535 395q0 -98 -125 -120q72 -11 108.5 -46.5t36.5 -88.5q0 -34 -15.5 -63t-49.5 -50.5t-87 -34t-128 -12.5q-83 0 -150.5 22.5t-109.5 52.5l40 60q42 -26 92 -45.5t118 -19.5q79 0 109.5 25.5t30.5 74.5q0 34 -25 57t-70 23h-175v70h155q45 0 70 23.5t25 61.5
t-26.5 61.5t-83.5 23.5q-64 0 -113.5 -19.5t-91.5 -45.5l-40 60q42 30 109 52.5t146 22.5q64 0 111 -12t78 -32.5t46 -46.5t15 -54z" />
    <glyph glyph-name="afii10074" unicode="&#x438;" horiz-adv-x="700" 
d="M630 520v-520h-140v390h-10l-230 -390h-180v520h140v-390h10l230 390h180z" />
    <glyph glyph-name="afii10075" unicode="&#x439;" horiz-adv-x="700" 
d="M340 580q-94 0 -142 43.5t-48 111.5h115q0 -38 22.5 -61.5t52.5 -23.5t52.5 23.5t22.5 61.5h115q0 -68 -48 -111.5t-142 -43.5zM630 520v-520h-140v390h-10l-230 -390h-180v520h140v-390h10l230 390h180z" />
    <glyph glyph-name="afii10076" unicode="&#x43a;" horiz-adv-x="650" 
d="M315 225h-105v-225h-140v520h140v-225h105l155 225h150l-175 -255l185 -265h-160z" />
    <glyph glyph-name="afii10077" unicode="&#x43b;" horiz-adv-x="680" 
d="M15 55h30q13 0 24 5.5t19.5 18.5t14 35t7.5 56l20 350h480v-520h-140v450h-210l-15 -280q-5 -101 -47.5 -143t-117.5 -42q-24 0 -44 5q-11 2 -21 5v60z" />
    <glyph glyph-name="afii10078" unicode="&#x43c;" horiz-adv-x="890" 
d="M450 90l165 430h205v-520h-140v380h-10l-145 -380h-159l-146 380h-10v-380h-140v520h205l165 -430h10z" />
    <glyph glyph-name="afii10079" unicode="&#x43d;" 
d="M620 520v-520h-140v230h-270v-230h-140v520h140v-220h270v220h140z" />
    <glyph glyph-name="afii10080" unicode="&#x43e;" horiz-adv-x="700" 
d="M350 45q32 0 60 12t49 37.5t33.5 66.5t12.5 99t-12.5 99t-33.5 66.5t-49 37.5t-60 12t-60 -12t-49 -37.5t-33.5 -66.5t-12.5 -99t12.5 -99t33.5 -66.5t49 -37.5t60 -12zM350 540q67 0 123.5 -18.5t96.5 -54t62.5 -88t22.5 -119.5q0 -68 -22.5 -120t-62.5 -87.5t-96.5 -54
t-123.5 -18.5q-68 0 -124 18.5t-96 54t-62.5 87.5t-22.5 120q0 67 22.5 119.5t62.5 88t96 54t124 18.5z" />
    <glyph glyph-name="afii10081" unicode="&#x43f;" 
d="M620 520v-520h-140v450h-270v-450h-140v520h550z" />
    <glyph glyph-name="afii10082" unicode="&#x440;" horiz-adv-x="685" 
d="M210 450v-380h125q34 0 62.5 10.5t49 33.5t32 59t11.5 87t-11.5 87t-32 59t-49 33.5t-62.5 10.5h-125zM335 520q69 0 125.5 -18t96.5 -52t61.5 -82t21.5 -108t-21.5 -108t-61.5 -82t-96.5 -52t-125.5 -18h-125v-180h-140v700h265z" />
    <glyph glyph-name="afii10083" unicode="&#x441;" horiz-adv-x="620" 
d="M350 540q32 0 64 -5.5t61.5 -15t55 -23.5t44.5 -31l-40 -60q-41 31 -83.5 48t-91.5 17q-36 0 -66 -11.5t-52 -37t-34.5 -65.5t-12.5 -96t12.5 -96t35.5 -65.5t55.5 -37t71.5 -11.5q49 0 91.5 17t83.5 48l40 -60q-19 -17 -44.5 -31t-55 -23.5t-61.5 -15t-64 -5.5
q-71 0 -129.5 18.5t-99.5 54t-63.5 87.5t-22.5 120q0 67 22.5 119.5t62.5 88t96 54t124 18.5z" />
    <glyph glyph-name="afii10084" unicode="&#x442;" horiz-adv-x="580" 
d="M570 450h-210v-450h-140v450h-210v70h560v-70z" />
    <glyph glyph-name="afii10085" unicode="&#x443;" horiz-adv-x="650" 
d="M375 -180h-140l70 180h-85l-210 520h140l175 -435h10l165 435h140z" />
    <glyph glyph-name="afii10086" unicode="&#x444;" horiz-adv-x="850" 
d="M355 -180v180h-15q-66 0 -120 18t-93 52t-60.5 82t-21.5 108t21.5 108t60.5 82t93 52t120 18h15v180h140v-180h15q66 0 120 -18t93 -52t60.5 -82t21.5 -108t-21.5 -108t-60.5 -82t-93 -52t-120 -18h-15v-180h-140zM355 70v380h-15q-30 0 -56.5 -10.5t-46 -33.5t-31 -59
t-11.5 -87t11.5 -87t31 -59t46 -33.5t56.5 -10.5h15zM495 450v-380h15q30 0 56.5 10.5t46 33.5t31 59t11.5 87t-11.5 87t-31 59t-46 33.5t-56.5 10.5h-15z" />
    <glyph glyph-name="afii10087" unicode="&#x445;" horiz-adv-x="620" 
d="M390 263l220 -263h-160l-140 167l-140 -167h-160l220 263l-215 257h160l135 -162l135 162h160z" />
    <glyph glyph-name="afii10088" unicode="&#x446;" horiz-adv-x="720" 
d="M70 0v520h140v-450h250v450h140v-450h85v-220h-115l-20 150h-480z" />
    <glyph glyph-name="afii10089" unicode="&#x447;" horiz-adv-x="655" 
d="M55 520h140v-180q0 -49 28 -74.5t92 -25.5h130v280h140v-520h-140v170h-130q-69 0 -118.5 12t-81 34t-46 53.5t-14.5 70.5v180z" />
    <glyph glyph-name="afii10090" unicode="&#x448;" horiz-adv-x="920" 
d="M70 0v520h140v-450h180v450h140v-450h180v450h140v-520h-780z" />
    <glyph glyph-name="afii10091" unicode="&#x449;" horiz-adv-x="970" 
d="M70 0v520h140v-450h180v450h140v-450h180v450h140v-450h85v-220h-115l-20 150h-730z" />
    <glyph glyph-name="afii10092" unicode="&#x44a;" horiz-adv-x="720" 
d="M440 340q128 0 186.5 -45.5t58.5 -124.5t-58.5 -124.5t-186.5 -45.5h-290v440h-140v80h280v-180h150zM290 270v-200h150q45 0 70 25.5t25 74.5t-25 74.5t-70 25.5h-150z" />
    <glyph glyph-name="afii10093" unicode="&#x44b;" horiz-adv-x="870" 
d="M660 0v520h140v-520h-140zM340 340q128 0 186.5 -45.5t58.5 -124.5t-58.5 -124.5t-186.5 -45.5h-270v520h140v-180h130zM210 270v-200h130q45 0 70 25.5t25 74.5t-25 74.5t-70 25.5h-130z" />
    <glyph glyph-name="afii10094" unicode="&#x44c;" horiz-adv-x="640" 
d="M360 340q128 0 186.5 -45.5t58.5 -124.5t-58.5 -124.5t-186.5 -45.5h-290v520h140v-180h150zM210 270v-200h150q45 0 70 25.5t25 74.5t-25 74.5t-70 25.5h-150z" />
    <glyph glyph-name="afii10095" unicode="&#x44d;" horiz-adv-x="620" 
d="M270 540q67 0 123.5 -18.5t96.5 -54t62.5 -88t22.5 -119.5q0 -68 -22.5 -120t-64 -87.5t-99.5 -54t-129 -18.5q-32 0 -64 5.5t-61.5 15t-55 23.5t-44.5 31l40 60q41 -31 83.5 -48t91.5 -17q73 0 120 42t54 138h-259v70h258q-5 45 -18.5 77.5t-35 53t-49.5 30t-60 9.5
q-49 0 -91.5 -17t-83.5 -48l-40 60q19 17 44.5 31t55 23.5t61.5 15t64 5.5z" />
    <glyph glyph-name="afii10096" unicode="&#x44e;" horiz-adv-x="930" 
d="M595 540q62 0 115 -18.5t92 -54t61 -88t22 -119.5q0 -68 -22 -120t-61 -87.5t-92 -54t-115 -18.5q-59 0 -109.5 16.5t-88.5 48t-62 78.5t-29 107h-96v-230h-140v520h140v-220h97q6 58 30.5 102.5t62.5 75t88 46.5t107 16zM595 45q26 0 51.5 12t45 37.5t31.5 66.5t12 99
t-12 99t-31.5 66.5t-45 37.5t-51.5 12t-51.5 -12t-45 -37.5t-31.5 -66.5t-12 -99t12 -99t31.5 -66.5t45 -37.5t51.5 -12z" />
    <glyph glyph-name="afii10097" unicode="&#x44f;" horiz-adv-x="650" 
d="M40 0l134 193q-67 18 -98 58.5t-31 98.5q0 79 58.5 124.5t186.5 45.5h290v-520h-140v180h-114l-126 -180h-160zM440 250v200h-150q-45 0 -70 -25.5t-25 -74.5t25 -74.5t70 -25.5h150z" />
    <glyph glyph-name="afii10071" unicode="&#x451;" horiz-adv-x="670" 
d="M370 50q49 0 91.5 17t83.5 48l40 -60q-19 -17 -44.5 -31t-55 -23.5t-61.5 -15t-64 -5.5q-71 0 -129.5 18.5t-99.5 54t-63.5 87.5t-22.5 120q0 67 21.5 119.5t60 88t91.5 54t117 18.5q60 0 113 -18t92 -52.5t62 -83.5t23 -111v-70h-427q12 -83 57.5 -119t114.5 -36z
M335 475q-29 0 -54 -11t-43.5 -35t-30 -62t-12.5 -92h280q0 52 -12 90t-31.5 62.5t-45 36t-51.5 11.5zM295 655q0 -30 -20.5 -52.5t-54.5 -22.5t-54.5 22.5t-20.5 52.5t20.5 52.5t54.5 22.5q33 0 54 -22.5t21 -52.5zM525 655q0 -30 -20.5 -52.5t-54.5 -22.5t-54.5 22.5
t-20.5 52.5t20.5 52.5t54.5 22.5q33 0 54 -22.5t21 -52.5z" />
    <glyph glyph-name="afii10099" unicode="&#x452;" horiz-adv-x="705" 
d="M520 265q0 72 -36 103.5t-104 31.5h-130v-400h-140v550h-90v70h90v80h140v-80h160v-70h-160v-80h130q143 0 211.5 -51.5t68.5 -153.5v-95q0 -101 -44 -143t-126 -42q-30 0 -53 5q-12 2 -22 5v60h40q15 0 27 5.5t20.5 18.5t13 35t4.5 56v95z" />
    <glyph glyph-name="afii10100" unicode="&#x453;" horiz-adv-x="500" 
d="M490 450h-280v-450h-140v520h420v-70zM426 730l-106 -150h-95l60 150h141z" />
    <glyph glyph-name="afii10101" unicode="&#x454;" horiz-adv-x="615" 
d="M350 540q32 0 64 -5.5t61.5 -15t55 -23.5t44.5 -31l-40 -60q-41 31 -83.5 48t-91.5 17q-32 0 -60 -9.5t-49.5 -30t-35.5 -53t-18 -77.5h258v-70h-259q7 -96 53.5 -138t120.5 -42q49 0 91.5 17t83.5 48l40 -60q-19 -17 -44.5 -31t-55 -23.5t-61.5 -15t-64 -5.5
q-71 0 -129.5 18.5t-99.5 54t-63.5 87.5t-22.5 120q0 67 22.5 119.5t62.5 88t96 54t124 18.5z" />
    <glyph glyph-name="afii10102" unicode="&#x455;" horiz-adv-x="615" 
d="M190 410q0 -23 20.5 -42t69.5 -33l155 -45q72 -21 111 -57t39 -93q0 -36 -15 -65.5t-49 -50.5t-88 -32.5t-133 -11.5q-41 0 -80.5 6t-75 16.5t-64.5 24t-50 28.5l40 60q42 -26 98.5 -45.5t131.5 -19.5t105 20t30 50q0 23 -21 41.5t-74 33.5l-155 45q-64 19 -104.5 54.5
t-40.5 95.5q0 32 14.5 59.5t45.5 47.5t79 31.5t116 11.5q83 0 150.5 -22.5t109.5 -52.5l-40 -60q-41 26 -93 45.5t-127 19.5q-53 0 -79 -17t-26 -43z" />
    <glyph glyph-name="afii10103" unicode="&#x456;" horiz-adv-x="280" 
d="M210 0h-140v510h140v-510zM215 645q0 -30 -20.5 -52.5t-54.5 -22.5t-54.5 22.5t-20.5 52.5t20.5 52.5t54.5 22.5q33 0 54 -22.5t21 -52.5z" />
    <glyph glyph-name="afii10104" unicode="&#x457;" horiz-adv-x="300" 
d="M220 0h-140v510h140v-510zM120 645q0 -30 -20.5 -52.5t-54.5 -22.5t-54.5 22.5t-20.5 52.5t20.5 52.5t54.5 22.5q33 0 54 -22.5t21 -52.5zM330 645q0 -30 -20.5 -52.5t-54.5 -22.5t-54.5 22.5t-20.5 52.5t20.5 52.5t54.5 22.5q33 0 54 -22.5t21 -52.5z" />
    <glyph glyph-name="afii10105" unicode="&#x458;" horiz-adv-x="300" 
d="M225 0q0 -43 -14 -79.5t-40.5 -63.5t-65.5 -42t-90 -15q-26 0 -55.5 5t-59.5 20l20 65q15 -8 35.5 -14t39.5 -6t35.5 7t28.5 22.5t19 40t7 60.5v510h140v-510zM230 645q0 -30 -20.5 -52.5t-54.5 -22.5t-54.5 22.5t-20.5 52.5t20.5 52.5t54.5 22.5q33 0 54 -22.5t21 -52.5
z" />
    <glyph glyph-name="afii10106" unicode="&#x459;" horiz-adv-x="1030" 
d="M750 340q128 0 186.5 -45.5t58.5 -124.5t-58.5 -124.5t-186.5 -45.5h-290v450h-200l-15 -280q-5 -101 -47.5 -143t-117.5 -42q-24 0 -44 5q-11 2 -21 5v60h30q13 0 24 5.5t19.5 18.5t14 35t7.5 56l20 350h470v-180h150zM600 270v-200h150q45 0 70 25.5t25 74.5t-25 74.5
t-70 25.5h-150z" />
    <glyph glyph-name="afii10107" unicode="&#x45a;" horiz-adv-x="1030" 
d="M750 320q64 0 110 -11.5t76 -32.5t44.5 -50.5t14.5 -65.5t-14.5 -65.5t-44.5 -50.5t-76 -32.5t-110 -11.5h-290v240h-250v-240h-140v520h140v-210h250v210h140v-200h150zM600 250v-180h150q45 0 70 24t25 66t-25 66t-70 24h-150z" />
    <glyph glyph-name="afii10108" unicode="&#x45b;" horiz-adv-x="720" 
d="M410 550h-160v-80h130q143 0 211.5 -51.5t68.5 -153.5v-265h-140v265q0 72 -36 103.5t-104 31.5h-130v-400h-140v550h-90v70h90v80h140v-80h160v-70z" />
    <glyph glyph-name="afii10109" unicode="&#x45c;" horiz-adv-x="650" 
d="M315 225h-105v-225h-140v520h140v-225h105l155 225h150l-175 -255l185 -265h-160zM476 710l-106 -150h-95l60 150h141z" />
    <glyph glyph-name="afii10110" unicode="&#x45e;" horiz-adv-x="650" 
d="M375 -180h-140l70 180h-85l-210 520h140l175 -435h10l165 435h140zM325 560q-94 0 -142 43.5t-48 111.5h115q0 -38 22.5 -61.5t52.5 -23.5t52.5 23.5t22.5 61.5h115q0 -68 -48 -111.5t-142 -43.5z" />
    <glyph glyph-name="afii10193" unicode="&#x45f;" 
d="M70 0v520h140v-450h270v450h140v-520h-205l-20 -150h-100l-20 150h-205z" />
    <glyph glyph-name="afii10050" unicode="&#x490;" horiz-adv-x="660" 
d="M215 625v-625h-145v700h450l20 120h110v-195h-435z" />
    <glyph glyph-name="afii10098" unicode="&#x491;" horiz-adv-x="500" 
d="M385 635h105v-185h-280v-450h-140v520h295z" />
    <glyph glyph-name="endash" unicode="&#x2013;" horiz-adv-x="630" 
d="M610 280h-590v90h590v-90z" />
    <glyph glyph-name="emdash" unicode="&#x2014;" horiz-adv-x="870" 
d="M850 280h-830v90h830v-90z" />
    <glyph glyph-name="quoteleft" unicode="&#x2018;" horiz-adv-x="255" 
d="M50 560q0 39 12 67.5t31 47t43.5 27t48.5 8.5v-35q-26 0 -48.5 -17.5t-26.5 -47.5q3 1 7 2q3 1 7.5 2t10.5 1q30 0 50 -22.5t20 -52.5t-20.5 -52.5t-54.5 -22.5q-38 0 -59 28.5t-21 66.5z" />
    <glyph glyph-name="quoteright" unicode="&#x2019;" horiz-adv-x="255" 
d="M205 615q0 -39 -12 -67.5t-31 -47t-43.5 -27t-48.5 -8.5v35q26 0 48.5 17.5t26.5 47.5q-3 -2 -7 -3q-8 -2 -18 -2q-30 0 -50 22.5t-20 52.5t20.5 52.5t54.5 22.5q38 0 59 -28.5t21 -66.5z" />
    <glyph glyph-name="quotesinglbase" unicode="&#x201a;" horiz-adv-x="255" 
d="M205 45q0 -39 -12 -67.5t-31 -47t-43.5 -27t-48.5 -8.5v35q26 0 48.5 17.5t26.5 47.5q-3 -2 -7 -3q-8 -2 -18 -2q-30 0 -50 22.5t-20 52.5t20.5 52.5t54.5 22.5q38 0 59 -28.5t21 -66.5z" />
    <glyph glyph-name="quotedblleft" unicode="&#x201c;" horiz-adv-x="455" 
d="M250 560q0 39 12 67.5t31 47t43.5 27t48.5 8.5v-35q-26 0 -48.5 -17.5t-26.5 -47.5q3 1 7 2q3 1 7.5 2t10.5 1q30 0 50 -22.5t20 -52.5t-20.5 -52.5t-54.5 -22.5q-38 0 -59 28.5t-21 66.5zM50 560q0 39 12 67.5t31 47t43.5 27t48.5 8.5v-35q-26 0 -48.5 -17.5
t-26.5 -47.5q3 1 7 2q3 1 7.5 2t10.5 1q30 0 50 -22.5t20 -52.5t-20.5 -52.5t-54.5 -22.5q-38 0 -59 28.5t-21 66.5z" />
    <glyph glyph-name="quotedblright" unicode="&#x201d;" horiz-adv-x="455" 
d="M205 615q0 -39 -12 -67.5t-31 -47t-43.5 -27t-48.5 -8.5v35q26 0 48.5 17.5t26.5 47.5q-3 -2 -7 -3q-8 -2 -18 -2q-30 0 -50 22.5t-20 52.5t20.5 52.5t54.5 22.5q38 0 59 -28.5t21 -66.5zM405 615q0 -39 -12 -67.5t-31 -47t-43.5 -27t-48.5 -8.5v35q26 0 48.5 17.5
t26.5 47.5q-3 -2 -7 -3q-8 -2 -18 -2q-30 0 -50 22.5t-20 52.5t20.5 52.5t54.5 22.5q38 0 59 -28.5t21 -66.5z" />
    <glyph glyph-name="quotedblbase" unicode="&#x201e;" horiz-adv-x="455" 
d="M205 45q0 -39 -12 -67.5t-31 -47t-43.5 -27t-48.5 -8.5v35q26 0 48.5 17.5t26.5 47.5q-3 -2 -7 -3q-8 -2 -18 -2q-30 0 -50 22.5t-20 52.5t20.5 52.5t54.5 22.5q38 0 59 -28.5t21 -66.5zM405 45q0 -39 -12 -67.5t-31 -47t-43.5 -27t-48.5 -8.5v35q26 0 48.5 17.5
t26.5 47.5q-3 -2 -7 -3q-8 -2 -18 -2q-30 0 -50 22.5t-20 52.5t20.5 52.5t54.5 22.5q38 0 59 -28.5t21 -66.5z" />
    <glyph glyph-name="dagger" unicode="&#x2020;" horiz-adv-x="600" 
d="M570 395h-200v-575h-140v575h-200v75h200v230h140v-230h200v-75z" />
    <glyph glyph-name="daggerdbl" unicode="&#x2021;" horiz-adv-x="600" 
d="M570 50h-200v-230h-140v230h-200v75h200v270h-200v75h200v230h140v-230h200v-75h-200v-270h200v-75z" />
    <glyph glyph-name="bullet" unicode="&#x2022;" horiz-adv-x="380" 
d="M310 300q0 -53 -33.5 -86.5t-86.5 -33.5t-86.5 33.5t-33.5 86.5t33.5 86.5t86.5 33.5t86.5 -33.5t33.5 -86.5z" />
    <glyph glyph-name="ellipsis" unicode="&#x2026;" horiz-adv-x="650" 
d="M200 65q0 -30 -20.5 -52.5t-54.5 -22.5t-54.5 22.5t-20.5 52.5t20.5 52.5t54.5 22.5q33 0 54 -22.5t21 -52.5zM400 65q0 -30 -20.5 -52.5t-54.5 -22.5t-54.5 22.5t-20.5 52.5t20.5 52.5t54.5 22.5q33 0 54 -22.5t21 -52.5zM600 65q0 -30 -20.5 -52.5t-54.5 -22.5
t-54.5 22.5t-20.5 52.5t20.5 52.5t54.5 22.5q33 0 54 -22.5t21 -52.5z" />
    <glyph glyph-name="perthousand" unicode="&#x2030;" horiz-adv-x="1225" 
d="M745 700l-500 -700h-145l500 700h145zM640 310q37 0 69.5 -10.5t55.5 -31t36.5 -51.5t13.5 -72t-13.5 -72t-36.5 -51.5t-55.5 -31t-69.5 -10.5q-38 0 -70 10.5t-55 31t-36.5 51.5t-13.5 72t13.5 72t36.5 51.5t55 31t70 10.5zM640 35q26 0 45.5 25t19.5 85t-19.5 85
t-45.5 25t-45.5 -25t-19.5 -85t19.5 -85t45.5 -25zM205 720q37 0 69.5 -10.5t55.5 -31t36.5 -51.5t13.5 -72t-13.5 -72t-36.5 -51.5t-55.5 -31t-69.5 -10.5q-38 0 -70 10.5t-55 31t-36.5 51.5t-13.5 72t13.5 72t36.5 51.5t55 31t70 10.5zM205 445q26 0 45.5 25t19.5 85
t-19.5 85t-45.5 25t-45.5 -25t-19.5 -85t19.5 -85t45.5 -25zM1020 310q37 0 69.5 -10.5t55.5 -31t36.5 -51.5t13.5 -72t-13.5 -72t-36.5 -51.5t-55.5 -31t-69.5 -10.5q-38 0 -70 10.5t-55 31t-36.5 51.5t-13.5 72t13.5 72t36.5 51.5t55 31t70 10.5zM1020 35q26 0 45.5 25
t19.5 85t-19.5 85t-45.5 25t-45.5 -25t-19.5 -85t19.5 -85t45.5 -25z" />
    <glyph glyph-name="guilsinglleft" unicode="&#x2039;" horiz-adv-x="390" 
d="M380 80l-75 -80l-275 260l275 260l75 -80l-190 -180z" />
    <glyph glyph-name="guilsinglright" unicode="&#x203a;" horiz-adv-x="390" 
d="M220 260l-190 180l75 80l275 -260l-275 -260l-75 80z" />
    <glyph glyph-name="foursuperior" unicode="&#x2074;" horiz-adv-x="508" 
d="M310 440v160h-5l-164 -160h169zM468 440v-60h-48v-90h-110v90h-280v64l260 256h130v-260h48z" />
    <glyph glyph-name="Euro" unicode="&#x20ac;" horiz-adv-x="840" 
d="M550 240h-283q25 -96 92.5 -140.5t160.5 -44.5q68 0 130.5 23.5t119.5 76.5l50 -60q-57 -53 -138 -84t-172 -31q-158 0 -261.5 66t-135.5 194h-103l10 70h81q-1 10 -1 19.5v20.5v20.5t1 19.5h-81l10 70h83q16 63 50 111.5t84 81.5t114 50t139 17q91 0 172 -31t138 -84
l-50 -60q-57 53 -119.5 76.5t-130.5 23.5q-87 0 -152.5 -45t-90.5 -140h313l-10 -70h-314q-1 -10 -1 -19.5v-20.5v-20.5t1 -19.5h304z" />
    <glyph glyph-name="afii61352" unicode="&#x2116;" horiz-adv-x="1220" 
d="M790 700v-700h-190l-375 570h-10v-570h-145v700h190l375 -570h10v570h145zM1015 720q37 0 69.5 -10.5t55.5 -31t36.5 -51.5t13.5 -72t-13.5 -72t-36.5 -51.5t-55.5 -31t-69.5 -10.5q-38 0 -70 10.5t-55 31t-36.5 51.5t-13.5 72t13.5 72t36.5 51.5t55 31t70 10.5z
M1015 445q26 0 45.5 25t19.5 85t-19.5 85t-45.5 25t-45.5 -25t-19.5 -85t19.5 -85t45.5 -25zM1170 260h-310v80h310v-80z" />
    <glyph glyph-name="trademark" unicode="&#x2122;" horiz-adv-x="1075" 
d="M430 640h-150v-350h-110v350h-150v60h410v-60zM680 290l-105 300h-5v-300h-110v410h160l120 -340h5l120 340h160v-410h-110v300h-5l-105 -300h-125z" />
    <glyph glyph-name="afii10055" horiz-adv-x="285" 
d="M215 0h-145v700h145v-700z" />
    <glyph glyph-name="commaaccent" horiz-adv-x="235" 
d="M195 -145q0 -39 -12 -67.5t-31 -47t-43.5 -27t-48.5 -8.5v35q26 0 48.5 17.5t26.5 47.5q-3 -2 -7 -3q-8 -2 -18 -2q-30 0 -50 22.5t-20 52.5t20.5 52.5t54.5 22.5q38 0 59 -28.5t21 -66.5z" />
    </font>
</defs>
</svg>
